999
dxfrw 0.5.11
0
SECTION
2
HEADER
9
$ACADVER
1
AC1021
9
$HANDSEED
5
20000
9
$DWGCODEPAGE
3
ANSI_1252
9
$INSBASE
10
0
20
0
30
0
9
$EXTMIN
10
14.027122
20
-117.67766953
30
0
9
$EXTMAX
10
674.686033
20
393.215328
30
0
9
$LIMMIN
10
0
20
0
9
$LIMMAX
10
420
20
297
9
$ORTHOMODE
70
0
9
$LTSCALE
40
1
9
$TEXTSTYLE
7
STANDARD
9
$CLAYER
8
0
9
$DIMASZ
40
2.5
9
$DIMLFAC
40
1
9
$DIMSCALE
40
1
9
$DIMEXO
40
0.625
9
$DIMEXE
40
1.25
9
$DIMTXT
40
2.5
9
$DIMTSZ
40
0
9
$DIMAUNIT
70
0
9
$DIMADEC
70
2
9
$DIMLUNIT
70
2
9
$DIMSTYLE
2
Standard
9
$DIMGAP
40
0.625
9
$DIMTIH
70
0
9
$LUNITS
70
2
9
$LUPREC
70
4
9
$AUNITS
70
0
9
$AUPREC
70
2
9
$SPLINESEGS
70
8
9
$GRIDMODE
70
1
9
$SNAPSTYLE
70
0
9
$GRIDUNIT
10
1
20
1
9
$PINSBASE
10
0
20
0
30
0
9
$PLIMMIN
10
0
20
0
9
$PLIMMAX
10
297
20
420
9
$INSUNITS
70
4
9
$PSVPSCALE
40
1
0
ENDSEC
0
SECTION
2
CLASSES
0
ENDSEC
0
SECTION
2
TABLES
0
TABLE
2
VPORT
5
8
330
0
100
AcDbSymbolTable
70
1
0
VPORT
5
31
330
2
100
AcDbSymbolTableRecord
100
AcDbViewportTableRecord
2
*ACTIVE
70
0
10
0
20
0
11
1
21
1
12
479.150730267
22
224.846139423
13
0
23
0
14
10
24
10
15
1
25
1
16
0
26
0
36
1
17
0
27
0
37
0
40
553.097455264
41
2.21304347826
42
50
43
0
44
0
50
0
51
0
71
0
72
100
73
1
74
3
75
0
76
1
77
0
78
0
281
0
65
1
110
0
120
0
130
0
111
1
121
0
131
0
112
0
122
1
132
0
79
0
146
0
348
10020
60
3
61
5
292
1
282
1
141
0
142
0
63
250
421
3358443
0
ENDTAB
0
TABLE
2
LTYPE
5
5
330
0
100
AcDbSymbolTable
70
4
0
LTYPE
5
14
330
5
100
AcDbSymbolTableRecord
100
AcDbLinetypeTableRecord
2
ByBlock
70
0
3

72
65
73
0
40
0
0
LTYPE
5
15
330
5
100
AcDbSymbolTableRecord
100
AcDbLinetypeTableRecord
2
ByLayer
70
0
3

72
65
73
0
40
0
0
LTYPE
5
16
330
5
100
AcDbSymbolTableRecord
100
AcDbLinetypeTableRecord
2
Continuous
70
0
3
Solid line
72
65
73
0
40
0
0
LTYPE
5
32
330
5
100
AcDbSymbolTableRecord
100
AcDbLinetypeTableRecord
2
DOT
70
0
3
Dot . . . . . . . . . . . . . . . . . . . . . .
72
65
73
2
40
6.35
49
0
74
0
49
-6.35
74
0
0
LTYPE
5
33
330
5
100
AcDbSymbolTableRecord
100
AcDbLinetypeTableRecord
2
DOT2
70
0
3
Dot (.5x) .....................................
72
65
73
2
40
3.175
49
0
74
0
49
-3.175
74
0
0
LTYPE
5
34
330
5
100
AcDbSymbolTableRecord
100
AcDbLinetypeTableRecord
2
DOTX2
70
0
3
Dot (2x) .  .  .  .  .  .  .  .  .  .  .  .  .
72
65
73
2
40
12.7
49
0
74
0
49
-12.7
74
0
0
LTYPE
5
35
330
5
100
AcDbSymbolTableRecord
100
AcDbLinetypeTableRecord
2
DASHED
70
0
3
Dot . . . . . . . . . . . . . . . . . . . . . .
72
65
73
2
40
19.05
49
12.7
74
0
49
-6.35
74
0
0
LTYPE
5
36
330
5
100
AcDbSymbolTableRecord
100
AcDbLinetypeTableRecord
2
DASHED2
70
0
3
Dashed (.5x) _ _ _ _ _ _ _ _ _ _ _ _ _ _ _ _ _
72
65
73
2
40
9.525
49
6.35
74
0
49
-3.175
74
0
0
LTYPE
5
37
330
5
100
AcDbSymbolTableRecord
100
AcDbLinetypeTableRecord
2
DASHEDX2
70
0
3
Dashed (2x) ____  ____  ____  ____  ____  ___
72
65
73
2
40
38.1
49
25.4
74
0
49
-12.7
74
0
0
LTYPE
5
38
330
5
100
AcDbSymbolTableRecord
100
AcDbLinetypeTableRecord
2
DASHDOT
70
0
3
Dash dot __ . __ . __ . __ . __ . __ . __ . __
72
65
73
4
40
25.4
49
12.7
74
0
49
-6.35
74
0
49
0
74
0
49
-6.35
74
0
0
LTYPE
5
39
330
5
100
AcDbSymbolTableRecord
100
AcDbLinetypeTableRecord
2
DASHDOT2
70
0
3
Dash dot (.5x) _._._._._._._._._._._._._._._.
72
65
73
4
40
12.7
49
6.35
74
0
49
-3.175
74
0
49
0
74
0
49
-3.175
74
0
0
LTYPE
5
3A
330
5
100
AcDbSymbolTableRecord
100
AcDbLinetypeTableRecord
2
DASHDOTX2
70
0
3
Dash dot (2x) ____  .  ____  .  ____  .  ___
72
65
73
4
40
50.8
49
25.4
74
0
49
-12.7
74
0
49
0
74
0
49
-12.7
74
0
0
LTYPE
5
3B
330
5
100
AcDbSymbolTableRecord
100
AcDbLinetypeTableRecord
2
DIVIDE
70
0
3
Divide ____ . . ____ . . ____ . . ____ . . ____
72
65
73
6
40
31.75
49
12.7
74
0
49
-6.35
74
0
49
0
74
0
49
-6.35
74
0
49
0
74
0
49
-6.35
74
0
0
LTYPE
5
3C
330
5
100
AcDbSymbolTableRecord
100
AcDbLinetypeTableRecord
2
DIVIDE2
70
0
3
Divide (.5x) __..__..__..__..__..__..__..__.._
72
65
73
6
40
15.875
49
6.35
74
0
49
-3.175
74
0
49
0
74
0
49
-3.175
74
0
49
0
74
0
49
-3.175
74
0
0
LTYPE
5
3D
330
5
100
AcDbSymbolTableRecord
100
AcDbLinetypeTableRecord
2
DIVIDEX2
70
0
3
Divide (2x) ________  .  .  ________  .  .  _
72
65
73
6
40
63.5
49
25.4
74
0
49
-12.7
74
0
49
0
74
0
49
-12.7
74
0
49
0
74
0
49
-12.7
74
0
0
LTYPE
5
3E
330
5
100
AcDbSymbolTableRecord
100
AcDbLinetypeTableRecord
2
BORDER
70
0
3
Border __ __ . __ __ . __ __ . __ __ . __ __ .
72
65
73
6
40
44.45
49
12.7
74
0
49
-6.35
74
0
49
12.7
74
0
49
-6.35
74
0
49
0
74
0
49
-6.35
74
0
0
LTYPE
5
3F
330
5
100
AcDbSymbolTableRecord
100
AcDbLinetypeTableRecord
2
BORDER2
70
0
3
Border (.5x) __.__.__.__.__.__.__.__.__.__.__.
72
65
73
6
40
22.225
49
6.35
74
0
49
-3.175
74
0
49
6.35
74
0
49
-3.175
74
0
49
0
74
0
49
-3.175
74
0
0
LTYPE
5
40
330
5
100
AcDbSymbolTableRecord
100
AcDbLinetypeTableRecord
2
BORDERX2
70
0
3
Border (2x) ____  ____  .  ____  ____  .  ___
72
65
73
6
40
88.9
49
25.4
74
0
49
-12.7
74
0
49
25.4
74
0
49
-12.7
74
0
49
0
74
0
49
-12.7
74
0
0
LTYPE
5
41
330
5
100
AcDbSymbolTableRecord
100
AcDbLinetypeTableRecord
2
CENTER
70
0
3
Center ____ _ ____ _ ____ _ ____ _ ____ _ ____
72
65
73
4
40
50.8
49
31.75
74
0
49
-6.35
74
0
49
6.35
74
0
49
-6.35
74
0
0
LTYPE
5
42
330
5
100
AcDbSymbolTableRecord
100
AcDbLinetypeTableRecord
2
CENTER2
70
0
3
Center (.5x) ___ _ ___ _ ___ _ ___ _ ___ _ ___
72
65
73
4
40
28.575
49
19.05
74
0
49
-3.175
74
0
49
3.175
74
0
49
-3.175
74
0
0
LTYPE
5
43
330
5
100
AcDbSymbolTableRecord
100
AcDbLinetypeTableRecord
2
CENTERX2
70
0
3
Center (2x) ________  __  ________  __  _____
72
65
73
4
40
101.6
49
63.5
74
0
49
-12.7
74
0
49
12.7
74
0
49
-12.7
74
0
0
ENDTAB
0
TABLE
2
LAYER
5
2
330
0
100
AcDbSymbolTable
70
1
0
LAYER
5
10
330
2
100
AcDbSymbolTableRecord
100
AcDbLayerTableRecord
2
0
70
0
62
7
6
CONTINUOUS
370
-3
390
F
0
LAYER
5
44
330
2
100
AcDbSymbolTableRecord
100
AcDbLayerTableRecord
2
Frame
70
0
62
7
6
CONTINUOUS
370
-3
390
F
0
ENDTAB
0
TABLE
2
STYLE
5
3
330
0
100
AcDbSymbolTable
70
3
0
STYLE
5
45
330
2
100
AcDbSymbolTableRecord
100
AcDbTextStyleTableRecord
2
Standard
70
0
40
0
41
1
50
0
71
0
42
1
3
txt
4

0
ENDTAB
0
TABLE
2
VIEW
5
6
330
0
100
AcDbSymbolTable
70
0
0
ENDTAB
0
TABLE
2
UCS
5
7
330
0
100
AcDbSymbolTable
70
0
0
ENDTAB
0
TABLE
2
APPID
5
9
330
0
100
AcDbSymbolTable
70
1
0
APPID
5
12
330
9
100
AcDbSymbolTableRecord
100
AcDbRegAppTableRecord
2
ACAD
70
0
0
ENDTAB
0
TABLE
2
DIMSTYLE
5
A
330
0
100
AcDbSymbolTable
70
1
100
AcDbDimStyleTable
71
1
0
DIMSTYLE
105
46
330
A
100
AcDbSymbolTableRecord
100
AcDbDimStyleTableRecord
2
Standard
70
0
40
1
41
2.5
42
0.625
43
0.38
44
1.25
45
0
46
0
47
0
48
0
140
2.5
141
0.09
142
0
143
25.4
144
1
145
0
146
1
147
0.625
148
0
71
0
72
0
73
0
74
1
75
0
76
0
77
0
78
0
79
0
170
0
171
2
172
0
173
0
174
0
175
0
176
0
177
0
178
0
179
0
271
4
272
4
273
2
274
2
275
0
276
0
277
2
278
46
279
0
280
0
281
0
282
0
283
1
284
0
285
0
286
0
288
0
289
3
340
Standard
341

371
-2
372
-2
0
ENDTAB
0
TABLE
2
BLOCK_RECORD
5
1
330
0
100
AcDbSymbolTable
70
2
0
BLOCK_RECORD
5
1F
330
1
100
AcDbSymbolTableRecord
100
AcDbBlockTableRecord
2
*Model_Space
70
0
280
1
281
0
0
BLOCK_RECORD
5
1E
330
1
100
AcDbSymbolTableRecord
100
AcDbBlockTableRecord
2
*Paper_Space
70
0
280
1
281
0
0
ENDTAB
0
ENDSEC
0
SECTION
2
BLOCKS
0
BLOCK
5
20
330
1F
100
AcDbEntity
8
0
100
AcDbBlockBegin
2
*Model_Space
70
0
10
0
20
0
30
0
3
*Model_Space
1

0
ENDBLK
5
21
330
1F
100
AcDbEntity
8
0
100
AcDbBlockEnd
0
BLOCK
5
1C
330
1B
100
AcDbEntity
8
0
100
AcDbBlockBegin
2
*Paper_Space
70
0
10
0
20
0
30
0
3
*Paper_Space
1

0
ENDBLK
5
1D
330
1F
100
AcDbEntity
8
0
100
AcDbBlockEnd
0
ENDSEC
0
SECTION
2
ENTITIES
0
LWPOLYLINE
5
47
100
AcDbEntity
8
Frame
6
ByLayer
62
7
370
-1
100
AcDbPolyline
90
2
70
0
43
0
10
215.027109
20
203.151616
10
214.956757
20
203.151616
0
LWPOLYLINE
5
48
100
AcDbEntity
8
Frame
6
ByLayer
62
7
370
-1
100
AcDbPolyline
90
2
70
0
43
0
10
255.027105
20
163.151639
10
254.956753
20
163.151639
0
LWPOLYLINE
5
49
100
AcDbEntity
8
Frame
6
ByLayer
62
7
370
-1
100
AcDbPolyline
90
2
70
0
43
0
10
159.027114
20
203.151616
10
119.027109
20
163.151639
0
LWPOLYLINE
5
4A
100
AcDbEntity
8
Frame
6
ByLayer
62
7
370
-1
100
AcDbPolyline
90
2
70
0
43
0
10
215.027109
20
203.151616
10
255.027105
20
163.151639
0
LWPOLYLINE
5
4B
100
AcDbEntity
8
Frame
6
ByLayer
62
7
370
-1
100
AcDbPolyline
90
2
70
0
43
0
10
214.956757
20
203.151616
10
254.956753
20
163.151639
0
LWPOLYLINE
5
4C
100
AcDbEntity
8
Frame
6
ByLayer
62
7
370
-1
100
AcDbPolyline
90
2
70
0
43
0
10
158.956762
20
203.151616
10
118.956751
20
163.151639
0
LWPOLYLINE
5
4D
100
AcDbEntity
8
Frame
6
ByLayer
62
7
370
-1
100
AcDbPolyline
90
2
70
0
43
0
10
119.027109
20
163.151639
10
118.956751
20
163.151639
0
LWPOLYLINE
5
4E
100
AcDbEntity
8
Frame
6
ByLayer
62
7
370
-1
100
AcDbPolyline
90
2
70
0
43
0
10
159.027114
20
203.151616
10
158.956762
20
203.151616
0
LWPOLYLINE
5
4F
100
AcDbEntity
8
Frame
6
ByLayer
62
7
370
-1
100
AcDbPolyline
90
2
70
0
43
0
10
19.02714
20
23.151637
10
14.027122
20
27.959885
0
LWPOLYLINE
5
50
100
AcDbEntity
8
Frame
6
ByLayer
62
7
370
-1
100
AcDbPolyline
90
2
70
0
43
0
10
14.027122
20
388.151641
10
19.02714
20
393.151631
0
LWPOLYLINE
5
51
100
AcDbEntity
8
Frame
6
ByLayer
62
7
370
-1
100
AcDbPolyline
90
2
70
0
43
0
10
19.029482
20
393.151631
10
385.024563
20
393.151631
0
LWPOLYLINE
5
52
100
AcDbEntity
8
Frame
6
ByLayer
62
7
370
-1
100
AcDbPolyline
90
2
70
0
43
0
10
385.027097
20
393.151631
10
390.027095
20
388.151641
0
LWPOLYLINE
5
53
100
AcDbEntity
8
Frame
6
ByLayer
62
7
370
-1
100
AcDbPolyline
90
2
70
0
43
0
10
390.027095
20
28.151655
10
385.027097
20
23.151637
0
LWPOLYLINE
5
54
100
AcDbEntity
8
Frame
6
ByLayer
62
7
370
-1
100
AcDbPolyline
90
2
70
0
43
0
10
365.027097
20
23.151637
10
363.027098
20
25.151633
0
LWPOLYLINE
5
55
100
AcDbEntity
8
Frame
6
ByLayer
62
7
370
-1
100
AcDbPolyline
90
2
70
0
43
0
10
363.02422
20
25.151633
10
41.029805
20
25.151633
0
LWPOLYLINE
5
56
100
AcDbEntity
8
Frame
6
ByLayer
62
7
370
-1
100
AcDbPolyline
90
2
70
0
43
0
10
41.027124
20
25.151633
10
39.027128
20
23.151637
0
LWPOLYLINE
5
57
100
AcDbEntity
8
Frame
6
ByLayer
62
7
370
-1
100
AcDbPolyline
90
10
70
0
43
0
10
97.027125
20
63.151642
10
77.027109
20
63.151642
10
72.027119
20
68.151632
10
72.027119
20
348.151636
10
77.027109
20
353.151654
10
327.027103
20
353.151654
10
332.027101
20
348.151636
10
332.027101
20
68.151632
10
327.027103
20
63.151642
10
307.027103
20
63.151642
0
LWPOLYLINE
5
58
100
AcDbEntity
8
Frame
6
ByLayer
62
7
370
-1
100
AcDbPolyline
90
3
70
0
43
0
10
197.027111
20
38.151635
10
207.027111
20
38.151635
10
232.027109
20
63.151642
0
LWPOLYLINE
5
59
100
AcDbEntity
8
Frame
6
ByLayer
62
7
370
-1
100
AcDbPolyline
90
2
70
0
43
0
10
197.027111
20
38.151635
10
172.027113
20
63.151642
0
LWPOLYLINE
5
5A
100
AcDbEntity
8
Frame
6
ByLayer
62
7
370
-1
100
AcDbPolyline
90
2
70
0
43
0
10
127.027122
20
63.151642
10
172.027113
20
63.151642
0
LWPOLYLINE
5
5B
100
AcDbEntity
8
Frame
6
ByLayer
62
7
370
-1
100
AcDbPolyline
90
2
70
0
43
0
10
232.027109
20
63.151642
10
277.027104
20
63.151642
0
LWPOLYLINE
5
5C
100
AcDbEntity
8
Frame
6
ByLayer
62
7
370
-1
100
AcDbPolyline
90
2
70
0
43
0
10
247.027107
20
253.151657
10
247.027107
20
253.081299
0
LWPOLYLINE
5
5D
100
AcDbEntity
8
Frame
6
ByLayer
62
7
370
-1
100
AcDbPolyline
90
2
70
0
43
0
10
370.027096
20
29.151653
10
370.306778
20
29.188455
0
LWPOLYLINE
5
5E
100
AcDbEntity
8
Frame
6
ByLayer
62
7
370
-1
100
AcDbPolyline
90
2
70
0
43
0
10
14.027122
20
27.959885
10
14.027122
20
388.151641
0
LWPOLYLINE
5
5F
100
AcDbEntity
8
Frame
6
ByLayer
62
7
370
-1
100
AcDbPolyline
90
2
70
0
43
0
10
390.027095
20
388.151641
10
390.027095
20
28.151655
0
LWPOLYLINE
5
60
100
AcDbEntity
8
Frame
6
ByLayer
62
7
370
-1
100
AcDbPolyline
90
2
70
0
43
0
10
385.027097
20
23.151637
10
365.027097
20
23.151637
0
LWPOLYLINE
5
61
100
AcDbEntity
8
Frame
6
ByLayer
62
7
370
-1
100
AcDbPolyline
90
2
70
0
43
0
10
39.027128
20
23.151637
10
19.02714
20
23.151637
0
LWPOLYLINE
5
62
100
AcDbEntity
8
Frame
6
ByLayer
62
7
370
-1
100
AcDbPolyline
90
2
70
0
43
0
10
362.126987
20
35.188471
10
361.727386
20
34.223751
0
LWPOLYLINE
5
63
100
AcDbEntity
8
Frame
6
ByLayer
62
7
370
-1
100
AcDbPolyline
90
2
70
0
43
0
10
361.591087
20
33.188475
10
361.727386
20
32.1532
0
LWPOLYLINE
5
64
100
AcDbEntity
8
Frame
6
ByLayer
62
7
370
-1
100
AcDbPolyline
90
2
70
0
43
0
10
364.555811
20
37.052154
10
363.591088
20
36.652556
0
LWPOLYLINE
5
65
100
AcDbEntity
8
Frame
6
ByLayer
62
7
370
-1
100
AcDbPolyline
90
2
70
0
43
0
10
374.622334
20
37.052154
10
373.587055
20
37.188467
0
LWPOLYLINE
5
66
100
AcDbEntity
8
Frame
6
ByLayer
62
7
370
-1
100
AcDbPolyline
90
2
70
0
43
0
10
376.415483
20
30.360044
10
377.051158
20
31.188451
0
LWPOLYLINE
5
67
100
AcDbEntity
8
Frame
6
ByLayer
62
7
370
-1
100
AcDbPolyline
90
2
70
0
43
0
10
375.587057
20
29.724367
10
376.415483
20
30.360044
0
LWPOLYLINE
5
68
100
AcDbEntity
8
Frame
6
ByLayer
62
7
370
-1
100
AcDbPolyline
90
2
70
0
43
0
10
374.622334
20
29.324768
10
375.587057
20
29.724367
0
LWPOLYLINE
5
69
100
AcDbEntity
8
Frame
6
ByLayer
62
7
370
-1
100
AcDbPolyline
90
3
70
0
43
0
10
363.591088
20
29.724367
10
364.555811
20
29.324768
10
365.591087
20
29.188455
0
LWPOLYLINE
5
6A
100
AcDbEntity
8
Frame
6
ByLayer
62
7
370
-1
100
AcDbPolyline
90
2
70
0
43
0
10
361.727386
20
32.1532
10
362.126987
20
31.188451
0
LWPOLYLINE
5
6B
100
AcDbEntity
8
Frame
6
ByLayer
62
7
370
-1
100
AcDbPolyline
90
2
70
0
43
0
10
376.415483
20
36.016878
10
375.587057
20
36.652556
0
LWPOLYLINE
5
6C
100
AcDbEntity
8
Frame
6
ByLayer
62
7
370
-1
100
AcDbPolyline
90
2
70
0
43
0
10
377.051158
20
35.188471
10
376.415483
20
36.016878
0
LWPOLYLINE
5
6D
100
AcDbEntity
8
Frame
6
ByLayer
62
7
370
-1
100
AcDbPolyline
90
2
70
0
43
0
10
365.591087
20
37.188467
10
373.587055
20
37.188467
0
LWPOLYLINE
5
6E
100
AcDbEntity
8
Frame
6
ByLayer
62
7
370
-1
100
AcDbPolyline
90
3
70
0
43
0
10
363.591088
20
36.652556
10
362.762662
20
36.016878
10
362.126987
20
35.188471
0
LWPOLYLINE
5
6F
100
AcDbEntity
8
Frame
6
ByLayer
62
7
370
-1
100
AcDbPolyline
90
2
70
0
43
0
10
362.762662
20
30.360044
10
363.591088
20
29.724367
0
LWPOLYLINE
5
70
100
AcDbEntity
8
Frame
6
ByLayer
62
7
370
-1
100
AcDbPolyline
90
2
70
0
43
0
10
377.450759
20
34.223751
10
377.051158
20
35.188471
0
LWPOLYLINE
5
71
100
AcDbEntity
8
Frame
6
ByLayer
62
7
370
-1
100
AcDbPolyline
90
2
70
0
43
0
10
361.727386
20
34.223751
10
361.591087
20
33.188475
0
LWPOLYLINE
5
72
100
AcDbEntity
8
Frame
6
ByLayer
62
7
370
-1
100
AcDbPolyline
90
2
70
0
43
0
10
362.126987
20
31.188451
10
362.762662
20
30.360044
0
LWPOLYLINE
5
73
100
AcDbEntity
8
Frame
6
ByLayer
62
7
370
-1
100
AcDbPolyline
90
2
70
0
43
0
10
377.450759
20
32.1532
10
377.587056
20
33.188475
0
LWPOLYLINE
5
74
100
AcDbEntity
8
Frame
6
ByLayer
62
7
370
-1
100
AcDbPolyline
90
2
70
0
43
0
10
377.051158
20
31.188451
10
377.450759
20
32.1532
0
LWPOLYLINE
5
75
100
AcDbEntity
8
Frame
6
ByLayer
62
7
370
-1
100
AcDbPolyline
90
2
70
0
43
0
10
365.591087
20
37.188467
10
364.555811
20
37.052154
0
LWPOLYLINE
5
76
100
AcDbEntity
8
Frame
6
ByLayer
62
7
370
-1
100
AcDbPolyline
90
2
70
0
43
0
10
373.653916
20
29.188455
10
374.622334
20
29.324768
0
LWPOLYLINE
5
77
100
AcDbEntity
8
Frame
6
ByLayer
62
7
370
-1
100
AcDbPolyline
90
2
70
0
43
0
10
365.591087
20
29.188455
10
369.747416
20
29.188455
0
LWPOLYLINE
5
78
100
AcDbEntity
8
Frame
6
ByLayer
62
7
370
-1
100
AcDbPolyline
90
2
70
0
43
0
10
377.587056
20
33.188475
10
377.450759
20
34.223751
0
LWPOLYLINE
5
79
100
AcDbEntity
8
Frame
6
ByLayer
62
7
370
-1
100
AcDbPolyline
90
2
70
0
43
0
10
375.587057
20
36.652556
10
374.622334
20
37.052154
0
LWPOLYLINE
5
7A
100
AcDbEntity
8
Frame
6
ByLayer
62
7
370
-1
100
AcDbPolyline
90
2
70
0
43
0
10
369.747416
20
29.188455
10
370.027096
20
29.151653
0
LWPOLYLINE
5
7B
100
AcDbEntity
8
Frame
6
ByLayer
62
7
370
-1
100
AcDbPolyline
90
3
70
0
43
0
10
369.747416
20
29.188455
10
370.306778
20
29.188455
10
373.653916
20
29.188455
0
LWPOLYLINE
5
7C
100
AcDbEntity
8
Frame
6
ByLayer
62
7
370
-1
100
AcDbPolyline
90
2
70
0
43
0
10
26.053598
20
33.188475
10
26.189884
20
32.1532
0
LWPOLYLINE
5
7D
100
AcDbEntity
8
Frame
6
ByLayer
62
7
370
-1
100
AcDbPolyline
90
2
70
0
43
0
10
26.58951
20
35.188471
10
26.189884
20
34.223751
0
LWPOLYLINE
5
7E
100
AcDbEntity
8
Frame
6
ByLayer
62
7
370
-1
100
AcDbPolyline
90
2
70
0
43
0
10
29.018315
20
37.052154
10
28.053594
20
36.652556
0
LWPOLYLINE
5
7F
100
AcDbEntity
8
Frame
6
ByLayer
62
7
370
-1
100
AcDbPolyline
90
2
70
0
43
0
10
39.084843
20
37.052154
10
38.049567
20
37.188467
0
LWPOLYLINE
5
80
100
AcDbEntity
8
Frame
6
ByLayer
62
7
370
-1
100
AcDbPolyline
90
2
70
0
43
0
10
40.877998
20
30.360044
10
41.513675
20
31.188451
0
LWPOLYLINE
5
81
100
AcDbEntity
8
Frame
6
ByLayer
62
7
370
-1
100
AcDbPolyline
90
2
70
0
43
0
10
40.049563
20
29.724367
10
40.877998
20
30.360044
0
LWPOLYLINE
5
82
100
AcDbEntity
8
Frame
6
ByLayer
62
7
370
-1
100
AcDbPolyline
90
2
70
0
43
0
10
39.084843
20
29.324768
10
40.049563
20
29.724367
0
LWPOLYLINE
5
83
100
AcDbEntity
8
Frame
6
ByLayer
62
7
370
-1
100
AcDbPolyline
90
3
70
0
43
0
10
28.053594
20
29.724367
10
29.018315
20
29.324768
10
30.05359
20
29.188455
0
LWPOLYLINE
5
84
100
AcDbEntity
8
Frame
6
ByLayer
62
7
370
-1
100
AcDbPolyline
90
2
70
0
43
0
10
26.189884
20
32.1532
10
26.58951
20
31.188451
0
LWPOLYLINE
5
85
100
AcDbEntity
8
Frame
6
ByLayer
62
7
370
-1
100
AcDbPolyline
90
2
70
0
43
0
10
40.877998
20
36.016878
10
40.049563
20
36.652556
0
LWPOLYLINE
5
86
100
AcDbEntity
8
Frame
6
ByLayer
62
7
370
-1
100
AcDbPolyline
90
2
70
0
43
0
10
41.513675
20
35.188471
10
40.877998
20
36.016878
0
LWPOLYLINE
5
87
100
AcDbEntity
8
Frame
6
ByLayer
62
7
370
-1
100
AcDbPolyline
90
2
70
0
43
0
10
30.05359
20
37.188467
10
38.049567
20
37.188467
0
LWPOLYLINE
5
88
100
AcDbEntity
8
Frame
6
ByLayer
62
7
370
-1
100
AcDbPolyline
90
3
70
0
43
0
10
28.053594
20
36.652556
10
27.225159
20
36.016878
10
26.58951
20
35.188471
0
LWPOLYLINE
5
89
100
AcDbEntity
8
Frame
6
ByLayer
62
7
370
-1
100
AcDbPolyline
90
2
70
0
43
0
10
27.225159
20
30.360044
10
28.053594
20
29.724367
0
LWPOLYLINE
5
8A
100
AcDbEntity
8
Frame
6
ByLayer
62
7
370
-1
100
AcDbPolyline
90
2
70
0
43
0
10
41.913274
20
34.223751
10
41.513675
20
35.188471
0
LWPOLYLINE
5
8B
100
AcDbEntity
8
Frame
6
ByLayer
62
7
370
-1
100
AcDbPolyline
90
2
70
0
43
0
10
26.189884
20
34.223751
10
26.053598
20
33.188475
0
LWPOLYLINE
5
8C
100
AcDbEntity
8
Frame
6
ByLayer
62
7
370
-1
100
AcDbPolyline
90
2
70
0
43
0
10
26.58951
20
31.188451
10
27.225159
20
30.360044
0
LWPOLYLINE
5
8D
100
AcDbEntity
8
Frame
6
ByLayer
62
7
370
-1
100
AcDbPolyline
90
2
70
0
43
0
10
41.913274
20
32.1532
10
42.049559
20
33.188475
0
LWPOLYLINE
5
8E
100
AcDbEntity
8
Frame
6
ByLayer
62
7
370
-1
100
AcDbPolyline
90
2
70
0
43
0
10
41.513675
20
31.188451
10
41.913274
20
32.1532
0
LWPOLYLINE
5
8F
100
AcDbEntity
8
Frame
6
ByLayer
62
7
370
-1
100
AcDbPolyline
90
2
70
0
43
0
10
30.05359
20
37.188467
10
29.018315
20
37.052154
0
LWPOLYLINE
5
90
100
AcDbEntity
8
Frame
6
ByLayer
62
7
370
-1
100
AcDbPolyline
90
2
70
0
43
0
10
38.116425
20
29.188455
10
39.084843
20
29.324768
0
LWPOLYLINE
5
91
100
AcDbEntity
8
Frame
6
ByLayer
62
7
370
-1
100
AcDbPolyline
90
2
70
0
43
0
10
30.05359
20
29.188455
10
38.116425
20
29.188455
0
LWPOLYLINE
5
92
100
AcDbEntity
8
Frame
6
ByLayer
62
7
370
-1
100
AcDbPolyline
90
2
70
0
43
0
10
42.049559
20
33.188475
10
41.913274
20
34.223751
0
LWPOLYLINE
5
93
100
AcDbEntity
8
Frame
6
ByLayer
62
7
370
-1
100
AcDbPolyline
90
2
70
0
43
0
10
40.049563
20
36.652556
10
39.084843
20
37.052154
0
LWPOLYLINE
5
94
100
AcDbEntity
8
Frame
6
ByLayer
62
7
370
-1
100
AcDbPolyline
90
2
70
0
43
0
10
340.777102
20
374.894421
10
340.777102
20
383.894403
0
LWPOLYLINE
5
95
100
AcDbEntity
8
Frame
6
ByLayer
62
7
370
-1
100
AcDbPolyline
90
2
70
0
43
0
10
340.806047
20
383.865476
10
350.247932
20
383.865476
0
LWPOLYLINE
5
96
100
AcDbEntity
8
Frame
6
ByLayer
62
7
370
-1
100
AcDbPolyline
90
2
70
0
43
0
10
350.2771
20
383.894403
10
350.2771
20
374.894421
0
LWPOLYLINE
5
97
100
AcDbEntity
8
Frame
6
ByLayer
62
7
370
-1
100
AcDbPolyline
90
2
70
0
43
0
10
350.247932
20
374.867074
10
340.806047
20
374.867074
0
LWPOLYLINE
5
98
100
AcDbEntity
8
Frame
6
ByLayer
62
7
370
-1
100
AcDbPolyline
90
2
70
0
43
0
10
340.777102
20
342.594427
10
340.777102
20
351.594409
0
LWPOLYLINE
5
99
100
AcDbEntity
8
Frame
6
ByLayer
62
7
370
-1
100
AcDbPolyline
90
2
70
0
43
0
10
340.806047
20
351.571238
10
350.247932
20
351.571238
0
LWPOLYLINE
5
9A
100
AcDbEntity
8
Frame
6
ByLayer
62
7
370
-1
100
AcDbPolyline
90
2
70
0
43
0
10
350.2771
20
351.594409
10
350.2771
20
342.594427
0
LWPOLYLINE
5
9B
100
AcDbEntity
8
Frame
6
ByLayer
62
7
370
-1
100
AcDbPolyline
90
2
70
0
43
0
10
350.247932
20
342.572837
10
340.806047
20
342.572837
0
LWPOLYLINE
5
9C
100
AcDbEntity
8
Frame
6
ByLayer
62
7
370
-1
100
AcDbPolyline
90
2
70
0
43
0
10
340.777102
20
219.801654
10
340.777102
20
228.801636
0
LWPOLYLINE
5
9D
100
AcDbEntity
8
Frame
6
ByLayer
62
7
370
-1
100
AcDbPolyline
90
2
70
0
43
0
10
340.806047
20
228.800395
10
350.247932
20
228.800395
0
LWPOLYLINE
5
9E
100
AcDbEntity
8
Frame
6
ByLayer
62
7
370
-1
100
AcDbPolyline
90
2
70
0
43
0
10
350.2771
20
228.801636
10
350.2771
20
219.801654
0
LWPOLYLINE
5
9F
100
AcDbEntity
8
Frame
6
ByLayer
62
7
370
-1
100
AcDbPolyline
90
2
70
0
43
0
10
350.247932
20
219.802021
10
340.806047
20
219.802021
0
LWPOLYLINE
5
A0
100
AcDbEntity
8
Frame
6
ByLayer
62
7
370
-1
100
AcDbPolyline
90
2
70
0
43
0
10
340.777102
20
187.501632
10
340.777102
20
196.501642
0
LWPOLYLINE
5
A1
100
AcDbEntity
8
Frame
6
ByLayer
62
7
370
-1
100
AcDbPolyline
90
2
70
0
43
0
10
340.806047
20
196.506157
10
350.247932
20
196.506157
0
LWPOLYLINE
5
A2
100
AcDbEntity
8
Frame
6
ByLayer
62
7
370
-1
100
AcDbPolyline
90
2
70
0
43
0
10
350.2771
20
196.501642
10
350.2771
20
187.501632
0
LWPOLYLINE
5
A3
100
AcDbEntity
8
Frame
6
ByLayer
62
7
370
-1
100
AcDbPolyline
90
2
70
0
43
0
10
350.247932
20
187.507756
10
340.806047
20
187.507756
0
LWPOLYLINE
5
A4
100
AcDbEntity
8
Frame
6
ByLayer
62
7
370
-1
100
AcDbPolyline
90
2
70
0
43
0
10
340.777102
20
59.801579
10
340.777102
20
68.80159
0
LWPOLYLINE
5
A5
100
AcDbEntity
8
Frame
6
ByLayer
62
7
370
-1
100
AcDbPolyline
90
2
70
0
43
0
10
340.806047
20
68.828937
10
350.247932
20
68.828937
0
LWPOLYLINE
5
A6
100
AcDbEntity
8
Frame
6
ByLayer
62
7
370
-1
100
AcDbPolyline
90
2
70
0
43
0
10
350.2771
20
68.80159
10
350.2771
20
59.801579
0
LWPOLYLINE
5
A7
100
AcDbEntity
8
Frame
6
ByLayer
62
7
370
-1
100
AcDbPolyline
90
2
70
0
43
0
10
350.247932
20
59.830535
10
340.806047
20
59.830535
0
LWPOLYLINE
5
A8
100
AcDbEntity
8
Frame
6
ByLayer
62
7
370
-1
100
AcDbPolyline
90
2
70
0
43
0
10
53.777134
20
374.894421
10
53.777134
20
383.894403
0
LWPOLYLINE
5
A9
100
AcDbEntity
8
Frame
6
ByLayer
62
7
370
-1
100
AcDbPolyline
90
2
70
0
43
0
10
53.806062
20
383.865476
10
63.247947
20
383.865476
0
LWPOLYLINE
5
AA
100
AcDbEntity
8
Frame
6
ByLayer
62
7
370
-1
100
AcDbPolyline
90
2
70
0
43
0
10
63.277129
20
383.894403
10
63.277129
20
374.894421
0
LWPOLYLINE
5
AB
100
AcDbEntity
8
Frame
6
ByLayer
62
7
370
-1
100
AcDbPolyline
90
2
70
0
43
0
10
63.247947
20
374.867074
10
53.806062
20
374.867074
0
LWPOLYLINE
5
AC
100
AcDbEntity
8
Frame
6
ByLayer
62
7
370
-1
100
AcDbPolyline
90
2
70
0
43
0
10
53.777134
20
342.594427
10
53.777134
20
351.594409
0
LWPOLYLINE
5
AD
100
AcDbEntity
8
Frame
6
ByLayer
62
7
370
-1
100
AcDbPolyline
90
2
70
0
43
0
10
53.806062
20
351.571238
10
63.247947
20
351.571238
0
LWPOLYLINE
5
AE
100
AcDbEntity
8
Frame
6
ByLayer
62
7
370
-1
100
AcDbPolyline
90
2
70
0
43
0
10
63.277129
20
351.594409
10
63.277129
20
342.594427
0
LWPOLYLINE
5
AF
100
AcDbEntity
8
Frame
6
ByLayer
62
7
370
-1
100
AcDbPolyline
90
2
70
0
43
0
10
63.247947
20
342.572837
10
53.806062
20
342.572837
0
LWPOLYLINE
5
B0
100
AcDbEntity
8
Frame
6
ByLayer
62
7
370
-1
100
AcDbPolyline
90
2
70
0
43
0
10
53.777134
20
219.801654
10
53.777134
20
228.801636
0
LWPOLYLINE
5
B1
100
AcDbEntity
8
Frame
6
ByLayer
62
7
370
-1
100
AcDbPolyline
90
2
70
0
43
0
10
53.806062
20
228.800395
10
63.247947
20
228.800395
0
LWPOLYLINE
5
B2
100
AcDbEntity
8
Frame
6
ByLayer
62
7
370
-1
100
AcDbPolyline
90
2
70
0
43
0
10
63.277129
20
228.801636
10
63.277129
20
219.801654
0
LWPOLYLINE
5
B3
100
AcDbEntity
8
Frame
6
ByLayer
62
7
370
-1
100
AcDbPolyline
90
2
70
0
43
0
10
63.247947
20
219.802021
10
53.806062
20
219.802021
0
LWPOLYLINE
5
B4
100
AcDbEntity
8
Frame
6
ByLayer
62
7
370
-1
100
AcDbPolyline
90
2
70
0
43
0
10
53.777134
20
187.501632
10
53.777134
20
196.501642
0
LWPOLYLINE
5
B5
100
AcDbEntity
8
Frame
6
ByLayer
62
7
370
-1
100
AcDbPolyline
90
2
70
0
43
0
10
53.806062
20
196.506157
10
63.247947
20
196.506157
0
LWPOLYLINE
5
B6
100
AcDbEntity
8
Frame
6
ByLayer
62
7
370
-1
100
AcDbPolyline
90
2
70
0
43
0
10
63.277129
20
196.501642
10
63.277129
20
187.501632
0
LWPOLYLINE
5
B7
100
AcDbEntity
8
Frame
6
ByLayer
62
7
370
-1
100
AcDbPolyline
90
2
70
0
43
0
10
63.247947
20
187.507756
10
53.806062
20
187.507756
0
LWPOLYLINE
5
B8
100
AcDbEntity
8
Frame
6
ByLayer
62
7
370
-1
100
AcDbPolyline
90
2
70
0
43
0
10
53.777134
20
59.801579
10
53.777134
20
68.80159
0
LWPOLYLINE
5
B9
100
AcDbEntity
8
Frame
6
ByLayer
62
7
370
-1
100
AcDbPolyline
90
2
70
0
43
0
10
53.806062
20
68.828937
10
63.247947
20
68.828937
0
LWPOLYLINE
5
BA
100
AcDbEntity
8
Frame
6
ByLayer
62
7
370
-1
100
AcDbPolyline
90
2
70
0
43
0
10
63.277129
20
68.80159
10
63.277129
20
59.801579
0
LWPOLYLINE
5
BB
100
AcDbEntity
8
Frame
6
ByLayer
62
7
370
-1
100
AcDbPolyline
90
2
70
0
43
0
10
63.247947
20
59.830535
10
53.806062
20
59.830535
0
LWPOLYLINE
5
BC
100
AcDbEntity
8
Frame
6
ByLayer
62
7
370
-1
100
AcDbPolyline
90
25
70
0
43
0
10
347.326379
20
208.151606
10
347.264979
20
208.617498
10
347.085096
20
209.051584
10
346.798987
20
209.424343
10
346.426155
20
209.710347
10
345.992004
20
209.890095
10
345.52612
20
209.951365
10
345.060256
20
209.889954
10
344.626156
20
209.710065
10
344.253405
20
209.423976
10
343.967404
20
209.051133
10
343.787645
20
208.61699
10
343.726378
20
208.151098
10
343.787778
20
207.685234
10
343.967661
20
207.251148
10
344.253769
20
206.878388
10
344.626602
20
206.592384
10
345.060753
20
206.412637
10
345.526637
20
206.351367
10
345.992501
20
206.41275
10
346.426601
20
206.592638
10
346.799352
20
206.878755
10
347.085353
20
207.251571
10
347.265111
20
207.685742
10
347.326379
20
208.151606
0
LWPOLYLINE
5
BD
100
AcDbEntity
8
Frame
6
ByLayer
62
7
370
-1
100
AcDbPolyline
90
25
70
0
43
0
10
347.339107
20
363.151719
10
347.274755
20
363.617188
10
347.092126
20
364.050145
10
346.803661
20
364.42107
10
346.429022
20
364.704703
10
345.99374
20
364.881713
10
345.52748
20
364.94002
10
345.062011
20
364.875674
10
344.62906
20
364.693048
10
344.25813
20
364.40456
10
343.974499
20
364.029938
10
343.797495
20
363.594639
10
343.739182
20
363.128379
10
343.803534
20
362.66291
10
343.986166
20
362.229981
10
344.274628
20
361.859028
10
344.649267
20
361.575423
10
345.08455
20
361.398414
10
345.550812
20
361.340106
10
346.016278
20
361.404453
10
346.449229
20
361.587079
10
346.82016
20
361.875538
10
347.10379
20
362.250188
10
347.280794
20
362.68546
10
347.339107
20
363.151719
0
LWPOLYLINE
5
BE
100
AcDbEntity
8
Frame
6
ByLayer
62
7
370
-1
100
AcDbPolyline
90
2
70
0
43
0
10
360.03011
20
384.941984
10
359.564243
20
384.880601
0
LWPOLYLINE
5
BF
100
AcDbEntity
8
Frame
6
ByLayer
62
7
370
-1
100
AcDbPolyline
90
5
70
0
43
0
10
361.830366
20
383.142253
10
361.768966
20
383.608117
10
361.589083
20
384.042231
10
361.302977
20
384.414962
10
360.930145
20
384.700966
0
LWPOLYLINE
5
C0
100
AcDbEntity
8
Frame
6
ByLayer
62
7
370
-1
100
AcDbPolyline
90
4
70
0
43
0
10
359.564243
20
384.880601
10
359.130143
20
384.700712
10
358.757392
20
384.414595
10
358.471394
20
384.04178
0
LWPOLYLINE
5
C1
100
AcDbEntity
8
Frame
6
ByLayer
62
7
370
-1
100
AcDbPolyline
90
3
70
0
43
0
10
360.030624
20
381.341986
10
360.496491
20
381.403397
10
360.930591
20
381.583286
0
LWPOLYLINE
5
C2
100
AcDbEntity
8
Frame
6
ByLayer
62
7
370
-1
100
AcDbPolyline
90
3
70
0
43
0
10
360.930145
20
384.700966
10
360.495991
20
384.880742
10
360.03011
20
384.941984
0
LWPOLYLINE
5
C3
100
AcDbEntity
8
Frame
6
ByLayer
62
7
370
-1
100
AcDbPolyline
90
5
70
0
43
0
10
358.471394
20
384.04178
10
358.291635
20
383.607609
10
358.230368
20
383.141745
10
358.291768
20
382.675881
10
358.471651
20
382.241766
0
LWPOLYLINE
5
C4
100
AcDbEntity
8
Frame
6
ByLayer
62
7
370
-1
100
AcDbPolyline
90
5
70
0
43
0
10
360.930591
20
381.583286
10
361.303341
20
381.869374
10
361.589343
20
382.242218
10
361.769101
20
382.67636
10
361.830366
20
383.142253
0
LWPOLYLINE
5
C5
100
AcDbEntity
8
Frame
6
ByLayer
62
7
370
-1
100
AcDbPolyline
90
5
70
0
43
0
10
358.471651
20
382.241766
10
358.757756
20
381.869036
10
359.130589
20
381.583032
10
359.564742
20
381.403256
10
360.030624
20
381.341986
0
LWPOLYLINE
5
C6
100
AcDbEntity
8
Frame
6
ByLayer
62
7
370
-1
100
AcDbPolyline
90
2
70
0
43
0
10
381.743294
20
383.641137
10
381.563412
20
384.075223
0
LWPOLYLINE
5
C7
100
AcDbEntity
8
Frame
6
ByLayer
62
7
370
-1
100
AcDbPolyline
90
3
70
0
43
0
10
379.104471
20
384.733732
10
378.731721
20
384.447615
10
378.44572
20
384.0748
0
LWPOLYLINE
5
C8
100
AcDbEntity
8
Frame
6
ByLayer
62
7
370
-1
100
AcDbPolyline
90
4
70
0
43
0
10
378.732085
20
381.902027
10
379.104917
20
381.616052
10
379.539068
20
381.436276
10
380.004952
20
381.375006
0
LWPOLYLINE
5
C9
100
AcDbEntity
8
Frame
6
ByLayer
62
7
370
-1
100
AcDbPolyline
90
3
70
0
43
0
10
378.266094
20
382.708901
10
378.445976
20
382.274786
10
378.732085
20
381.902027
0
LWPOLYLINE
5
CA
100
AcDbEntity
8
Frame
6
ByLayer
62
7
370
-1
100
AcDbPolyline
90
4
70
0
43
0
10
378.44572
20
384.0748
10
378.265961
20
383.640629
10
378.204693
20
383.174765
10
378.266094
20
382.708901
0
LWPOLYLINE
5
CB
100
AcDbEntity
8
Frame
6
ByLayer
62
7
370
-1
100
AcDbPolyline
90
2
70
0
43
0
10
380.904471
20
384.733986
10
380.47032
20
384.913734
0
LWPOLYLINE
5
CC
100
AcDbEntity
8
Frame
6
ByLayer
62
7
370
-1
100
AcDbPolyline
90
2
70
0
43
0
10
381.277303
20
384.447982
10
380.904471
20
384.733986
0
LWPOLYLINE
5
CD
100
AcDbEntity
8
Frame
6
ByLayer
62
7
370
-1
100
AcDbPolyline
90
2
70
0
43
0
10
381.563412
20
384.075223
10
381.277303
20
384.447982
0
LWPOLYLINE
5
CE
100
AcDbEntity
8
Frame
6
ByLayer
62
7
370
-1
100
AcDbPolyline
90
4
70
0
43
0
10
380.47032
20
384.913734
10
380.004436
20
384.975004
10
379.538571
20
384.913621
10
379.104471
20
384.733732
0
LWPOLYLINE
5
CF
100
AcDbEntity
8
Frame
6
ByLayer
62
7
370
-1
100
AcDbPolyline
90
2
70
0
43
0
10
381.804695
20
383.175273
10
381.743294
20
383.641137
0
LWPOLYLINE
5
D0
100
AcDbEntity
8
Frame
6
ByLayer
62
7
370
-1
100
AcDbPolyline
90
2
70
0
43
0
10
381.743427
20
382.70938
10
381.804695
20
383.175273
0
LWPOLYLINE
5
D1
100
AcDbEntity
8
Frame
6
ByLayer
62
7
370
-1
100
AcDbPolyline
90
6
70
0
43
0
10
380.004952
20
381.375006
10
380.470816
20
381.436417
10
380.904917
20
381.616306
10
381.27767
20
381.902394
10
381.563668
20
382.275238
10
381.743427
20
382.70938
0
LWPOLYLINE
5
D2
100
AcDbEntity
8
Frame
6
ByLayer
62
7
370
-1
100
AcDbPolyline
90
2
70
0
43
0
10
359.575176
20
64.881269
10
359.141076
20
64.70138
0
LWPOLYLINE
5
D3
100
AcDbEntity
8
Frame
6
ByLayer
62
7
370
-1
100
AcDbPolyline
90
2
70
0
43
0
10
361.600016
20
64.0429
10
361.313911
20
64.415659
0
LWPOLYLINE
5
D4
100
AcDbEntity
8
Frame
6
ByLayer
62
7
370
-1
100
AcDbPolyline
90
2
70
0
43
0
10
358.302566
20
63.608306
10
358.241301
20
63.142413
0
LWPOLYLINE
5
D5
100
AcDbEntity
8
Frame
6
ByLayer
62
7
370
-1
100
AcDbPolyline
90
2
70
0
43
0
10
361.779899
20
63.608785
10
361.600016
20
64.0429
0
LWPOLYLINE
5
D6
100
AcDbEntity
8
Frame
6
ByLayer
62
7
370
-1
100
AcDbPolyline
90
2
70
0
43
0
10
358.768325
20
64.415292
10
358.482324
20
64.042448
0
LWPOLYLINE
5
D7
100
AcDbEntity
8
Frame
6
ByLayer
62
7
370
-1
100
AcDbPolyline
90
2
70
0
43
0
10
361.841299
20
63.142921
10
361.779899
20
63.608785
0
LWPOLYLINE
5
D8
100
AcDbEntity
8
Frame
6
ByLayer
62
7
370
-1
100
AcDbPolyline
90
2
70
0
43
0
10
359.141076
20
64.70138
10
358.768325
20
64.415292
0
LWPOLYLINE
5
D9
100
AcDbEntity
8
Frame
6
ByLayer
62
7
370
-1
100
AcDbPolyline
90
2
70
0
43
0
10
360.506924
20
64.88141
10
360.041043
20
64.94268
0
LWPOLYLINE
5
DA
100
AcDbEntity
8
Frame
6
ByLayer
62
7
370
-1
100
AcDbPolyline
90
2
70
0
43
0
10
359.141522
20
61.5837
10
359.575676
20
61.403952
0
LWPOLYLINE
5
DB
100
AcDbEntity
8
Frame
6
ByLayer
62
7
370
-1
100
AcDbPolyline
90
3
70
0
43
0
10
360.507424
20
61.404065
10
360.941524
20
61.583954
10
361.314275
20
61.870071
0
LWPOLYLINE
5
DC
100
AcDbEntity
8
Frame
6
ByLayer
62
7
370
-1
100
AcDbPolyline
90
3
70
0
43
0
10
358.482584
20
62.242463
10
358.76869
20
61.869704
10
359.141522
20
61.5837
0
LWPOLYLINE
5
DD
100
AcDbEntity
8
Frame
6
ByLayer
62
7
370
-1
100
AcDbPolyline
90
2
70
0
43
0
10
360.041043
20
64.94268
10
359.575176
20
64.881269
0
LWPOLYLINE
5
DE
100
AcDbEntity
8
Frame
6
ByLayer
62
7
370
-1
100
AcDbPolyline
90
3
70
0
43
0
10
359.575676
20
61.403952
10
360.041557
20
61.342682
10
360.507424
20
61.404065
0
LWPOLYLINE
5
DF
100
AcDbEntity
8
Frame
6
ByLayer
62
7
370
-1
100
AcDbPolyline
90
3
70
0
43
0
10
361.313911
20
64.415659
10
360.941078
20
64.701634
10
360.506924
20
64.88141
0
LWPOLYLINE
5
E0
100
AcDbEntity
8
Frame
6
ByLayer
62
7
370
-1
100
AcDbPolyline
90
3
70
0
43
0
10
361.600273
20
62.242886
10
361.780032
20
62.677057
10
361.841299
20
63.142921
0
LWPOLYLINE
5
E1
100
AcDbEntity
8
Frame
6
ByLayer
62
7
370
-1
100
AcDbPolyline
90
3
70
0
43
0
10
358.241301
20
63.142413
10
358.302701
20
62.676549
10
358.482584
20
62.242463
0
LWPOLYLINE
5
E2
100
AcDbEntity
8
Frame
6
ByLayer
62
7
370
-1
100
AcDbPolyline
90
2
70
0
43
0
10
361.314275
20
61.870071
10
361.600273
20
62.242886
0
LWPOLYLINE
5
E3
100
AcDbEntity
8
Frame
6
ByLayer
62
7
370
-1
100
AcDbPolyline
90
2
70
0
43
0
10
358.482324
20
64.042448
10
358.302566
20
63.608306
0
LWPOLYLINE
5
E4
100
AcDbEntity
8
Frame
6
ByLayer
62
7
370
-1
100
AcDbPolyline
90
4
70
0
43
0
10
380.486268
20
61.359277
10
380.920365
20
61.539165
10
381.293119
20
61.825282
10
381.579117
20
62.198098
0
LWPOLYLINE
5
E5
100
AcDbEntity
8
Frame
6
ByLayer
62
7
370
-1
100
AcDbPolyline
90
3
70
0
43
0
10
379.55402
20
64.83648
10
379.11992
20
64.656592
10
378.74717
20
64.370475
0
LWPOLYLINE
5
E6
100
AcDbEntity
8
Frame
6
ByLayer
62
7
370
-1
100
AcDbPolyline
90
3
70
0
43
0
10
378.461428
20
62.197646
10
378.747534
20
61.824915
10
379.120366
20
61.538911
0
LWPOLYLINE
5
E7
100
AcDbEntity
8
Frame
6
ByLayer
62
7
370
-1
100
AcDbPolyline
90
3
70
0
43
0
10
378.220145
20
63.097624
10
378.281545
20
62.63176
10
378.461428
20
62.197646
0
LWPOLYLINE
5
E8
100
AcDbEntity
8
Frame
6
ByLayer
62
7
370
-1
100
AcDbPolyline
90
4
70
0
43
0
10
378.74717
20
64.370475
10
378.461168
20
63.997659
10
378.28141
20
63.563517
10
378.220145
20
63.097624
0
LWPOLYLINE
5
E9
100
AcDbEntity
8
Frame
6
ByLayer
62
7
370
-1
100
AcDbPolyline
90
4
70
0
43
0
10
379.120366
20
61.538911
10
379.554517
20
61.359136
10
380.020401
20
61.297865
10
380.486268
20
61.359277
0
LWPOLYLINE
5
EA
100
AcDbEntity
8
Frame
6
ByLayer
62
7
370
-1
100
AcDbPolyline
90
2
70
0
43
0
10
380.485769
20
64.836621
10
380.019887
20
64.897892
0
LWPOLYLINE
5
EB
100
AcDbEntity
8
Frame
6
ByLayer
62
7
370
-1
100
AcDbPolyline
90
2
70
0
43
0
10
381.57886
20
63.998111
10
381.292755
20
64.370842
0
LWPOLYLINE
5
EC
100
AcDbEntity
8
Frame
6
ByLayer
62
7
370
-1
100
AcDbPolyline
90
2
70
0
43
0
10
381.758743
20
63.563997
10
381.57886
20
63.998111
0
LWPOLYLINE
5
ED
100
AcDbEntity
8
Frame
6
ByLayer
62
7
370
-1
100
AcDbPolyline
90
3
70
0
43
0
10
381.292755
20
64.370842
10
380.919919
20
64.656846
10
380.485769
20
64.836621
0
LWPOLYLINE
5
EE
100
AcDbEntity
8
Frame
6
ByLayer
62
7
370
-1
100
AcDbPolyline
90
2
70
0
43
0
10
381.820143
20
63.098132
10
381.758743
20
63.563997
0
LWPOLYLINE
5
EF
100
AcDbEntity
8
Frame
6
ByLayer
62
7
370
-1
100
AcDbPolyline
90
2
70
0
43
0
10
380.019887
20
64.897892
10
379.55402
20
64.83648
0
LWPOLYLINE
5
F0
100
AcDbEntity
8
Frame
6
ByLayer
62
7
370
-1
100
AcDbPolyline
90
3
70
0
43
0
10
381.579117
20
62.198098
10
381.758876
20
62.63224
10
381.820143
20
63.098132
0
LWPOLYLINE
5
F1
100
AcDbEntity
8
Frame
6
ByLayer
62
7
370
-1
100
AcDbPolyline
90
2
70
0
43
0
10
371.589438
20
44.019261
10
371.303333
20
44.39202
0
LWPOLYLINE
5
F2
100
AcDbEntity
8
Frame
6
ByLayer
62
7
370
-1
100
AcDbPolyline
90
2
70
0
43
0
10
371.769454
20
42.653418
10
371.830721
20
43.119283
0
LWPOLYLINE
5
F3
100
AcDbEntity
8
Frame
6
ByLayer
62
7
370
-1
100
AcDbPolyline
90
4
70
0
43
0
10
368.757748
20
44.391653
10
368.471746
20
44.01881
10
368.291988
20
43.584667
10
368.230723
20
43.118775
0
LWPOLYLINE
5
F4
100
AcDbEntity
8
Frame
6
ByLayer
62
7
370
-1
100
AcDbPolyline
90
9
70
0
43
0
10
368.758112
20
41.846065
10
369.130944
20
41.560061
10
369.565095
20
41.380314
10
370.030979
20
41.319044
10
370.496846
20
41.380427
10
370.930946
20
41.560315
10
371.303697
20
41.846432
10
371.589695
20
42.219248
10
371.769454
20
42.653418
0
LWPOLYLINE
5
F5
100
AcDbEntity
8
Frame
6
ByLayer
62
7
370
-1
100
AcDbPolyline
90
4
70
0
43
0
10
370.030465
20
44.919042
10
369.564598
20
44.85763
10
369.130498
20
44.677742
10
368.757748
20
44.391653
0
LWPOLYLINE
5
F6
100
AcDbEntity
8
Frame
6
ByLayer
62
7
370
-1
100
AcDbPolyline
90
4
70
0
43
0
10
368.230723
20
43.118775
10
368.292123
20
42.65291
10
368.472006
20
42.218824
10
368.758112
20
41.846065
0
LWPOLYLINE
5
F7
100
AcDbEntity
8
Frame
6
ByLayer
62
7
370
-1
100
AcDbPolyline
90
3
70
0
43
0
10
371.830721
20
43.119283
10
371.769321
20
43.585147
10
371.589438
20
44.019261
0
LWPOLYLINE
5
F8
100
AcDbEntity
8
Frame
6
ByLayer
62
7
370
-1
100
AcDbPolyline
90
4
70
0
43
0
10
371.303333
20
44.39202
10
370.930497
20
44.677996
10
370.496346
20
44.857772
10
370.030465
20
44.919042
0
LWPOLYLINE
5
F9
100
AcDbEntity
8
Frame
6
ByLayer
62
7
370
-1
100
AcDbPolyline
90
25
70
0
43
0
10
347.326379
20
48.151644
10
347.265069
20
48.617338
10
347.085322
20
49.051283
10
346.799383
20
49.42393
10
346.426739
20
49.709849
10
345.992789
20
49.889596
10
345.527102
20
49.950923
10
345.061413
20
49.889596
10
344.627462
20
49.709849
10
344.254819
20
49.42393
10
343.96888
20
49.051283
10
343.789133
20
48.617338
10
343.727823
20
48.151644
10
343.789133
20
47.685949
10
343.96888
20
47.252004
10
344.254819
20
46.879358
10
344.627462
20
46.59341
10
345.061413
20
46.413663
10
345.527102
20
46.352364
10
345.992789
20
46.413663
10
346.426739
20
46.59341
10
346.799383
20
46.879358
10
347.085322
20
47.252004
10
347.265069
20
47.685949
10
347.326379
20
48.151644
0
LWPOLYLINE
5
FA
100
AcDbEntity
8
Frame
6
ByLayer
62
7
370
-1
100
AcDbPolyline
90
7
70
0
43
0
10
24.461639
20
64.911072
10
23.995775
20
64.972314
10
23.529911
20
64.91093
10
23.095797
20
64.731042
10
22.723038
20
64.444925
10
22.437062
20
64.07211
10
22.257286
20
63.637939
0
LWPOLYLINE
5
FB
100
AcDbEntity
8
Frame
6
ByLayer
62
7
370
-1
100
AcDbPolyline
90
4
70
0
43
0
10
25.268992
20
61.899704
10
25.554996
20
62.272548
10
25.734744
20
62.70669
10
25.796014
20
63.172583
0
LWPOLYLINE
5
FC
100
AcDbEntity
8
Frame
6
ByLayer
62
7
370
-1
100
AcDbPolyline
90
4
70
0
43
0
10
22.257286
20
63.637939
10
22.196016
20
63.172075
10
22.257427
20
62.70621
10
22.437316
20
62.272096
0
LWPOLYLINE
5
FD
100
AcDbEntity
8
Frame
6
ByLayer
62
7
370
-1
100
AcDbPolyline
90
2
70
0
43
0
10
25.734631
20
63.638447
10
25.554742
20
64.072561
0
LWPOLYLINE
5
FE
100
AcDbEntity
8
Frame
6
ByLayer
62
7
370
-1
100
AcDbPolyline
90
2
70
0
43
0
10
25.796014
20
63.172583
10
25.734631
20
63.638447
0
LWPOLYLINE
5
FF
100
AcDbEntity
8
Frame
6
ByLayer
62
7
370
-1
100
AcDbPolyline
90
8
70
0
43
0
10
22.437316
20
62.272096
10
22.723404
20
61.899365
10
23.096248
20
61.613361
10
23.530391
20
61.433586
10
23.996283
20
61.372315
10
24.462147
20
61.433727
10
24.896233
20
61.613615
10
25.268992
20
61.899704
0
LWPOLYLINE
5
100
100
AcDbEntity
8
Frame
6
ByLayer
62
7
370
-1
100
AcDbPolyline
90
2
70
0
43
0
10
24.89581
20
64.731296
10
24.461639
20
64.911072
0
LWPOLYLINE
5
101
100
AcDbEntity
8
Frame
6
ByLayer
62
7
370
-1
100
AcDbPolyline
90
2
70
0
43
0
10
25.268626
20
64.445292
10
24.89581
20
64.731296
0
LWPOLYLINE
5
102
100
AcDbEntity
8
Frame
6
ByLayer
62
7
370
-1
100
AcDbPolyline
90
2
70
0
43
0
10
25.554742
20
64.072561
10
25.268626
20
64.445292
0
LWPOLYLINE
5
103
100
AcDbEntity
8
Frame
6
ByLayer
62
7
370
-1
100
AcDbPolyline
90
4
70
0
43
0
10
43.543728
20
64.91093
10
43.109642
20
64.731042
10
42.736883
20
64.444925
10
42.450879
20
64.07211
0
LWPOLYLINE
5
104
100
AcDbEntity
8
Frame
6
ByLayer
62
7
370
-1
100
AcDbPolyline
90
4
70
0
43
0
10
45.80986
20
63.172583
10
45.748448
20
63.638447
10
45.568588
20
64.072561
10
45.282471
20
64.445292
0
LWPOLYLINE
5
105
100
AcDbEntity
8
Frame
6
ByLayer
62
7
370
-1
100
AcDbPolyline
90
3
70
0
43
0
10
44.475485
20
64.911072
10
44.009592
20
64.972314
10
43.543728
20
64.91093
0
LWPOLYLINE
5
106
100
AcDbEntity
8
Frame
6
ByLayer
62
7
370
-1
100
AcDbPolyline
90
7
70
0
43
0
10
42.73725
20
61.899365
10
43.110094
20
61.613361
10
43.544236
20
61.433586
10
44.010128
20
61.372315
10
44.475993
20
61.433727
10
44.910079
20
61.613615
10
45.282838
20
61.899704
0
LWPOLYLINE
5
107
100
AcDbEntity
8
Frame
6
ByLayer
62
7
370
-1
100
AcDbPolyline
90
3
70
0
43
0
10
45.282471
20
64.445292
10
44.909627
20
64.731296
10
44.475485
20
64.911072
0
LWPOLYLINE
5
108
100
AcDbEntity
8
Frame
6
ByLayer
62
7
370
-1
100
AcDbPolyline
90
6
70
0
43
0
10
42.450879
20
64.07211
10
42.271132
20
63.637939
10
42.209861
20
63.172075
10
42.271273
20
62.70621
10
42.451133
20
62.272096
10
42.73725
20
61.899365
0
LWPOLYLINE
5
109
100
AcDbEntity
8
Frame
6
ByLayer
62
7
370
-1
100
AcDbPolyline
90
4
70
0
43
0
10
45.282838
20
61.899704
10
45.568842
20
62.272548
10
45.748589
20
62.70669
10
45.80986
20
63.172583
0
LWPOLYLINE
5
10A
100
AcDbEntity
8
Frame
6
ByLayer
62
7
370
-1
100
AcDbPolyline
90
2
70
0
43
0
10
35.561665
20
44.058716
10
35.275548
20
44.431447
0
LWPOLYLINE
5
10B
100
AcDbEntity
8
Frame
6
ByLayer
62
7
370
-1
100
AcDbPolyline
90
2
70
0
43
0
10
35.741554
20
43.624602
10
35.561665
20
44.058716
0
LWPOLYLINE
5
10C
100
AcDbEntity
8
Frame
6
ByLayer
62
7
370
-1
100
AcDbPolyline
90
2
70
0
43
0
10
35.802937
20
43.158737
10
35.741554
20
43.624602
0
LWPOLYLINE
5
10D
100
AcDbEntity
8
Frame
6
ByLayer
62
7
370
-1
100
AcDbPolyline
90
2
70
0
43
0
10
35.275548
20
44.431447
10
34.902733
20
44.717451
0
LWPOLYLINE
5
10E
100
AcDbEntity
8
Frame
6
ByLayer
62
7
370
-1
100
AcDbPolyline
90
15
70
0
43
0
10
32.443984
20
44.058264
10
32.264209
20
43.624122
10
32.202938
20
43.158229
10
32.26435
20
42.692365
10
32.444238
20
42.258251
10
32.730327
20
41.88552
10
33.103171
20
41.599516
10
33.537313
20
41.41974
10
34.003206
20
41.35847
10
34.46907
20
41.419882
10
34.903156
20
41.59977
10
35.275915
20
41.885859
10
35.561919
20
42.258702
10
35.741666
20
42.692845
10
35.802937
20
43.158737
0
LWPOLYLINE
5
10F
100
AcDbEntity
8
Frame
6
ByLayer
62
7
370
-1
100
AcDbPolyline
90
7
70
0
43
0
10
34.902733
20
44.717451
10
34.468562
20
44.897226
10
34.002698
20
44.958468
10
33.536834
20
44.897085
10
33.102719
20
44.717197
10
32.72996
20
44.43108
10
32.443984
20
44.058264
0
LWPOLYLINE
5
110
100
AcDbEntity
8
Frame
6
ByLayer
62
7
370
-1
100
AcDbPolyline
90
6
70
0
43
0
10
57.237686
20
46.888981
10
57.61053
20
46.602977
10
58.044673
20
46.423202
10
58.510565
20
46.361931
10
58.976429
20
46.423343
10
59.410544
20
46.603231
0
LWPOLYLINE
5
111
100
AcDbEntity
8
Frame
6
ByLayer
62
7
370
-1
100
AcDbPolyline
90
2
70
0
43
0
10
60.248913
20
48.628063
10
60.069024
20
49.062177
0
LWPOLYLINE
5
112
100
AcDbEntity
8
Frame
6
ByLayer
62
7
370
-1
100
AcDbPolyline
90
6
70
0
43
0
10
59.410092
20
49.720912
10
58.975921
20
49.900688
10
58.510057
20
49.96193
10
58.044193
20
49.900546
10
57.610079
20
49.720658
10
57.23732
20
49.434541
0
LWPOLYLINE
5
113
100
AcDbEntity
8
Frame
6
ByLayer
62
7
370
-1
100
AcDbPolyline
90
2
70
0
43
0
10
60.310296
20
48.162199
10
60.248913
20
48.628063
0
LWPOLYLINE
5
114
100
AcDbEntity
8
Frame
6
ByLayer
62
7
370
-1
100
AcDbPolyline
90
5
70
0
43
0
10
59.410544
20
46.603231
10
59.783274
20
46.88932
10
60.069278
20
47.262164
10
60.249054
20
47.696306
10
60.310296
20
48.162199
0
LWPOLYLINE
5
115
100
AcDbEntity
8
Frame
6
ByLayer
62
7
370
-1
100
AcDbPolyline
90
7
70
0
43
0
10
57.23732
20
49.434541
10
56.951344
20
49.061726
10
56.771568
20
48.627555
10
56.710298
20
48.161691
10
56.771709
20
47.695826
10
56.951598
20
47.261712
10
57.237686
20
46.888981
0
LWPOLYLINE
5
116
100
AcDbEntity
8
Frame
6
ByLayer
62
7
370
-1
100
AcDbPolyline
90
3
70
0
43
0
10
60.069024
20
49.062177
10
59.782908
20
49.434908
10
59.410092
20
49.720912
0
LWPOLYLINE
5
117
100
AcDbEntity
8
Frame
6
ByLayer
62
7
370
-1
100
AcDbPolyline
90
4
70
0
43
0
10
58.086724
20
206.409758
10
58.552616
20
206.348488
10
59.01848
20
206.4099
10
59.452566
20
206.589788
0
LWPOLYLINE
5
118
100
AcDbEntity
8
Frame
6
ByLayer
62
7
370
-1
100
AcDbPolyline
90
4
70
0
43
0
10
58.552108
20
209.948486
10
58.086244
20
209.887103
10
57.65213
20
209.707215
10
57.279371
20
209.421098
0
LWPOLYLINE
5
119
100
AcDbEntity
8
Frame
6
ByLayer
62
7
370
-1
100
AcDbPolyline
90
2
70
0
43
0
10
60.290964
20
208.61462
10
60.111076
20
209.048734
0
LWPOLYLINE
5
11A
100
AcDbEntity
8
Frame
6
ByLayer
62
7
370
-1
100
AcDbPolyline
90
3
70
0
43
0
10
56.993395
20
209.048282
10
56.813619
20
208.614112
10
56.752349
20
208.148247
0
LWPOLYLINE
5
11B
100
AcDbEntity
8
Frame
6
ByLayer
62
7
370
-1
100
AcDbPolyline
90
3
70
0
43
0
10
59.452566
20
206.589788
10
59.825326
20
206.875877
10
60.11133
20
207.24872
0
LWPOLYLINE
5
11C
100
AcDbEntity
8
Frame
6
ByLayer
62
7
370
-1
100
AcDbPolyline
90
3
70
0
43
0
10
56.81376
20
207.682383
10
56.993649
20
207.248269
10
57.279738
20
206.875538
0
LWPOLYLINE
5
11D
100
AcDbEntity
8
Frame
6
ByLayer
62
7
370
-1
100
AcDbPolyline
90
2
70
0
43
0
10
56.752349
20
208.148247
10
56.81376
20
207.682383
0
LWPOLYLINE
5
11E
100
AcDbEntity
8
Frame
6
ByLayer
62
7
370
-1
100
AcDbPolyline
90
2
70
0
43
0
10
59.452143
20
209.707469
10
59.017972
20
209.887244
0
LWPOLYLINE
5
11F
100
AcDbEntity
8
Frame
6
ByLayer
62
7
370
-1
100
AcDbPolyline
90
2
70
0
43
0
10
57.279371
20
209.421098
10
56.993395
20
209.048282
0
LWPOLYLINE
5
120
100
AcDbEntity
8
Frame
6
ByLayer
62
7
370
-1
100
AcDbPolyline
90
2
70
0
43
0
10
59.824959
20
209.421465
10
59.452143
20
209.707469
0
LWPOLYLINE
5
121
100
AcDbEntity
8
Frame
6
ByLayer
62
7
370
-1
100
AcDbPolyline
90
2
70
0
43
0
10
60.111076
20
209.048734
10
59.824959
20
209.421465
0
LWPOLYLINE
5
122
100
AcDbEntity
8
Frame
6
ByLayer
62
7
370
-1
100
AcDbPolyline
90
2
70
0
43
0
10
59.017972
20
209.887244
10
58.552108
20
209.948486
0
LWPOLYLINE
5
123
100
AcDbEntity
8
Frame
6
ByLayer
62
7
370
-1
100
AcDbPolyline
90
2
70
0
43
0
10
60.352347
20
208.148755
10
60.290964
20
208.61462
0
LWPOLYLINE
5
124
100
AcDbEntity
8
Frame
6
ByLayer
62
7
370
-1
100
AcDbPolyline
90
3
70
0
43
0
10
57.279738
20
206.875538
10
57.652581
20
206.589534
10
58.086724
20
206.409758
0
LWPOLYLINE
5
125
100
AcDbEntity
8
Frame
6
ByLayer
62
7
370
-1
100
AcDbPolyline
90
3
70
0
43
0
10
60.11133
20
207.24872
10
60.291077
20
207.682863
10
60.352347
20
208.148755
0
LWPOLYLINE
5
126
100
AcDbEntity
8
Frame
6
ByLayer
62
7
370
-1
100
AcDbPolyline
90
5
70
0
43
0
10
24.031843
20
381.365128
10
24.497707
20
381.426511
10
24.931793
20
381.6064
10
25.304552
20
381.892516
10
25.590556
20
382.265332
0
LWPOLYLINE
5
127
100
AcDbEntity
8
Frame
6
ByLayer
62
7
370
-1
100
AcDbPolyline
90
3
70
0
43
0
10
22.292846
20
383.630751
10
22.231576
20
383.164859
10
22.292987
20
382.698995
0
LWPOLYLINE
5
128
100
AcDbEntity
8
Frame
6
ByLayer
62
7
370
-1
100
AcDbPolyline
90
2
70
0
43
0
10
23.131357
20
384.723826
10
22.758598
20
384.437738
0
LWPOLYLINE
5
129
100
AcDbEntity
8
Frame
6
ByLayer
62
7
370
-1
100
AcDbPolyline
90
2
70
0
43
0
10
24.497199
20
384.903856
10
24.031335
20
384.965126
0
LWPOLYLINE
5
12A
100
AcDbEntity
8
Frame
6
ByLayer
62
7
370
-1
100
AcDbPolyline
90
2
70
0
43
0
10
24.931342
20
384.72408
10
24.497199
20
384.903856
0
LWPOLYLINE
5
12B
100
AcDbEntity
8
Frame
6
ByLayer
62
7
370
-1
100
AcDbPolyline
90
3
70
0
43
0
10
25.590556
20
382.265332
10
25.770304
20
382.699503
10
25.831574
20
383.165367
0
LWPOLYLINE
5
12C
100
AcDbEntity
8
Frame
6
ByLayer
62
7
370
-1
100
AcDbPolyline
90
3
70
0
43
0
10
22.292987
20
382.698995
10
22.472876
20
382.26488
10
22.758964
20
381.89215
0
LWPOLYLINE
5
12D
100
AcDbEntity
8
Frame
6
ByLayer
62
7
370
-1
100
AcDbPolyline
90
3
70
0
43
0
10
24.031335
20
384.965126
10
23.565443
20
384.903715
10
23.131357
20
384.723826
0
LWPOLYLINE
5
12E
100
AcDbEntity
8
Frame
6
ByLayer
62
7
370
-1
100
AcDbPolyline
90
3
70
0
43
0
10
22.758598
20
384.437738
10
22.472594
20
384.064894
10
22.292846
20
383.630751
0
LWPOLYLINE
5
12F
100
AcDbEntity
8
Frame
6
ByLayer
62
7
370
-1
100
AcDbPolyline
90
2
70
0
43
0
10
25.304186
20
384.438104
10
24.931342
20
384.72408
0
LWPOLYLINE
5
130
100
AcDbEntity
8
Frame
6
ByLayer
62
7
370
-1
100
AcDbPolyline
90
2
70
0
43
0
10
25.590302
20
384.065345
10
25.304186
20
384.438104
0
LWPOLYLINE
5
131
100
AcDbEntity
8
Frame
6
ByLayer
62
7
370
-1
100
AcDbPolyline
90
2
70
0
43
0
10
25.770191
20
383.631231
10
25.590302
20
384.065345
0
LWPOLYLINE
5
132
100
AcDbEntity
8
Frame
6
ByLayer
62
7
370
-1
100
AcDbPolyline
90
2
70
0
43
0
10
25.831574
20
383.165367
10
25.770191
20
383.631231
0
LWPOLYLINE
5
133
100
AcDbEntity
8
Frame
6
ByLayer
62
7
370
-1
100
AcDbPolyline
90
4
70
0
43
0
10
22.758964
20
381.89215
10
23.131808
20
381.606146
10
23.565951
20
381.426398
10
24.031843
20
381.365128
0
LWPOLYLINE
5
134
100
AcDbEntity
8
Frame
6
ByLayer
62
7
370
-1
100
AcDbPolyline
90
6
70
0
43
0
10
42.777043
20
384.437738
10
42.491039
20
384.064894
10
42.311292
20
383.630751
10
42.250021
20
383.164859
10
42.311433
20
382.698995
10
42.491293
20
382.26488
0
LWPOLYLINE
5
135
100
AcDbEntity
8
Frame
6
ByLayer
62
7
370
-1
100
AcDbPolyline
90
2
70
0
43
0
10
44.515645
20
384.903856
10
44.049752
20
384.965126
0
LWPOLYLINE
5
136
100
AcDbEntity
8
Frame
6
ByLayer
62
7
370
-1
100
AcDbPolyline
90
5
70
0
43
0
10
44.950239
20
381.6064
10
45.322998
20
381.892516
10
45.609002
20
382.265332
10
45.788749
20
382.699503
10
45.85002
20
383.165367
0
LWPOLYLINE
5
137
100
AcDbEntity
8
Frame
6
ByLayer
62
7
370
-1
100
AcDbPolyline
90
2
70
0
43
0
10
44.949787
20
384.72408
10
44.515645
20
384.903856
0
LWPOLYLINE
5
138
100
AcDbEntity
8
Frame
6
ByLayer
62
7
370
-1
100
AcDbPolyline
90
2
70
0
43
0
10
44.049752
20
384.965126
10
43.583888
20
384.903715
0
LWPOLYLINE
5
139
100
AcDbEntity
8
Frame
6
ByLayer
62
7
370
-1
100
AcDbPolyline
90
5
70
0
43
0
10
45.85002
20
383.165367
10
45.788608
20
383.631231
10
45.608748
20
384.065345
10
45.322631
20
384.438104
10
44.949787
20
384.72408
0
LWPOLYLINE
5
13A
100
AcDbEntity
8
Frame
6
ByLayer
62
7
370
-1
100
AcDbPolyline
90
7
70
0
43
0
10
42.491293
20
382.26488
10
42.77741
20
381.89215
10
43.150254
20
381.606146
10
43.584396
20
381.426398
10
44.050289
20
381.365128
10
44.516153
20
381.426511
10
44.950239
20
381.6064
0
LWPOLYLINE
5
13B
100
AcDbEntity
8
Frame
6
ByLayer
62
7
370
-1
100
AcDbPolyline
90
3
70
0
43
0
10
43.583888
20
384.903715
10
43.149802
20
384.723826
10
42.777043
20
384.437738
0
LWPOLYLINE
5
13C
100
AcDbEntity
8
Frame
6
ByLayer
62
7
370
-1
100
AcDbPolyline
90
2
70
0
43
0
10
59.824959
20
364.419631
10
59.452143
20
364.705635
0
LWPOLYLINE
5
13D
100
AcDbEntity
8
Frame
6
ByLayer
62
7
370
-1
100
AcDbPolyline
90
6
70
0
43
0
10
56.993649
20
362.246435
10
57.279738
20
361.873704
10
57.652581
20
361.5877
10
58.086724
20
361.407924
10
58.552616
20
361.346682
10
59.01848
20
361.408066
0
LWPOLYLINE
5
13E
100
AcDbEntity
8
Frame
6
ByLayer
62
7
370
-1
100
AcDbPolyline
90
10
70
0
43
0
10
59.017972
20
364.88541
10
58.552108
20
364.946681
10
58.086244
20
364.885269
10
57.65213
20
364.705381
10
57.279371
20
364.419292
10
56.993395
20
364.046448
10
56.813619
20
363.612306
10
56.752349
20
363.146413
10
56.81376
20
362.680549
10
56.993649
20
362.246435
0
LWPOLYLINE
5
13F
100
AcDbEntity
8
Frame
6
ByLayer
62
7
370
-1
100
AcDbPolyline
90
2
70
0
43
0
10
60.111076
20
364.0469
10
59.824959
20
364.419631
0
LWPOLYLINE
5
140
100
AcDbEntity
8
Frame
6
ByLayer
62
7
370
-1
100
AcDbPolyline
90
2
70
0
43
0
10
60.290964
20
363.612786
10
60.111076
20
364.0469
0
LWPOLYLINE
5
141
100
AcDbEntity
8
Frame
6
ByLayer
62
7
370
-1
100
AcDbPolyline
90
2
70
0
43
0
10
60.352347
20
363.146921
10
60.290964
20
363.612786
0
LWPOLYLINE
5
142
100
AcDbEntity
8
Frame
6
ByLayer
62
7
370
-1
100
AcDbPolyline
90
6
70
0
43
0
10
59.01848
20
361.408066
10
59.452566
20
361.587954
10
59.825326
20
361.874071
10
60.11133
20
362.246886
10
60.291077
20
362.681057
10
60.352347
20
363.146921
0
LWPOLYLINE
5
143
100
AcDbEntity
8
Frame
6
ByLayer
62
7
370
-1
100
AcDbPolyline
90
2
70
0
43
0
10
59.452143
20
364.705635
10
59.017972
20
364.88541
0
LWPOLYLINE
5
144
100
AcDbEntity
8
Frame
6
ByLayer
62
7
370
-1
100
AcDbPolyline
90
3
70
0
43
0
10
187.893551
20
218.717046
10
187.4594
20
218.896794
10
186.993516
20
218.958064
0
LWPOLYLINE
5
145
100
AcDbEntity
8
Frame
6
ByLayer
62
7
370
-1
100
AcDbPolyline
90
2
70
0
43
0
10
185.255174
20
216.691932
10
185.435057
20
216.257846
0
LWPOLYLINE
5
146
100
AcDbEntity
8
Frame
6
ByLayer
62
7
370
-1
100
AcDbPolyline
90
2
70
0
43
0
10
185.721165
20
215.885087
10
186.093997
20
215.599083
0
LWPOLYLINE
5
147
100
AcDbEntity
8
Frame
6
ByLayer
62
7
370
-1
100
AcDbPolyline
90
2
70
0
43
0
10
188.793775
20
217.158305
10
188.732374
20
217.624197
0
LWPOLYLINE
5
148
100
AcDbEntity
8
Frame
6
ByLayer
62
7
370
-1
100
AcDbPolyline
90
2
70
0
43
0
10
186.993516
20
218.958064
10
186.956759
20
218.953266
0
LWPOLYLINE
5
149
100
AcDbEntity
8
Frame
6
ByLayer
62
7
370
-1
100
AcDbPolyline
90
2
70
0
43
0
10
186.527652
20
218.896652
10
186.093552
20
218.716764
0
LWPOLYLINE
5
14A
100
AcDbEntity
8
Frame
6
ByLayer
62
7
370
-1
100
AcDbPolyline
90
3
70
0
43
0
10
185.720801
20
218.430675
10
185.4348
20
218.057832
10
185.255041
20
217.623689
0
LWPOLYLINE
5
14B
100
AcDbEntity
8
Frame
6
ByLayer
62
7
370
-1
100
AcDbPolyline
90
2
70
0
43
0
10
188.266383
20
218.431042
10
187.893551
20
218.717046
0
LWPOLYLINE
5
14C
100
AcDbEntity
8
Frame
6
ByLayer
62
7
370
-1
100
AcDbPolyline
90
2
70
0
43
0
10
188.732374
20
217.624197
10
188.552492
20
218.058283
0
LWPOLYLINE
5
14D
100
AcDbEntity
8
Frame
6
ByLayer
62
7
370
-1
100
AcDbPolyline
90
2
70
0
43
0
10
186.093997
20
215.599083
10
186.528148
20
215.419336
0
LWPOLYLINE
5
14E
100
AcDbEntity
8
Frame
6
ByLayer
62
7
370
-1
100
AcDbPolyline
90
4
70
0
43
0
10
186.994032
20
215.358066
10
187.459897
20
215.419449
10
187.893997
20
215.599337
10
188.266747
20
215.885454
0
LWPOLYLINE
5
14F
100
AcDbEntity
8
Frame
6
ByLayer
62
7
370
-1
100
AcDbPolyline
90
2
70
0
43
0
10
188.732507
20
216.69244
10
188.793775
20
217.158305
0
LWPOLYLINE
5
150
100
AcDbEntity
8
Frame
6
ByLayer
62
7
370
-1
100
AcDbPolyline
90
2
70
0
43
0
10
653.786049
20
342.694418
10
653.786049
20
351.494417
0
LWPOLYLINE
5
151
100
AcDbEntity
8
Frame
6
ByLayer
62
7
370
-1
100
AcDbPolyline
90
2
70
0
43
0
10
644.686033
20
59.901571
10
653.828464
20
59.901571
0
LWPOLYLINE
5
152
100
AcDbEntity
8
Frame
6
ByLayer
62
7
370
-1
100
AcDbPolyline
90
2
70
0
43
0
10
653.786049
20
59.901571
10
653.786049
20
68.70157
0
LWPOLYLINE
5
153
100
AcDbEntity
8
Frame
6
ByLayer
62
7
370
-1
100
AcDbPolyline
90
3
70
0
43
0
10
653.828464
20
68.70157
10
644.686033
20
68.70157
10
644.686033
20
187.601623
0
LWPOLYLINE
5
154
100
AcDbEntity
8
Frame
6
ByLayer
62
7
370
-1
100
AcDbPolyline
90
2
70
0
43
0
10
428.571576
20
385.215316
10
429.207251
20
386.043751
0
LWPOLYLINE
5
155
100
AcDbEntity
8
Frame
6
ByLayer
62
7
370
-1
100
AcDbPolyline
90
2
70
0
43
0
10
443.895347
20
384.250596
10
444.031644
20
383.21532
0
LWPOLYLINE
5
156
100
AcDbEntity
8
Frame
6
ByLayer
62
7
370
-1
100
AcDbPolyline
90
2
70
0
43
0
10
443.495746
20
385.215316
10
443.895347
20
384.250596
0
LWPOLYLINE
5
157
100
AcDbEntity
8
Frame
6
ByLayer
62
7
370
-1
100
AcDbPolyline
90
2
70
0
43
0
10
424.098778
20
210.41531
10
412.098779
20
210.41531
0
LWPOLYLINE
5
158
100
AcDbEntity
8
Frame
6
ByLayer
62
7
370
-1
100
AcDbPolyline
90
2
70
0
43
0
10
510.648698
20
364.354127
10
511.088259
20
365.415311
0
LWPOLYLINE
5
159
100
AcDbEntity
8
Frame
6
ByLayer
62
7
370
-1
100
AcDbPolyline
90
2
70
0
43
0
10
432.035676
20
379.215328
10
431.000401
20
379.351613
0
LWPOLYLINE
5
15A
100
AcDbEntity
8
Frame
6
ByLayer
62
7
370
-1
100
AcDbPolyline
90
2
70
0
43
0
10
440.098506
20
387.215312
10
441.066922
20
387.079027
0
LWPOLYLINE
5
15B
100
AcDbEntity
8
Frame
6
ByLayer
62
7
370
-1
100
AcDbPolyline
90
2
70
0
43
0
10
432.035676
20
387.215312
10
440.098506
20
387.215312
0
LWPOLYLINE
5
15C
100
AcDbEntity
8
Frame
6
ByLayer
62
7
370
-1
100
AcDbPolyline
90
2
70
0
43
0
10
511.787501
20
360.104058
10
511.088259
20
361.015325
0
LWPOLYLINE
5
15D
100
AcDbEntity
8
Frame
6
ByLayer
62
7
370
-1
100
AcDbPolyline
90
2
70
0
43
0
10
510.49877
20
363.215332
10
510.648698
20
364.354127
0
LWPOLYLINE
5
15E
100
AcDbEntity
8
Frame
6
ByLayer
62
7
370
-1
100
AcDbPolyline
90
2
70
0
43
0
10
424.098778
20
204.215311
10
429.198779
20
204.215311
0
LWPOLYLINE
5
15F
100
AcDbEntity
8
Frame
6
ByLayer
62
7
370
-1
100
AcDbPolyline
90
2
70
0
43
0
10
564.898766
20
393.215328
10
584.898779
20
393.215328
0
LWPOLYLINE
5
160
100
AcDbEntity
8
Frame
6
ByLayer
62
7
370
-1
100
AcDbPolyline
90
2
70
0
43
0
10
511.088259
20
365.415311
10
511.787501
20
366.326578
0
LWPOLYLINE
5
161
100
AcDbEntity
8
Frame
6
ByLayer
62
7
370
-1
100
AcDbPolyline
90
2
70
0
43
0
10
429.198779
20
370.420889
10
429.198779
20
372.220874
0
LWPOLYLINE
5
162
100
AcDbEntity
8
Frame
6
ByLayer
62
7
370
-1
100
AcDbPolyline
90
2
70
0
43
0
10
424.098778
20
370.420889
10
412.098779
20
370.420889
0
LWPOLYLINE
5
163
100
AcDbEntity
8
Frame
6
ByLayer
62
7
370
-1
100
AcDbPolyline
90
2
70
0
43
0
10
424.098778
20
372.220874
10
424.098778
20
370.420889
0
LWPOLYLINE
5
164
100
AcDbEntity
8
Frame
6
ByLayer
62
7
370
-1
100
AcDbPolyline
90
2
70
0
43
0
10
412.098779
20
366.020875
10
412.098779
20
356.465367
0
LWPOLYLINE
5
165
100
AcDbEntity
8
Frame
6
ByLayer
62
7
370
-1
100
AcDbPolyline
90
2
70
0
43
0
10
424.098778
20
57.130346
10
424.098778
20
55.330361
0
LWPOLYLINE
5
166
100
AcDbEntity
8
Frame
6
ByLayer
62
7
370
-1
100
AcDbPolyline
90
2
70
0
43
0
10
424.098778
20
50.930347
10
424.098778
20
49.130362
0
LWPOLYLINE
5
167
100
AcDbEntity
8
Frame
6
ByLayer
62
7
370
-1
100
AcDbPolyline
90
2
70
0
43
0
10
433.198779
20
50.930347
10
433.198779
20
55.330361
0
LWPOLYLINE
5
168
100
AcDbEntity
8
Frame
6
ByLayer
62
7
370
-1
100
AcDbPolyline
90
2
70
0
43
0
10
429.198779
20
50.930347
10
433.198779
20
50.930347
0
LWPOLYLINE
5
169
100
AcDbEntity
8
Frame
6
ByLayer
62
7
370
-1
100
AcDbPolyline
90
2
70
0
43
0
10
429.198779
20
50.930347
10
429.198779
20
49.130362
0
LWPOLYLINE
5
16A
100
AcDbEntity
8
Frame
6
ByLayer
62
7
370
-1
100
AcDbPolyline
90
2
70
0
43
0
10
412.098779
20
50.930347
10
424.098778
20
50.930347
0
LWPOLYLINE
5
16B
100
AcDbEntity
8
Frame
6
ByLayer
62
7
370
-1
100
AcDbPolyline
90
2
70
0
43
0
10
433.198779
20
55.330361
10
429.198779
20
55.330361
0
LWPOLYLINE
5
16C
100
AcDbEntity
8
Frame
6
ByLayer
62
7
370
-1
100
AcDbPolyline
90
2
70
0
43
0
10
424.098778
20
55.330361
10
412.098779
20
55.330361
0
LWPOLYLINE
5
16D
100
AcDbEntity
8
Frame
6
ByLayer
62
7
370
-1
100
AcDbPolyline
90
2
70
0
43
0
10
429.198779
20
57.130346
10
424.098778
20
57.130346
0
LWPOLYLINE
5
16E
100
AcDbEntity
8
Frame
6
ByLayer
62
7
370
-1
100
AcDbPolyline
90
2
70
0
43
0
10
644.686033
20
25.151633
10
493.88603
20
25.151633
0
LWPOLYLINE
5
16F
100
AcDbEntity
8
Frame
6
ByLayer
62
7
370
-1
100
AcDbPolyline
90
2
70
0
43
0
10
613.924714
20
35.980076
10
614.753149
20
36.615754
0
LWPOLYLINE
5
170
100
AcDbEntity
8
Frame
6
ByLayer
62
7
370
-1
100
AcDbPolyline
90
2
70
0
43
0
10
613.289065
20
35.151641
10
613.924714
20
35.980076
0
LWPOLYLINE
5
171
100
AcDbEntity
8
Frame
6
ByLayer
62
7
370
-1
100
AcDbPolyline
90
2
70
0
43
0
10
624.749122
20
37.151637
10
616.753145
20
37.151637
0
LWPOLYLINE
5
172
100
AcDbEntity
8
Frame
6
ByLayer
62
7
370
-1
100
AcDbPolyline
90
2
70
0
43
0
10
544.086026
20
56.962142
10
544.997296
20
56.262908
0
LWPOLYLINE
5
173
100
AcDbEntity
8
Frame
6
ByLayer
62
7
370
-1
100
AcDbPolyline
90
2
70
0
43
0
10
623.586027
20
205.951627
10
627.586019
20
205.951627
0
LWPOLYLINE
5
174
100
AcDbEntity
8
Frame
6
ByLayer
62
7
370
-1
100
AcDbPolyline
90
2
70
0
43
0
10
543.02483
20
57.401703
10
544.086026
20
56.962142
0
LWPOLYLINE
5
175
100
AcDbEntity
8
Frame
6
ByLayer
62
7
370
-1
100
AcDbPolyline
90
2
70
0
43
0
10
627.586019
20
204.151642
10
632.686001
20
204.151642
0
LWPOLYLINE
5
176
100
AcDbEntity
8
Frame
6
ByLayer
62
7
370
-1
100
AcDbPolyline
90
2
70
0
43
0
10
626.749146
20
36.615754
10
627.577553
20
35.980076
0
LWPOLYLINE
5
177
100
AcDbEntity
8
Frame
6
ByLayer
62
7
370
-1
100
AcDbPolyline
90
3
70
0
43
0
10
644.686033
20
50.346091
10
632.686001
20
50.346091
10
632.686001
20
52.146076
0
LWPOLYLINE
5
178
100
AcDbEntity
8
Frame
6
ByLayer
62
7
370
-1
100
AcDbPolyline
90
2
70
0
43
0
10
623.586027
20
45.946077
10
627.586019
20
45.946077
0
LWPOLYLINE
5
179
100
AcDbEntity
8
Frame
6
ByLayer
62
7
370
-1
100
AcDbPolyline
90
2
70
0
43
0
10
627.586019
20
44.146092
10
632.686001
20
44.146092
0
LWPOLYLINE
5
17A
100
AcDbEntity
8
Frame
6
ByLayer
62
7
370
-1
100
AcDbPolyline
90
2
70
0
43
0
10
632.686001
20
52.146076
10
627.586019
20
52.146076
0
LWPOLYLINE
5
17B
100
AcDbEntity
8
Frame
6
ByLayer
62
7
370
-1
100
AcDbPolyline
90
2
70
0
43
0
10
627.586019
20
45.946077
10
627.586019
20
44.146092
0
LWPOLYLINE
5
17C
100
AcDbEntity
8
Frame
6
ByLayer
62
7
370
-1
100
AcDbPolyline
90
2
70
0
43
0
10
632.686001
20
45.946077
10
644.686033
20
45.946077
0
LWPOLYLINE
5
17D
100
AcDbEntity
8
Frame
6
ByLayer
62
7
370
-1
100
AcDbPolyline
90
2
70
0
43
0
10
632.686001
20
44.146092
10
632.686001
20
45.946077
0
LWPOLYLINE
5
17E
100
AcDbEntity
8
Frame
6
ByLayer
62
7
370
-1
100
AcDbPolyline
90
2
70
0
43
0
10
644.686033
20
50.346091
10
644.686033
20
59.901571
0
LWPOLYLINE
5
17F
100
AcDbEntity
8
Frame
6
ByLayer
62
7
370
-1
100
AcDbPolyline
90
2
70
0
43
0
10
443.895347
20
382.180044
10
443.495746
20
381.215324
0
LWPOLYLINE
5
180
100
AcDbEntity
8
Frame
6
ByLayer
62
7
370
-1
100
AcDbPolyline
90
2
70
0
43
0
10
613.924714
20
30.323214
10
613.289065
20
31.151649
0
LWPOLYLINE
5
181
100
AcDbEntity
8
Frame
6
ByLayer
62
7
370
-1
100
AcDbPolyline
90
2
70
0
43
0
10
614.753149
20
29.687537
10
613.924714
20
30.323214
0
LWPOLYLINE
5
182
100
AcDbEntity
8
Frame
6
ByLayer
62
7
370
-1
100
AcDbPolyline
90
2
70
0
43
0
10
615.717869
20
29.287938
10
614.753149
20
29.687537
0
LWPOLYLINE
5
183
100
AcDbEntity
8
Frame
6
ByLayer
62
7
370
-1
100
AcDbPolyline
90
2
70
0
43
0
10
644.686033
20
210.351641
10
632.686001
20
210.351641
0
LWPOLYLINE
5
184
100
AcDbEntity
8
Frame
6
ByLayer
62
7
370
-1
100
AcDbPolyline
90
3
70
0
43
0
10
626.749146
20
29.687537
10
625.784397
20
29.287938
10
624.749093
20
29.151653
0
LWPOLYLINE
5
185
100
AcDbEntity
8
Frame
6
ByLayer
62
7
370
-1
100
AcDbPolyline
90
2
70
0
43
0
10
628.612829
20
32.11637
10
628.21323
20
31.151649
0
LWPOLYLINE
5
186
100
AcDbEntity
8
Frame
6
ByLayer
62
7
370
-1
100
AcDbPolyline
90
2
70
0
43
0
10
544.086026
20
49.341126
10
543.02483
20
48.901564
0
LWPOLYLINE
5
187
100
AcDbEntity
8
Frame
6
ByLayer
62
7
370
-1
100
AcDbPolyline
90
2
70
0
43
0
10
412.098779
20
32.572554
10
412.098779
20
23.215335
0
LWPOLYLINE
5
188
100
AcDbEntity
8
Frame
6
ByLayer
62
7
370
-1
100
AcDbPolyline
90
2
70
0
43
0
10
402.984562
20
64.872548
10
412.098779
20
64.872548
0
LWPOLYLINE
5
189
100
AcDbEntity
8
Frame
6
ByLayer
62
7
370
-1
100
AcDbPolyline
90
2
70
0
43
0
10
412.098779
20
73.672548
10
402.984562
20
73.672548
0
LWPOLYLINE
5
18A
100
AcDbEntity
8
Frame
6
ByLayer
62
7
370
-1
100
AcDbPolyline
90
2
70
0
43
0
10
402.998779
20
73.672548
10
402.998779
20
64.872548
0
LWPOLYLINE
5
18B
100
AcDbEntity
8
Frame
6
ByLayer
62
7
370
-1
100
AcDbPolyline
90
2
70
0
43
0
10
412.098779
20
356.465367
10
402.984562
20
356.465367
0
LWPOLYLINE
5
18C
100
AcDbEntity
8
Frame
6
ByLayer
62
7
370
-1
100
AcDbPolyline
90
2
70
0
43
0
10
402.998779
20
356.465367
10
402.998779
20
347.665367
0
LWPOLYLINE
5
18D
100
AcDbEntity
8
Frame
6
ByLayer
62
7
370
-1
100
AcDbPolyline
90
3
70
0
43
0
10
402.984562
20
347.665367
10
412.098779
20
347.665367
10
412.098779
20
228.765343
0
LWPOLYLINE
5
18E
100
AcDbEntity
8
Frame
6
ByLayer
62
7
370
-1
100
AcDbPolyline
90
2
70
0
43
0
10
424.098778
20
206.015296
10
424.098778
20
204.215311
0
LWPOLYLINE
5
18F
100
AcDbEntity
8
Frame
6
ByLayer
62
7
370
-1
100
AcDbPolyline
90
2
70
0
43
0
10
584.898779
20
393.215328
10
589.898769
20
388.21531
0
LWPOLYLINE
5
190
100
AcDbEntity
8
Frame
6
ByLayer
62
7
370
-1
100
AcDbPolyline
90
2
70
0
43
0
10
562.898767
20
391.215304
10
564.898766
20
393.215328
0
LWPOLYLINE
5
191
100
AcDbEntity
8
Frame
6
ByLayer
62
7
370
-1
100
AcDbPolyline
90
2
70
0
43
0
10
428.171975
20
382.180044
10
428.035676
20
383.21532
0
LWPOLYLINE
5
192
100
AcDbEntity
8
Frame
6
ByLayer
62
7
370
-1
100
AcDbPolyline
90
3
70
0
43
0
10
653.828464
20
228.701645
10
644.686033
20
228.701645
10
644.686033
20
342.694418
0
LWPOLYLINE
5
193
100
AcDbEntity
8
Frame
6
ByLayer
62
7
370
-1
100
AcDbPolyline
90
2
70
0
43
0
10
653.828464
20
196.401622
10
644.686033
20
196.401622
0
LWPOLYLINE
5
194
100
AcDbEntity
8
Frame
6
ByLayer
62
7
370
-1
100
AcDbPolyline
90
2
70
0
43
0
10
644.686033
20
187.601623
10
653.828464
20
187.601623
0
LWPOLYLINE
5
195
100
AcDbEntity
8
Frame
6
ByLayer
62
7
370
-1
100
AcDbPolyline
90
2
70
0
43
0
10
653.786049
20
187.601623
10
653.786049
20
196.401622
0
LWPOLYLINE
5
196
100
AcDbEntity
8
Frame
6
ByLayer
62
7
370
-1
100
AcDbPolyline
90
2
70
0
43
0
10
644.686033
20
219.901646
10
644.686033
20
210.351641
0
LWPOLYLINE
5
197
100
AcDbEntity
8
Frame
6
ByLayer
62
7
370
-1
100
AcDbPolyline
90
2
70
0
43
0
10
644.686033
20
205.951627
10
644.686033
20
196.401622
0
LWPOLYLINE
5
198
100
AcDbEntity
8
Frame
6
ByLayer
62
7
370
-1
100
AcDbPolyline
90
2
70
0
43
0
10
644.686033
20
374.994413
10
653.828464
20
374.994413
0
LWPOLYLINE
5
199
100
AcDbEntity
8
Frame
6
ByLayer
62
7
370
-1
100
AcDbPolyline
90
2
70
0
43
0
10
653.786049
20
374.994413
10
653.786049
20
383.794412
0
LWPOLYLINE
5
19A
100
AcDbEntity
8
Frame
6
ByLayer
62
7
370
-1
100
AcDbPolyline
90
3
70
0
43
0
10
653.828464
20
383.794412
10
644.686033
20
383.794412
10
644.686033
20
393.151631
0
LWPOLYLINE
5
19B
100
AcDbEntity
8
Frame
6
ByLayer
62
7
370
-1
100
AcDbPolyline
90
2
70
0
43
0
10
653.828464
20
351.494417
10
644.686033
20
351.494417
0
LWPOLYLINE
5
19C
100
AcDbEntity
8
Frame
6
ByLayer
62
7
370
-1
100
AcDbPolyline
90
2
70
0
43
0
10
644.686033
20
342.694418
10
653.828464
20
342.694418
0
LWPOLYLINE
5
19D
100
AcDbEntity
8
Frame
6
ByLayer
62
7
370
-1
100
AcDbPolyline
90
2
70
0
43
0
10
433.198779
20
206.015296
10
433.198779
20
210.41531
0
LWPOLYLINE
5
19E
100
AcDbEntity
8
Frame
6
ByLayer
62
7
370
-1
100
AcDbPolyline
90
2
70
0
43
0
10
589.898769
20
346.21531
10
437.498779
20
23.215335
0
LWPOLYLINE
5
19F
100
AcDbEntity
8
Frame
6
ByLayer
62
7
370
-1
100
AcDbPolyline
90
2
70
0
43
0
10
429.198779
20
206.015296
10
433.198779
20
206.015296
0
LWPOLYLINE
5
1A0
100
AcDbEntity
8
Frame
6
ByLayer
62
7
370
-1
100
AcDbPolyline
90
2
70
0
43
0
10
429.198779
20
206.015296
10
429.198779
20
204.215311
0
LWPOLYLINE
5
1A1
100
AcDbEntity
8
Frame
6
ByLayer
62
7
370
-1
100
AcDbPolyline
90
2
70
0
43
0
10
441.066922
20
379.351613
10
440.031647
20
379.215328
0
LWPOLYLINE
5
1A2
100
AcDbEntity
8
Frame
6
ByLayer
62
7
370
-1
100
AcDbPolyline
90
2
70
0
43
0
10
412.098779
20
23.215335
10
437.498779
20
23.215335
0
LWPOLYLINE
5
1A3
100
AcDbEntity
8
Frame
6
ByLayer
62
7
370
-1
100
AcDbPolyline
90
2
70
0
43
0
10
412.098779
20
210.41531
10
412.098779
20
219.965343
0
LWPOLYLINE
5
1A4
100
AcDbEntity
8
Frame
6
ByLayer
62
7
370
-1
100
AcDbPolyline
90
2
70
0
43
0
10
412.098779
20
41.372553
10
402.984562
20
41.372553
0
LWPOLYLINE
5
1A5
100
AcDbEntity
8
Frame
6
ByLayer
62
7
370
-1
100
AcDbPolyline
90
2
70
0
43
0
10
402.998779
20
41.372553
10
402.998779
20
32.572554
0
LWPOLYLINE
5
1A6
100
AcDbEntity
8
Frame
6
ByLayer
62
7
370
-1
100
AcDbPolyline
90
2
70
0
43
0
10
402.984562
20
32.572554
10
412.098779
20
32.572554
0
LWPOLYLINE
5
1A7
100
AcDbEntity
8
Frame
6
ByLayer
62
7
370
-1
100
AcDbPolyline
90
2
70
0
43
0
10
466.88603
20
28.151655
10
466.88603
20
43.75163
0
LWPOLYLINE
5
1A8
100
AcDbEntity
8
Frame
6
ByLayer
62
7
370
-1
100
AcDbPolyline
90
2
70
0
43
0
10
628.21323
20
35.151641
10
628.612829
20
34.186921
0
LWPOLYLINE
5
1A9
100
AcDbEntity
8
Frame
6
ByLayer
62
7
370
-1
100
AcDbPolyline
90
2
70
0
43
0
10
628.749142
20
33.151645
10
628.612829
20
32.11637
0
LWPOLYLINE
5
1AA
100
AcDbEntity
8
Frame
6
ByLayer
62
7
370
-1
100
AcDbPolyline
90
2
70
0
43
0
10
625.784397
20
37.015352
10
626.749146
20
36.615754
0
LWPOLYLINE
5
1AB
100
AcDbEntity
8
Frame
6
ByLayer
62
7
370
-1
100
AcDbPolyline
90
2
70
0
43
0
10
632.686001
20
204.151642
10
632.686001
20
205.951627
0
LWPOLYLINE
5
1AC
100
AcDbEntity
8
Frame
6
ByLayer
62
7
370
-1
100
AcDbPolyline
90
2
70
0
43
0
10
424.098778
20
49.130362
10
429.198779
20
49.130362
0
LWPOLYLINE
5
1AD
100
AcDbEntity
8
Frame
6
ByLayer
62
7
370
-1
100
AcDbPolyline
90
2
70
0
43
0
10
429.198779
20
55.330361
10
429.198779
20
57.130346
0
LWPOLYLINE
5
1AE
100
AcDbEntity
8
Frame
6
ByLayer
62
7
370
-1
100
AcDbPolyline
90
2
70
0
43
0
10
412.098779
20
50.930347
10
412.098779
20
41.372553
0
LWPOLYLINE
5
1AF
100
AcDbEntity
8
Frame
6
ByLayer
62
7
370
-1
100
AcDbPolyline
90
2
70
0
43
0
10
412.098779
20
55.330361
10
412.098779
20
64.872548
0
LWPOLYLINE
5
1B0
100
AcDbEntity
8
Frame
6
ByLayer
62
7
370
-1
100
AcDbPolyline
90
2
70
0
43
0
10
433.198779
20
366.020875
10
433.198779
20
370.420889
0
LWPOLYLINE
5
1B1
100
AcDbEntity
8
Frame
6
ByLayer
62
7
370
-1
100
AcDbPolyline
90
2
70
0
43
0
10
429.198779
20
366.020875
10
433.198779
20
366.020875
0
LWPOLYLINE
5
1B2
100
AcDbEntity
8
Frame
6
ByLayer
62
7
370
-1
100
AcDbPolyline
90
2
70
0
43
0
10
429.198779
20
366.020875
10
429.198779
20
364.22089
0
LWPOLYLINE
5
1B3
100
AcDbEntity
8
Frame
6
ByLayer
62
7
370
-1
100
AcDbPolyline
90
3
70
0
43
0
10
412.098779
20
366.020875
10
424.098778
20
366.020875
10
424.098778
20
364.22089
0
LWPOLYLINE
5
1B4
100
AcDbEntity
8
Frame
6
ByLayer
62
7
370
-1
100
AcDbPolyline
90
2
70
0
43
0
10
433.198779
20
370.420889
10
429.198779
20
370.420889
0
LWPOLYLINE
5
1B5
100
AcDbEntity
8
Frame
6
ByLayer
62
7
370
-1
100
AcDbPolyline
90
2
70
0
43
0
10
514.89877
20
358.815318
10
513.759966
20
358.965235
0
LWPOLYLINE
5
1B6
100
AcDbEntity
8
Frame
6
ByLayer
62
7
370
-1
100
AcDbPolyline
90
2
70
0
43
0
10
442.860072
20
386.043751
10
443.495746
20
385.215316
0
LWPOLYLINE
5
1B7
100
AcDbEntity
8
Frame
6
ByLayer
62
7
370
-1
100
AcDbPolyline
90
2
70
0
43
0
10
442.031645
20
386.679429
10
442.860072
20
386.043751
0
LWPOLYLINE
5
1B8
100
AcDbEntity
8
Frame
6
ByLayer
62
7
370
-1
100
AcDbPolyline
90
2
70
0
43
0
10
441.066922
20
387.079027
10
442.031645
20
386.679429
0
LWPOLYLINE
5
1B9
100
AcDbEntity
8
Frame
6
ByLayer
62
7
370
-1
100
AcDbPolyline
90
2
70
0
43
0
10
412.098779
20
206.015296
10
424.098778
20
206.015296
0
LWPOLYLINE
5
1BA
100
AcDbEntity
8
Frame
6
ByLayer
62
7
370
-1
100
AcDbPolyline
90
3
70
0
43
0
10
430.035678
20
386.679429
10
431.000401
20
387.079027
10
432.035676
20
387.215312
0
LWPOLYLINE
5
1BB
100
AcDbEntity
8
Frame
6
ByLayer
62
7
370
-1
100
AcDbPolyline
90
2
70
0
43
0
10
428.171975
20
384.250596
10
428.571576
20
385.215316
0
LWPOLYLINE
5
1BC
100
AcDbEntity
8
Frame
6
ByLayer
62
7
370
-1
100
AcDbPolyline
90
2
70
0
43
0
10
512.698771
20
367.02584
10
513.759966
20
367.465401
0
LWPOLYLINE
5
1BD
100
AcDbEntity
8
Frame
6
ByLayer
62
7
370
-1
100
AcDbPolyline
90
2
70
0
43
0
10
623.586027
20
210.351641
10
623.586027
20
205.951627
0
LWPOLYLINE
5
1BE
100
AcDbEntity
8
Frame
6
ByLayer
62
7
370
-1
100
AcDbPolyline
90
2
70
0
43
0
10
627.586019
20
210.351641
10
623.586027
20
210.351641
0
LWPOLYLINE
5
1BF
100
AcDbEntity
8
Frame
6
ByLayer
62
7
370
-1
100
AcDbPolyline
90
2
70
0
43
0
10
627.586019
20
210.351641
10
627.586019
20
212.151626
0
LWPOLYLINE
5
1C0
100
AcDbEntity
8
Frame
6
ByLayer
62
7
370
-1
100
AcDbPolyline
90
2
70
0
43
0
10
615.717869
20
37.015352
10
616.753145
20
37.151637
0
LWPOLYLINE
5
1C1
100
AcDbEntity
8
Frame
6
ByLayer
62
7
370
-1
100
AcDbPolyline
90
2
70
0
43
0
10
644.686033
20
393.151631
10
619.286033
20
393.151631
0
LWPOLYLINE
5
1C2
100
AcDbEntity
8
Frame
6
ByLayer
62
7
370
-1
100
AcDbPolyline
90
2
70
0
43
0
10
541.886024
20
57.551647
10
543.02483
20
57.401703
0
LWPOLYLINE
5
1C3
100
AcDbEntity
8
Frame
6
ByLayer
62
7
370
-1
100
AcDbPolyline
90
2
70
0
43
0
10
613.289065
20
31.151649
10
612.889438
20
32.11637
0
LWPOLYLINE
5
1C4
100
AcDbEntity
8
Frame
6
ByLayer
62
7
370
-1
100
AcDbPolyline
90
2
70
0
43
0
10
632.686001
20
205.951627
10
644.686033
20
205.951627
0
LWPOLYLINE
5
1C5
100
AcDbEntity
8
Frame
6
ByLayer
62
7
370
-1
100
AcDbPolyline
90
2
70
0
43
0
10
546.136099
20
52.012839
10
545.696538
20
50.951627
0
LWPOLYLINE
5
1C6
100
AcDbEntity
8
Frame
6
ByLayer
62
7
370
-1
100
AcDbPolyline
90
2
70
0
43
0
10
624.749122
20
37.151637
10
625.784397
20
37.015352
0
LWPOLYLINE
5
1C7
100
AcDbEntity
8
Frame
6
ByLayer
62
7
370
-1
100
AcDbPolyline
90
2
70
0
43
0
10
616.686287
20
29.151653
10
615.717869
20
29.287938
0
LWPOLYLINE
5
1C8
100
AcDbEntity
8
Frame
6
ByLayer
62
7
370
-1
100
AcDbPolyline
90
2
70
0
43
0
10
624.749122
20
29.151653
10
616.686287
20
29.151653
0
LWPOLYLINE
5
1C9
100
AcDbEntity
8
Frame
6
ByLayer
62
7
370
-1
100
AcDbPolyline
90
2
70
0
43
0
10
544.997296
20
56.262908
10
545.696538
20
55.35164
0
LWPOLYLINE
5
1CA
100
AcDbEntity
8
Frame
6
ByLayer
62
7
370
-1
100
AcDbPolyline
90
2
70
0
43
0
10
546.286024
20
53.151634
10
546.136099
20
52.012839
0
LWPOLYLINE
5
1CB
100
AcDbEntity
8
Frame
6
ByLayer
62
7
370
-1
100
AcDbPolyline
90
2
70
0
43
0
10
632.686001
20
212.151626
10
627.586019
20
212.151626
0
LWPOLYLINE
5
1CC
100
AcDbEntity
8
Frame
6
ByLayer
62
7
370
-1
100
AcDbPolyline
90
2
70
0
43
0
10
491.886028
20
23.151637
10
471.886032
20
23.151637
0
LWPOLYLINE
5
1CD
100
AcDbEntity
8
Frame
6
ByLayer
62
7
370
-1
100
AcDbPolyline
90
2
70
0
43
0
10
545.696538
20
50.951627
10
544.997296
20
50.040359
0
LWPOLYLINE
5
1CE
100
AcDbEntity
8
Frame
6
ByLayer
62
7
370
-1
100
AcDbPolyline
90
2
70
0
43
0
10
627.586019
20
205.951627
10
627.586019
20
204.151642
0
LWPOLYLINE
5
1CF
100
AcDbEntity
8
Frame
6
ByLayer
62
7
370
-1
100
AcDbPolyline
90
2
70
0
43
0
10
623.586027
20
365.436618
10
623.586027
20
361.036605
0
LWPOLYLINE
5
1D0
100
AcDbEntity
8
Frame
6
ByLayer
62
7
370
-1
100
AcDbPolyline
90
2
70
0
43
0
10
627.586019
20
365.436618
10
623.586027
20
365.436618
0
LWPOLYLINE
5
1D1
100
AcDbEntity
8
Frame
6
ByLayer
62
7
370
-1
100
AcDbPolyline
90
2
70
0
43
0
10
627.586019
20
365.436618
10
627.586019
20
367.236604
0
LWPOLYLINE
5
1D2
100
AcDbEntity
8
Frame
6
ByLayer
62
7
370
-1
100
AcDbPolyline
90
2
70
0
43
0
10
644.686033
20
365.436618
10
632.686001
20
365.436618
0
LWPOLYLINE
5
1D3
100
AcDbEntity
8
Frame
6
ByLayer
62
7
370
-1
100
AcDbPolyline
90
2
70
0
43
0
10
623.586027
20
361.036605
10
627.586019
20
361.036605
0
LWPOLYLINE
5
1D4
100
AcDbEntity
8
Frame
6
ByLayer
62
7
370
-1
100
AcDbPolyline
90
2
70
0
43
0
10
632.686001
20
361.036605
10
644.686033
20
361.036605
0
LWPOLYLINE
5
1D5
100
AcDbEntity
8
Frame
6
ByLayer
62
7
370
-1
100
AcDbPolyline
90
2
70
0
43
0
10
627.586019
20
359.23662
10
632.686001
20
359.23662
0
LWPOLYLINE
5
1D6
100
AcDbEntity
8
Frame
6
ByLayer
62
7
370
-1
100
AcDbPolyline
90
2
70
0
43
0
10
632.686001
20
367.236604
10
627.586019
20
367.236604
0
LWPOLYLINE
5
1D7
100
AcDbEntity
8
Frame
6
ByLayer
62
7
370
-1
100
AcDbPolyline
90
2
70
0
43
0
10
627.586019
20
361.036605
10
627.586019
20
359.23662
0
LWPOLYLINE
5
1D8
100
AcDbEntity
8
Frame
6
ByLayer
62
7
370
-1
100
AcDbPolyline
90
2
70
0
43
0
10
644.686033
20
365.436618
10
644.686033
20
374.994413
0
LWPOLYLINE
5
1D9
100
AcDbEntity
8
Frame
6
ByLayer
62
7
370
-1
100
AcDbPolyline
90
2
70
0
43
0
10
644.686033
20
361.036605
10
644.686033
20
351.494417
0
LWPOLYLINE
5
1DA
100
AcDbEntity
8
Frame
6
ByLayer
62
7
370
-1
100
AcDbPolyline
90
2
70
0
43
0
10
623.586027
20
50.346091
10
623.586027
20
45.946077
0
LWPOLYLINE
5
1DB
100
AcDbEntity
8
Frame
6
ByLayer
62
7
370
-1
100
AcDbPolyline
90
2
70
0
43
0
10
627.586019
20
50.346091
10
623.586027
20
50.346091
0
LWPOLYLINE
5
1DC
100
AcDbEntity
8
Frame
6
ByLayer
62
7
370
-1
100
AcDbPolyline
90
2
70
0
43
0
10
627.586019
20
50.346091
10
627.586019
20
52.146076
0
LWPOLYLINE
5
1DD
100
AcDbEntity
8
Frame
6
ByLayer
62
7
370
-1
100
AcDbPolyline
90
2
70
0
43
0
10
632.686001
20
359.23662
10
632.686001
20
361.036605
0
LWPOLYLINE
5
1DE
100
AcDbEntity
8
Frame
6
ByLayer
62
7
370
-1
100
AcDbPolyline
90
2
70
0
43
0
10
632.686001
20
365.436618
10
632.686001
20
367.236604
0
LWPOLYLINE
5
1DF
100
AcDbEntity
8
Frame
6
ByLayer
62
7
370
-1
100
AcDbPolyline
90
2
70
0
43
0
10
429.198779
20
210.41531
10
429.198779
20
212.215295
0
LWPOLYLINE
5
1E0
100
AcDbEntity
8
Frame
6
ByLayer
62
7
370
-1
100
AcDbPolyline
90
2
70
0
43
0
10
511.787501
20
366.326578
10
512.698771
20
367.02584
0
LWPOLYLINE
5
1E1
100
AcDbEntity
8
Frame
6
ByLayer
62
7
370
-1
100
AcDbPolyline
90
2
70
0
43
0
10
444.031644
20
383.21532
10
443.895347
20
382.180044
0
LWPOLYLINE
5
1E2
100
AcDbEntity
8
Frame
6
ByLayer
62
7
370
-1
100
AcDbPolyline
90
2
70
0
43
0
10
442.031645
20
379.751212
10
441.066922
20
379.351613
0
LWPOLYLINE
5
1E3
100
AcDbEntity
8
Frame
6
ByLayer
62
7
370
-1
100
AcDbPolyline
90
2
70
0
43
0
10
584.898779
20
367.615318
10
514.89877
20
367.615318
0
LWPOLYLINE
5
1E4
100
AcDbEntity
8
Frame
6
ByLayer
62
7
370
-1
100
AcDbPolyline
90
2
70
0
43
0
10
584.898779
20
367.615318
10
589.898769
20
372.615308
0
LWPOLYLINE
5
1E5
100
AcDbEntity
8
Frame
6
ByLayer
62
7
370
-1
100
AcDbPolyline
90
2
70
0
43
0
10
584.898779
20
358.815318
10
514.89877
20
358.815318
0
LWPOLYLINE
5
1E6
100
AcDbEntity
8
Frame
6
ByLayer
62
7
370
-1
100
AcDbPolyline
90
2
70
0
43
0
10
589.898769
20
353.815328
10
589.898769
20
346.21531
0
LWPOLYLINE
5
1E7
100
AcDbEntity
8
Frame
6
ByLayer
62
7
370
-1
100
AcDbPolyline
90
2
70
0
43
0
10
584.898779
20
358.815318
10
589.898769
20
353.815328
0
LWPOLYLINE
5
1E8
100
AcDbEntity
8
Frame
6
ByLayer
62
7
370
-1
100
AcDbPolyline
90
2
70
0
43
0
10
412.098779
20
196.46532
10
402.984562
20
196.46532
0
LWPOLYLINE
5
1E9
100
AcDbEntity
8
Frame
6
ByLayer
62
7
370
-1
100
AcDbPolyline
90
2
70
0
43
0
10
402.998779
20
196.46532
10
402.998779
20
187.66532
0
LWPOLYLINE
5
1EA
100
AcDbEntity
8
Frame
6
ByLayer
62
7
370
-1
100
AcDbPolyline
90
3
70
0
43
0
10
402.984562
20
187.66532
10
412.098779
20
187.66532
10
412.098779
20
73.672548
0
LWPOLYLINE
5
1EB
100
AcDbEntity
8
Frame
6
ByLayer
62
7
370
-1
100
AcDbPolyline
90
2
70
0
43
0
10
402.984562
20
219.965343
10
412.098779
20
219.965343
0
LWPOLYLINE
5
1EC
100
AcDbEntity
8
Frame
6
ByLayer
62
7
370
-1
100
AcDbPolyline
90
2
70
0
43
0
10
412.098779
20
228.765343
10
402.984562
20
228.765343
0
LWPOLYLINE
5
1ED
100
AcDbEntity
8
Frame
6
ByLayer
62
7
370
-1
100
AcDbPolyline
90
2
70
0
43
0
10
402.998779
20
228.765343
10
402.998779
20
219.965343
0
LWPOLYLINE
5
1EE
100
AcDbEntity
8
Frame
6
ByLayer
62
7
370
-1
100
AcDbPolyline
90
2
70
0
43
0
10
412.098779
20
196.46532
10
412.098779
20
206.015296
0
LWPOLYLINE
5
1EF
100
AcDbEntity
8
Frame
6
ByLayer
62
7
370
-1
100
AcDbPolyline
90
2
70
0
43
0
10
429.198779
20
372.220874
10
424.098778
20
372.220874
0
LWPOLYLINE
5
1F0
100
AcDbEntity
8
Frame
6
ByLayer
62
7
370
-1
100
AcDbPolyline
90
2
70
0
43
0
10
432.035676
20
379.215328
10
440.031647
20
379.215328
0
LWPOLYLINE
5
1F1
100
AcDbEntity
8
Frame
6
ByLayer
62
7
370
-1
100
AcDbPolyline
90
2
70
0
43
0
10
512.698771
20
359.404796
10
511.787501
20
360.104058
0
LWPOLYLINE
5
1F2
100
AcDbEntity
8
Frame
6
ByLayer
62
7
370
-1
100
AcDbPolyline
90
2
70
0
43
0
10
433.198779
20
210.41531
10
429.198779
20
210.41531
0
LWPOLYLINE
5
1F3
100
AcDbEntity
8
Frame
6
ByLayer
62
7
370
-1
100
AcDbPolyline
90
2
70
0
43
0
10
513.759966
20
358.965235
10
512.698771
20
359.404796
0
LWPOLYLINE
5
1F4
100
AcDbEntity
8
Frame
6
ByLayer
62
7
370
-1
100
AcDbPolyline
90
2
70
0
43
0
10
429.198779
20
212.215295
10
424.098778
20
212.215295
0
LWPOLYLINE
5
1F5
100
AcDbEntity
8
Frame
6
ByLayer
62
7
370
-1
100
AcDbPolyline
90
2
70
0
43
0
10
424.098778
20
364.22089
10
429.198779
20
364.22089
0
LWPOLYLINE
5
1F6
100
AcDbEntity
8
Frame
6
ByLayer
62
7
370
-1
100
AcDbPolyline
90
3
70
0
43
0
10
430.035678
20
379.751212
10
429.207251
20
380.386889
10
428.571576
20
381.215324
0
LWPOLYLINE
5
1F7
100
AcDbEntity
8
Frame
6
ByLayer
62
7
370
-1
100
AcDbPolyline
90
2
70
0
43
0
10
429.207251
20
386.043751
10
430.035678
20
386.679429
0
LWPOLYLINE
5
1F8
100
AcDbEntity
8
Frame
6
ByLayer
62
7
370
-1
100
AcDbPolyline
90
3
70
0
43
0
10
511.088259
20
361.015325
10
510.648698
20
362.076509
10
510.49877
20
363.215332
0
LWPOLYLINE
5
1F9
100
AcDbEntity
8
Frame
6
ByLayer
62
7
370
-1
100
AcDbPolyline
90
2
70
0
43
0
10
412.098779
20
391.215304
10
412.098779
20
370.420889
0
LWPOLYLINE
5
1FA
100
AcDbEntity
8
Frame
6
ByLayer
62
7
370
-1
100
AcDbPolyline
90
2
70
0
43
0
10
513.759966
20
367.465401
10
514.89877
20
367.615318
0
LWPOLYLINE
5
1FB
100
AcDbEntity
8
Frame
6
ByLayer
62
7
370
-1
100
AcDbPolyline
90
2
70
0
43
0
10
589.898769
20
388.21531
10
589.898769
20
372.615308
0
LWPOLYLINE
5
1FC
100
AcDbEntity
8
Frame
6
ByLayer
62
7
370
-1
100
AcDbPolyline
90
2
70
0
43
0
10
428.571576
20
381.215324
10
428.171975
20
382.180044
0
LWPOLYLINE
5
1FD
100
AcDbEntity
8
Frame
6
ByLayer
62
7
370
-1
100
AcDbPolyline
90
2
70
0
43
0
10
428.035676
20
383.21532
10
428.171975
20
384.250596
0
LWPOLYLINE
5
1FE
100
AcDbEntity
8
Frame
6
ByLayer
62
7
370
-1
100
AcDbPolyline
90
2
70
0
43
0
10
431.000401
20
379.351613
10
430.035678
20
379.751212
0
LWPOLYLINE
5
1FF
100
AcDbEntity
8
Frame
6
ByLayer
62
7
370
-1
100
AcDbPolyline
90
2
70
0
43
0
10
424.098778
20
212.215295
10
424.098778
20
210.41531
0
LWPOLYLINE
5
200
100
AcDbEntity
8
Frame
6
ByLayer
62
7
370
-1
100
AcDbPolyline
90
2
70
0
43
0
10
544.997296
20
50.040359
10
544.086026
20
49.341126
0
LWPOLYLINE
5
201
100
AcDbEntity
8
Frame
6
ByLayer
62
7
370
-1
100
AcDbPolyline
90
2
70
0
43
0
10
612.753153
20
33.151645
10
612.889438
20
34.186921
0
LWPOLYLINE
5
202
100
AcDbEntity
8
Frame
6
ByLayer
62
7
370
-1
100
AcDbPolyline
90
2
70
0
43
0
10
614.753149
20
36.615754
10
615.717869
20
37.015352
0
LWPOLYLINE
5
203
100
AcDbEntity
8
Frame
6
ByLayer
62
7
370
-1
100
AcDbPolyline
90
2
70
0
43
0
10
471.886032
20
48.751648
10
541.886024
20
48.751648
0
LWPOLYLINE
5
204
100
AcDbEntity
8
Frame
6
ByLayer
62
7
370
-1
100
AcDbPolyline
90
2
70
0
43
0
10
471.886032
20
48.751648
10
466.88603
20
43.75163
0
LWPOLYLINE
5
205
100
AcDbEntity
8
Frame
6
ByLayer
62
7
370
-1
100
AcDbPolyline
90
2
70
0
43
0
10
471.886032
20
57.551647
10
541.886024
20
57.551647
0
LWPOLYLINE
5
206
100
AcDbEntity
8
Frame
6
ByLayer
62
7
370
-1
100
AcDbPolyline
90
2
70
0
43
0
10
466.88603
20
62.551637
10
466.88603
20
70.151628
0
LWPOLYLINE
5
207
100
AcDbEntity
8
Frame
6
ByLayer
62
7
370
-1
100
AcDbPolyline
90
2
70
0
43
0
10
471.886032
20
57.551647
10
466.88603
20
62.551637
0
LWPOLYLINE
5
208
100
AcDbEntity
8
Frame
6
ByLayer
62
7
370
-1
100
AcDbPolyline
90
2
70
0
43
0
10
644.686033
20
219.901646
10
653.828464
20
219.901646
0
LWPOLYLINE
5
209
100
AcDbEntity
8
Frame
6
ByLayer
62
7
370
-1
100
AcDbPolyline
90
2
70
0
43
0
10
653.786049
20
219.901646
10
653.786049
20
228.701645
0
LWPOLYLINE
5
20A
100
AcDbEntity
8
Frame
6
ByLayer
62
7
370
-1
100
AcDbPolyline
90
2
70
0
43
0
10
627.577553
20
35.980076
10
628.21323
20
35.151641
0
LWPOLYLINE
5
20B
100
AcDbEntity
8
Frame
6
ByLayer
62
7
370
-1
100
AcDbPolyline
90
2
70
0
43
0
10
627.577553
20
30.323214
10
626.749146
20
29.687537
0
LWPOLYLINE
5
20C
100
AcDbEntity
8
Frame
6
ByLayer
62
7
370
-1
100
AcDbPolyline
90
3
70
0
43
0
10
545.696538
20
55.35164
10
546.136099
20
54.290457
10
546.286024
20
53.151634
0
LWPOLYLINE
5
20D
100
AcDbEntity
8
Frame
6
ByLayer
62
7
370
-1
100
AcDbPolyline
90
2
70
0
43
0
10
612.889438
20
34.186921
10
613.289065
20
35.151641
0
LWPOLYLINE
5
20E
100
AcDbEntity
8
Frame
6
ByLayer
62
7
370
-1
100
AcDbPolyline
90
2
70
0
43
0
10
632.686001
20
210.351641
10
632.686001
20
212.151626
0
LWPOLYLINE
5
20F
100
AcDbEntity
8
Frame
6
ByLayer
62
7
370
-1
100
AcDbPolyline
90
2
70
0
43
0
10
471.886032
20
23.151637
10
466.88603
20
28.151655
0
LWPOLYLINE
5
210
100
AcDbEntity
8
Frame
6
ByLayer
62
7
370
-1
100
AcDbPolyline
90
2
70
0
43
0
10
493.88603
20
25.151633
10
491.886028
20
23.151637
0
LWPOLYLINE
5
211
100
AcDbEntity
8
Frame
6
ByLayer
62
7
370
-1
100
AcDbPolyline
90
2
70
0
43
0
10
628.612829
20
34.186921
10
628.749142
20
33.151645
0
LWPOLYLINE
5
212
100
AcDbEntity
8
Frame
6
ByLayer
62
7
370
-1
100
AcDbPolyline
90
2
70
0
43
0
10
628.21323
20
31.151649
10
627.577553
20
30.323214
0
LWPOLYLINE
5
213
100
AcDbEntity
8
Frame
6
ByLayer
62
7
370
-1
100
AcDbPolyline
90
2
70
0
43
0
10
612.889438
20
32.11637
10
612.753153
20
33.151645
0
LWPOLYLINE
5
214
100
AcDbEntity
8
Frame
6
ByLayer
62
7
370
-1
100
AcDbPolyline
90
2
70
0
43
0
10
644.686033
20
25.151633
10
644.686033
20
45.946077
0
LWPOLYLINE
5
215
100
AcDbEntity
8
Frame
6
ByLayer
62
7
370
-1
100
AcDbPolyline
90
2
70
0
43
0
10
543.02483
20
48.901564
10
541.886024
20
48.751648
0
LWPOLYLINE
5
216
100
AcDbEntity
8
Frame
6
ByLayer
62
7
370
-1
100
AcDbPolyline
90
2
70
0
43
0
10
412.098779
20
391.215304
10
562.898767
20
391.215304
0
LWPOLYLINE
5
217
100
AcDbEntity
8
Frame
6
ByLayer
62
7
370
-1
100
AcDbPolyline
90
2
70
0
43
0
10
442.860072
20
380.386889
10
442.031645
20
379.751212
0
LWPOLYLINE
5
218
100
AcDbEntity
8
Frame
6
ByLayer
62
7
370
-1
100
AcDbPolyline
90
2
70
0
43
0
10
443.495746
20
381.215324
10
442.860072
20
380.386889
0
LWPOLYLINE
5
219
100
AcDbEntity
8
Frame
6
ByLayer
62
7
370
-1
100
AcDbPolyline
90
2
70
0
43
0
10
91.956777
20
201.651633
10
92.345002
20
201.702743
0
LWPOLYLINE
5
21A
100
AcDbEntity
8
Frame
6
ByLayer
62
7
370
-1
100
AcDbPolyline
90
2
70
0
43
0
10
96.956767
20
321.151634
10
96.956767
20
301.151646
0
LWPOLYLINE
5
21B
100
AcDbEntity
8
Frame
6
ByLayer
62
7
370
-1
100
AcDbPolyline
90
2
70
0
43
0
10
286.956751
20
225.151656
10
276.956751
20
215.151648
0
LWPOLYLINE
5
21C
100
AcDbEntity
8
Frame
6
ByLayer
62
7
370
-1
100
AcDbPolyline
90
2
70
0
43
0
10
106.956775
20
285.158677
10
106.956775
20
262.158694
0
LWPOLYLINE
5
21D
100
AcDbEntity
8
Frame
6
ByLayer
62
7
370
-1
100
AcDbPolyline
90
2
70
0
43
0
10
110.456754
20
273.151645
10
110.507865
20
272.76342
0
LWPOLYLINE
5
21E
100
AcDbEntity
8
Frame
6
ByLayer
62
7
370
-1
100
AcDbPolyline
90
3
70
0
43
0
10
111.20676
20
271.852604
10
111.56854
20
271.702744
10
111.956765
20
271.651634
0
LWPOLYLINE
5
21F
100
AcDbEntity
8
Frame
6
ByLayer
62
7
370
-1
100
AcDbPolyline
90
2
70
0
43
0
10
99.921483
20
219.015355
10
99.426042
20
218.847179
0
LWPOLYLINE
5
220
100
AcDbEntity
8
Frame
6
ByLayer
62
7
370
-1
100
AcDbPolyline
90
2
70
0
43
0
10
102.956755
20
258.158674
10
100.956759
20
258.158674
0
LWPOLYLINE
5
221
100
AcDbEntity
8
Frame
6
ByLayer
62
7
370
-1
100
AcDbPolyline
90
2
70
0
43
0
10
99.921483
20
289.022384
10
99.426042
20
288.854207
0
LWPOLYLINE
5
222
100
AcDbEntity
8
Frame
6
ByLayer
62
7
370
-1
100
AcDbPolyline
90
2
70
0
43
0
10
99.426042
20
218.847179
10
98.956763
20
218.615757
0
LWPOLYLINE
5
223
100
AcDbEntity
8
Frame
6
ByLayer
62
7
370
-1
100
AcDbPolyline
90
2
70
0
43
0
10
98.521718
20
218.325068
10
98.128328
20
217.980079
0
LWPOLYLINE
5
224
100
AcDbEntity
8
Frame
6
ByLayer
62
7
370
-1
100
AcDbPolyline
90
2
70
0
43
0
10
98.956763
20
218.615757
10
98.521718
20
218.325068
0
LWPOLYLINE
5
225
100
AcDbEntity
8
Frame
6
ByLayer
62
7
370
-1
100
AcDbPolyline
90
2
70
0
43
0
10
83.956765
20
128.151625
10
108.956771
20
153.151631
0
LWPOLYLINE
5
226
100
AcDbEntity
8
Frame
6
ByLayer
62
7
370
-1
100
AcDbPolyline
90
2
70
0
43
0
10
100.956759
20
289.158669
10
100.434648
20
289.124463
0
LWPOLYLINE
5
227
100
AcDbEntity
8
Frame
6
ByLayer
62
7
370
-1
100
AcDbPolyline
90
2
70
0
43
0
10
104.4875
20
258.463164
10
104.956751
20
258.694586
0
LWPOLYLINE
5
228
100
AcDbEntity
8
Frame
6
ByLayer
62
7
370
-1
100
AcDbPolyline
90
2
70
0
43
0
10
86.956759
20
185.151624
10
96.956767
20
175.151644
0
LWPOLYLINE
5
229
100
AcDbEntity
8
Frame
6
ByLayer
62
7
370
-1
100
AcDbPolyline
90
2
70
0
43
0
10
96.956767
20
301.151646
10
86.956759
20
291.151637
0
LWPOLYLINE
5
22A
100
AcDbEntity
8
Frame
6
ByLayer
62
7
370
-1
100
AcDbPolyline
90
2
70
0
43
0
10
110.657725
20
203.901621
10
110.507865
20
203.539869
0
LWPOLYLINE
5
22B
100
AcDbEntity
8
Frame
6
ByLayer
62
7
370
-1
100
AcDbPolyline
90
2
70
0
43
0
10
76.956779
20
135.151639
10
76.956779
20
131.151647
0
LWPOLYLINE
5
22C
100
AcDbEntity
8
Frame
6
ByLayer
62
7
370
-1
100
AcDbPolyline
90
2
70
0
43
0
10
118.956751
20
313.15165
10
254.956753
20
313.15165
0
LWPOLYLINE
5
22D
100
AcDbEntity
8
Frame
6
ByLayer
62
7
370
-1
100
AcDbPolyline
90
2
70
0
43
0
10
97.78334
20
217.58669
10
97.492651
20
217.151644
0
LWPOLYLINE
5
22E
100
AcDbEntity
8
Frame
6
ByLayer
62
7
370
-1
100
AcDbPolyline
90
2
70
0
43
0
10
98.128328
20
217.980079
10
97.78334
20
217.58669
0
LWPOLYLINE
5
22F
100
AcDbEntity
8
Frame
6
ByLayer
62
7
370
-1
100
AcDbPolyline
90
2
70
0
43
0
10
260.657715
20
237.401653
10
260.896092
20
237.090983
0
LWPOLYLINE
5
230
100
AcDbEntity
8
Frame
6
ByLayer
62
7
370
-1
100
AcDbPolyline
90
2
70
0
43
0
10
76.956779
20
343.151646
10
76.956779
20
341.15165
0
LWPOLYLINE
5
231
100
AcDbEntity
8
Frame
6
ByLayer
62
7
370
-1
100
AcDbPolyline
90
2
70
0
43
0
10
267.093048
20
224.979247
10
267.261233
20
224.483806
0
LWPOLYLINE
5
232
100
AcDbEntity
8
Frame
6
ByLayer
62
7
370
-1
100
AcDbPolyline
90
2
70
0
43
0
10
260.507864
20
237.763434
10
260.657715
20
237.401653
0
LWPOLYLINE
5
233
100
AcDbEntity
8
Frame
6
ByLayer
62
7
370
-1
100
AcDbPolyline
90
2
70
0
43
0
10
266.990974
20
225.492412
10
267.093048
20
224.979247
0
LWPOLYLINE
5
234
100
AcDbEntity
8
Frame
6
ByLayer
62
7
370
-1
100
AcDbPolyline
90
2
70
0
43
0
10
262.706753
20
239.450699
10
262.344981
20
239.600531
0
LWPOLYLINE
5
235
100
AcDbEntity
8
Frame
6
ByLayer
62
7
370
-1
100
AcDbPolyline
90
2
70
0
43
0
10
104.4875
20
288.854207
10
103.992031
20
289.022384
0
LWPOLYLINE
5
236
100
AcDbEntity
8
Frame
6
ByLayer
62
7
370
-1
100
AcDbPolyline
90
3
70
0
43
0
10
110.456754
20
203.151616
10
110.507865
20
202.763391
10
110.657725
20
202.401638
0
LWPOLYLINE
5
237
100
AcDbEntity
8
Frame
6
ByLayer
62
7
370
-1
100
AcDbPolyline
90
2
70
0
43
0
10
93.017425
20
202.090968
10
93.25579
20
202.401638
0
LWPOLYLINE
5
238
100
AcDbEntity
8
Frame
6
ByLayer
62
7
370
-1
100
AcDbPolyline
90
2
70
0
43
0
10
106.130175
20
217.58669
10
105.785186
20
217.980079
0
LWPOLYLINE
5
239
100
AcDbEntity
8
Frame
6
ByLayer
62
7
370
-1
100
AcDbPolyline
90
3
70
0
43
0
10
113.405638
20
273.53987
10
113.255806
20
273.901651
10
113.017413
20
274.212321
0
LWPOLYLINE
5
23A
100
AcDbEntity
8
Frame
6
ByLayer
62
7
370
-1
100
AcDbPolyline
90
2
70
0
43
0
10
269.426018
20
222.31902
10
269.921476
20
222.150816
0
LWPOLYLINE
5
23B
100
AcDbEntity
8
Frame
6
ByLayer
62
7
370
-1
100
AcDbPolyline
90
2
70
0
43
0
10
93.25579
20
273.901651
10
93.017425
20
274.212321
0
LWPOLYLINE
5
23C
100
AcDbEntity
8
Frame
6
ByLayer
62
7
370
-1
100
AcDbPolyline
90
3
70
0
43
0
10
91.956777
20
271.651634
10
92.345002
20
271.702744
10
92.706754
20
271.852604
0
LWPOLYLINE
5
23D
100
AcDbEntity
8
Frame
6
ByLayer
62
7
370
-1
100
AcDbPolyline
90
4
70
0
43
0
10
110.89609
20
274.212321
10
110.657725
20
273.901651
10
110.507865
20
273.53987
10
110.456754
20
273.151645
0
LWPOLYLINE
5
23E
100
AcDbEntity
8
Frame
6
ByLayer
62
7
370
-1
100
AcDbPolyline
90
2
70
0
43
0
10
113.255806
20
202.401638
10
113.405638
20
202.763391
0
LWPOLYLINE
5
23F
100
AcDbEntity
8
Frame
6
ByLayer
62
7
370
-1
100
AcDbPolyline
90
5
70
0
43
0
10
97.261257
20
260.627949
10
97.492651
20
260.158698
10
97.78334
20
259.723625
10
98.128328
20
259.330263
10
98.521718
20
258.985275
0
LWPOLYLINE
5
240
100
AcDbEntity
8
Frame
6
ByLayer
62
7
370
-1
100
AcDbPolyline
90
2
70
0
43
0
10
76.956779
20
135.151639
10
96.956767
20
155.151627
0
LWPOLYLINE
5
241
100
AcDbEntity
8
Frame
6
ByLayer
62
7
370
-1
100
AcDbPolyline
90
3
70
0
43
0
10
263.017412
20
237.090983
10
263.255791
20
237.401653
10
263.40564
20
237.763434
0
LWPOLYLINE
5
242
100
AcDbEntity
8
Frame
6
ByLayer
62
7
370
-1
100
AcDbPolyline
90
3
70
0
43
0
10
113.017413
20
272.090998
10
113.255806
20
272.40164
10
113.405638
20
272.76342
0
LWPOLYLINE
5
243
100
AcDbEntity
8
Frame
6
ByLayer
62
7
370
-1
100
AcDbPolyline
90
2
70
0
43
0
10
273.992027
20
222.150816
10
274.487485
20
222.31902
0
LWPOLYLINE
5
244
100
AcDbEntity
8
Frame
6
ByLayer
62
7
370
-1
100
AcDbPolyline
90
2
70
0
43
0
10
273.478856
20
222.048764
10
273.992027
20
222.150816
0
LWPOLYLINE
5
245
100
AcDbEntity
8
Frame
6
ByLayer
62
7
370
-1
100
AcDbPolyline
90
2
70
0
43
0
10
272.956751
20
222.014531
10
273.478856
20
222.048764
0
LWPOLYLINE
5
246
100
AcDbEntity
8
Frame
6
ByLayer
62
7
370
-1
100
AcDbPolyline
90
2
70
0
43
0
10
111.956765
20
201.651633
10
112.34499
20
201.702743
0
LWPOLYLINE
5
247
100
AcDbEntity
8
Frame
6
ByLayer
62
7
370
-1
100
AcDbPolyline
90
2
70
0
43
0
10
166.95676
20
243.151649
10
166.95676
20
233.15164
0
LWPOLYLINE
5
248
100
AcDbEntity
8
Frame
6
ByLayer
62
7
370
-1
100
AcDbPolyline
90
2
70
0
43
0
10
261.956753
20
239.651642
10
261.568523
20
239.600531
0
LWPOLYLINE
5
249
100
AcDbEntity
8
Frame
6
ByLayer
62
7
370
-1
100
AcDbPolyline
90
2
70
0
43
0
10
96.956767
20
243.151649
10
96.956767
20
233.15164
0
LWPOLYLINE
5
24A
100
AcDbEntity
8
Frame
6
ByLayer
62
7
370
-1
100
AcDbPolyline
90
2
70
0
43
0
10
280.657712
20
237.401653
10
280.896091
20
237.090983
0
LWPOLYLINE
5
24B
100
AcDbEntity
8
Frame
6
ByLayer
62
7
370
-1
100
AcDbPolyline
90
2
70
0
43
0
10
91.206772
20
201.852603
10
91.568524
20
201.702743
0
LWPOLYLINE
5
24C
100
AcDbEntity
8
Frame
6
ByLayer
62
7
370
-1
100
AcDbPolyline
90
2
70
0
43
0
10
111.56854
20
201.702743
10
111.956765
20
201.651633
0
LWPOLYLINE
5
24D
100
AcDbEntity
8
Frame
6
ByLayer
62
7
370
-1
100
AcDbPolyline
90
2
70
0
43
0
10
96.956767
20
262.158694
10
96.956767
20
285.158677
0
LWPOLYLINE
5
24E
100
AcDbEntity
8
Frame
6
ByLayer
62
7
370
-1
100
AcDbPolyline
90
2
70
0
43
0
10
289.956751
20
128.151625
10
292.027102
20
128.151625
0
LWPOLYLINE
5
24F
100
AcDbEntity
8
Frame
6
ByLayer
62
7
370
-1
100
AcDbPolyline
90
2
70
0
43
0
10
91.568524
20
271.702744
10
91.956777
20
271.651634
0
LWPOLYLINE
5
250
100
AcDbEntity
8
Frame
6
ByLayer
62
7
370
-1
100
AcDbPolyline
90
2
70
0
43
0
10
98.956763
20
258.694586
10
99.426042
20
258.463164
0
LWPOLYLINE
5
251
100
AcDbEntity
8
Frame
6
ByLayer
62
7
370
-1
100
AcDbPolyline
90
2
70
0
43
0
10
98.521718
20
258.985275
10
98.956763
20
258.694586
0
LWPOLYLINE
5
252
100
AcDbEntity
8
Frame
6
ByLayer
62
7
370
-1
100
AcDbPolyline
90
2
70
0
43
0
10
97.093052
20
261.123419
10
97.261257
20
260.627949
0
LWPOLYLINE
5
253
100
AcDbEntity
8
Frame
6
ByLayer
62
7
370
-1
100
AcDbPolyline
90
2
70
0
43
0
10
96.956767
20
262.158694
10
96.990972
20
261.636583
0
LWPOLYLINE
5
254
100
AcDbEntity
8
Frame
6
ByLayer
62
7
370
-1
100
AcDbPolyline
90
2
70
0
43
0
10
103.478866
20
289.124463
10
102.956755
20
289.158669
0
LWPOLYLINE
5
255
100
AcDbEntity
8
Frame
6
ByLayer
62
7
370
-1
100
AcDbPolyline
90
2
70
0
43
0
10
103.992031
20
289.022384
10
103.478866
20
289.124463
0
LWPOLYLINE
5
256
100
AcDbEntity
8
Frame
6
ByLayer
62
7
370
-1
100
AcDbPolyline
90
2
70
0
43
0
10
105.391797
20
288.332096
10
104.956751
20
288.622785
0
LWPOLYLINE
5
257
100
AcDbEntity
8
Frame
6
ByLayer
62
7
370
-1
100
AcDbPolyline
90
2
70
0
43
0
10
105.785186
20
287.987108
10
105.391797
20
288.332096
0
LWPOLYLINE
5
258
100
AcDbEntity
8
Frame
6
ByLayer
62
7
370
-1
100
AcDbPolyline
90
2
70
0
43
0
10
106.420864
20
287.158673
10
106.130175
20
287.593718
0
LWPOLYLINE
5
259
100
AcDbEntity
8
Frame
6
ByLayer
62
7
370
-1
100
AcDbPolyline
90
3
70
0
43
0
10
93.25579
20
202.401638
10
93.40565
20
202.763391
10
93.45676
20
203.151616
0
LWPOLYLINE
5
25A
100
AcDbEntity
8
Frame
6
ByLayer
62
7
370
-1
100
AcDbPolyline
90
2
70
0
43
0
10
103.992031
20
188.287931
10
104.4875
20
188.456107
0
LWPOLYLINE
5
25B
100
AcDbEntity
8
Frame
6
ByLayer
62
7
370
-1
100
AcDbPolyline
90
2
70
0
43
0
10
293.956748
20
128.151625
10
296.956751
20
131.151647
0
LWPOLYLINE
5
25C
100
AcDbEntity
8
Frame
6
ByLayer
62
7
370
-1
100
AcDbPolyline
90
4
70
0
43
0
10
106.652286
20
190.620893
10
106.820462
20
191.116362
10
106.922542
20
191.629527
10
106.956775
20
192.151638
0
LWPOLYLINE
5
25D
100
AcDbEntity
8
Frame
6
ByLayer
62
7
370
-1
100
AcDbPolyline
90
2
70
0
43
0
10
112.706771
20
274.450686
10
112.34499
20
274.600546
0
LWPOLYLINE
5
25E
100
AcDbEntity
8
Frame
6
ByLayer
62
7
370
-1
100
AcDbPolyline
90
2
70
0
43
0
10
281.95675
20
236.651648
10
282.34498
20
236.702758
0
LWPOLYLINE
5
25F
100
AcDbEntity
8
Frame
6
ByLayer
62
7
370
-1
100
AcDbPolyline
90
2
70
0
43
0
10
108.956771
20
323.15163
10
264.956753
20
323.15163
0
LWPOLYLINE
5
260
100
AcDbEntity
8
Frame
6
ByLayer
62
7
370
-1
100
AcDbPolyline
90
2
70
0
43
0
10
110.89609
20
272.090998
10
111.20676
20
271.852604
0
LWPOLYLINE
5
261
100
AcDbEntity
8
Frame
6
ByLayer
62
7
370
-1
100
AcDbPolyline
90
3
70
0
43
0
10
91.956777
20
204.651627
10
91.568524
20
204.600516
10
91.206772
20
204.450656
0
LWPOLYLINE
5
262
100
AcDbEntity
8
Frame
6
ByLayer
62
7
370
-1
100
AcDbPolyline
90
4
70
0
43
0
10
104.4875
20
188.456107
10
104.956751
20
188.687529
10
105.391797
20
188.978218
10
105.785186
20
189.323207
0
LWPOLYLINE
5
263
100
AcDbEntity
8
Frame
6
ByLayer
62
7
370
-1
100
AcDbPolyline
90
2
70
0
43
0
10
283.255788
20
237.401653
10
283.308329
20
237.528484
0
LWPOLYLINE
5
264
100
AcDbEntity
8
Frame
6
ByLayer
62
7
370
-1
100
AcDbPolyline
90
2
70
0
43
0
10
283.405639
20
237.763434
10
283.45675
20
238.151659
0
LWPOLYLINE
5
265
100
AcDbEntity
8
Frame
6
ByLayer
62
7
370
-1
100
AcDbPolyline
90
2
70
0
43
0
10
263.456753
20
238.151659
10
263.40564
20
238.539884
0
LWPOLYLINE
5
266
100
AcDbEntity
8
Frame
6
ByLayer
62
7
370
-1
100
AcDbPolyline
90
3
70
0
43
0
10
90.456766
20
273.151645
10
90.507876
20
272.76342
10
90.657736
20
272.40164
0
LWPOLYLINE
5
267
100
AcDbEntity
8
Frame
6
ByLayer
62
7
370
-1
100
AcDbPolyline
90
2
70
0
43
0
10
106.956775
20
233.15164
10
106.956775
20
243.151649
0
LWPOLYLINE
5
268
100
AcDbEntity
8
Frame
6
ByLayer
62
7
370
-1
100
AcDbPolyline
90
2
70
0
43
0
10
280.507863
20
237.763434
10
280.657712
20
237.401653
0
LWPOLYLINE
5
269
100
AcDbEntity
8
Frame
6
ByLayer
62
7
370
-1
100
AcDbPolyline
90
2
70
0
43
0
10
96.956767
20
233.15164
10
86.956759
20
223.15166
0
LWPOLYLINE
5
26A
100
AcDbEntity
8
Frame
6
ByLayer
62
7
370
-1
100
AcDbPolyline
90
2
70
0
43
0
10
91.568524
20
201.702743
10
91.956777
20
201.651633
0
LWPOLYLINE
5
26B
100
AcDbEntity
8
Frame
6
ByLayer
62
7
370
-1
100
AcDbPolyline
90
3
70
0
43
0
10
269.921476
20
222.150816
10
270.434647
20
222.048764
10
270.956752
20
222.014531
0
LWPOLYLINE
5
26C
100
AcDbEntity
8
Frame
6
ByLayer
62
7
370
-1
100
AcDbPolyline
90
2
70
0
43
0
10
272.956751
20
222.014531
10
270.956752
20
222.014531
0
LWPOLYLINE
5
26D
100
AcDbEntity
8
Frame
6
ByLayer
62
7
370
-1
100
AcDbPolyline
90
4
70
0
43
0
10
105.785186
20
189.323207
10
106.130175
20
189.716596
10
106.420864
20
190.151642
10
106.652286
20
190.620893
0
LWPOLYLINE
5
26E
100
AcDbEntity
8
Frame
6
ByLayer
62
7
370
-1
100
AcDbPolyline
90
2
70
0
43
0
10
146.95676
20
263.151637
10
166.95676
20
243.151649
0
LWPOLYLINE
5
26F
100
AcDbEntity
8
Frame
6
ByLayer
62
7
370
-1
100
AcDbPolyline
90
2
70
0
43
0
10
97.093052
20
191.116362
10
97.261257
20
190.620893
0
LWPOLYLINE
5
270
100
AcDbEntity
8
Frame
6
ByLayer
62
7
370
-1
100
AcDbPolyline
90
2
70
0
43
0
10
267.783338
20
223.579481
10
268.128324
20
223.186092
0
LWPOLYLINE
5
271
100
AcDbEntity
8
Frame
6
ByLayer
62
7
370
-1
100
AcDbPolyline
90
2
70
0
43
0
10
86.956759
20
253.151657
10
96.956767
20
243.151649
0
LWPOLYLINE
5
272
100
AcDbEntity
8
Frame
6
ByLayer
62
7
370
-1
100
AcDbPolyline
90
4
70
0
43
0
10
104.4875
20
218.847179
10
103.992031
20
219.015355
10
103.478866
20
219.117435
10
102.956755
20
219.151668
0
LWPOLYLINE
5
273
100
AcDbEntity
8
Frame
6
ByLayer
62
7
370
-1
100
AcDbPolyline
90
2
70
0
43
0
10
76.956779
20
345.151642
10
76.956779
20
343.151646
0
LWPOLYLINE
5
274
100
AcDbEntity
8
Frame
6
ByLayer
62
7
370
-1
100
AcDbPolyline
90
2
70
0
43
0
10
76.956779
20
131.151647
10
79.956773
20
128.151625
0
LWPOLYLINE
5
275
100
AcDbEntity
8
Frame
6
ByLayer
62
7
370
-1
100
AcDbPolyline
90
2
70
0
43
0
10
266.956752
20
226.014523
10
266.990974
20
225.492412
0
LWPOLYLINE
5
276
100
AcDbEntity
8
Frame
6
ByLayer
62
7
370
-1
100
AcDbPolyline
90
2
70
0
43
0
10
90.456766
20
203.151616
10
90.507876
20
202.763391
0
LWPOLYLINE
5
277
100
AcDbEntity
8
Frame
6
ByLayer
62
7
370
-1
100
AcDbPolyline
90
3
70
0
43
0
10
100.956759
20
219.151668
10
100.434648
20
219.117435
10
99.921483
20
219.015355
0
LWPOLYLINE
5
278
100
AcDbEntity
8
Frame
6
ByLayer
62
7
370
-1
100
AcDbPolyline
90
2
70
0
43
0
10
112.706771
20
271.852604
10
113.017413
20
272.090998
0
LWPOLYLINE
5
279
100
AcDbEntity
8
Frame
6
ByLayer
62
7
370
-1
100
AcDbPolyline
90
2
70
0
43
0
10
96.956767
20
192.151638
10
96.956767
20
215.151648
0
LWPOLYLINE
5
27A
100
AcDbEntity
8
Frame
6
ByLayer
62
7
370
-1
100
AcDbPolyline
90
3
70
0
43
0
10
96.956767
20
192.151638
10
96.990972
20
191.629527
10
97.093052
20
191.116362
0
LWPOLYLINE
5
27B
100
AcDbEntity
8
Frame
6
ByLayer
62
7
370
-1
100
AcDbPolyline
90
2
70
0
43
0
10
276.956751
20
215.151648
10
256.956752
20
195.151632
0
LWPOLYLINE
5
27C
100
AcDbEntity
8
Frame
6
ByLayer
62
7
370
-1
100
AcDbPolyline
90
2
70
0
43
0
10
283.45675
20
238.151659
10
283.405639
20
238.539884
0
LWPOLYLINE
5
27D
100
AcDbEntity
8
Frame
6
ByLayer
62
7
370
-1
100
AcDbPolyline
90
2
70
0
43
0
10
296.956751
20
345.151642
10
293.956748
20
348.151636
0
LWPOLYLINE
5
27E
100
AcDbEntity
8
Frame
6
ByLayer
62
7
370
-1
100
AcDbPolyline
90
2
70
0
43
0
10
86.956759
20
291.151637
10
86.956759
20
253.151657
0
LWPOLYLINE
5
27F
100
AcDbEntity
8
Frame
6
ByLayer
62
7
370
-1
100
AcDbPolyline
90
3
70
0
43
0
10
92.345002
20
274.600546
10
91.956777
20
274.651656
10
91.568524
20
274.600546
0
LWPOLYLINE
5
280
100
AcDbEntity
8
Frame
6
ByLayer
62
7
370
-1
100
AcDbPolyline
90
2
70
0
43
0
10
102.956755
20
188.151618
10
103.478866
20
188.185851
0
LWPOLYLINE
5
281
100
AcDbEntity
8
Frame
6
ByLayer
62
7
370
-1
100
AcDbPolyline
90
3
70
0
43
0
10
99.921483
20
188.287931
10
100.434648
20
188.185851
10
100.956759
20
188.151618
0
LWPOLYLINE
5
282
100
AcDbEntity
8
Frame
6
ByLayer
62
7
370
-1
100
AcDbPolyline
90
2
70
0
43
0
10
296.956751
20
135.151639
10
276.956751
20
155.151627
0
LWPOLYLINE
5
283
100
AcDbEntity
8
Frame
6
ByLayer
62
7
370
-1
100
AcDbPolyline
90
2
70
0
43
0
10
111.20676
20
201.852603
10
111.56854
20
201.702743
0
LWPOLYLINE
5
284
100
AcDbEntity
8
Frame
6
ByLayer
62
7
370
-1
100
AcDbPolyline
90
3
70
0
43
0
10
276.956751
20
155.151627
10
256.956752
20
175.151644
10
256.956752
20
195.151632
0
LWPOLYLINE
5
285
100
AcDbEntity
8
Frame
6
ByLayer
62
7
370
-1
100
AcDbPolyline
90
2
70
0
43
0
10
276.922532
20
249.536616
10
276.820455
20
250.049809
0
LWPOLYLINE
5
286
100
AcDbEntity
8
Frame
6
ByLayer
62
7
370
-1
100
AcDbPolyline
90
2
70
0
43
0
10
276.956751
20
249.014533
10
276.922532
20
249.536616
0
LWPOLYLINE
5
287
100
AcDbEntity
8
Frame
6
ByLayer
62
7
370
-1
100
AcDbPolyline
90
2
70
0
43
0
10
104.956751
20
218.615757
10
104.4875
20
218.847179
0
LWPOLYLINE
5
288
100
AcDbEntity
8
Frame
6
ByLayer
62
7
370
-1
100
AcDbPolyline
90
2
70
0
43
0
10
105.391797
20
218.325068
10
104.956751
20
218.615757
0
LWPOLYLINE
5
289
100
AcDbEntity
8
Frame
6
ByLayer
62
7
370
-1
100
AcDbPolyline
90
2
70
0
43
0
10
105.785186
20
217.980079
10
105.391797
20
218.325068
0
LWPOLYLINE
5
28A
100
AcDbEntity
8
Frame
6
ByLayer
62
7
370
-1
100
AcDbPolyline
90
2
70
0
43
0
10
113.405638
20
203.539869
10
113.255806
20
203.901621
0
LWPOLYLINE
5
28B
100
AcDbEntity
8
Frame
6
ByLayer
62
7
370
-1
100
AcDbPolyline
90
2
70
0
43
0
10
289.956751
20
348.151636
10
266.956752
20
325.151654
0
LWPOLYLINE
5
28C
100
AcDbEntity
8
Frame
6
ByLayer
62
7
370
-1
100
AcDbPolyline
90
4
70
0
43
0
10
93.017425
20
204.212292
10
92.706754
20
204.450656
10
92.345002
20
204.600516
10
91.956777
20
204.651627
0
LWPOLYLINE
5
28D
100
AcDbEntity
8
Frame
6
ByLayer
62
7
370
-1
100
AcDbPolyline
90
2
70
0
43
0
10
113.405638
20
272.76342
10
113.456776
20
273.151645
0
LWPOLYLINE
5
28E
100
AcDbEntity
8
Frame
6
ByLayer
62
7
370
-1
100
AcDbPolyline
90
2
70
0
43
0
10
93.45676
20
203.151616
10
93.40565
20
203.539869
0
LWPOLYLINE
5
28F
100
AcDbEntity
8
Frame
6
ByLayer
62
7
370
-1
100
AcDbPolyline
90
2
70
0
43
0
10
146.95676
20
213.151652
10
126.956764
20
213.151652
0
LWPOLYLINE
5
290
100
AcDbEntity
8
Frame
6
ByLayer
62
7
370
-1
100
AcDbPolyline
90
2
70
0
43
0
10
110.507865
20
203.539869
10
110.456754
20
203.151616
0
LWPOLYLINE
5
291
100
AcDbEntity
8
Frame
6
ByLayer
62
7
370
-1
100
AcDbPolyline
90
2
70
0
43
0
10
92.706754
20
201.852603
10
93.017425
20
202.090968
0
LWPOLYLINE
5
292
100
AcDbEntity
8
Frame
6
ByLayer
62
7
370
-1
100
AcDbPolyline
90
2
70
0
43
0
10
79.956773
20
348.151636
10
76.956779
20
345.151642
0
LWPOLYLINE
5
293
100
AcDbEntity
8
Frame
6
ByLayer
62
7
370
-1
100
AcDbPolyline
90
2
70
0
43
0
10
293.956748
20
348.151636
10
289.956751
20
348.151636
0
LWPOLYLINE
5
294
100
AcDbEntity
8
Frame
6
ByLayer
62
7
370
-1
100
AcDbPolyline
90
2
70
0
43
0
10
81.956769
20
348.151636
10
82.027127
20
348.151636
0
LWPOLYLINE
5
295
100
AcDbEntity
8
Frame
6
ByLayer
62
7
370
-1
100
AcDbPolyline
90
2
70
0
43
0
10
90.896101
20
202.090968
10
91.206772
20
201.852603
0
LWPOLYLINE
5
296
100
AcDbEntity
8
Frame
6
ByLayer
62
7
370
-1
100
AcDbPolyline
90
4
70
0
43
0
10
112.34499
20
201.702743
10
112.706771
20
201.852603
10
113.017413
20
202.090968
10
113.255806
20
202.401638
0
LWPOLYLINE
5
297
100
AcDbEntity
8
Frame
6
ByLayer
62
7
370
-1
100
AcDbPolyline
90
2
70
0
43
0
10
83.956765
20
128.151625
10
82.027127
20
128.151625
0
LWPOLYLINE
5
298
100
AcDbEntity
8
Frame
6
ByLayer
62
7
370
-1
100
AcDbPolyline
90
2
70
0
43
0
10
263.40564
20
238.539884
10
263.255791
20
238.901636
0
LWPOLYLINE
5
299
100
AcDbEntity
8
Frame
6
ByLayer
62
7
370
-1
100
AcDbPolyline
90
2
70
0
43
0
10
296.956751
20
341.15165
10
256.956752
20
301.151646
0
LWPOLYLINE
5
29A
100
AcDbEntity
8
Frame
6
ByLayer
62
7
370
-1
100
AcDbPolyline
90
2
70
0
43
0
10
268.128324
20
251.842964
10
267.783338
20
251.449575
0
LWPOLYLINE
5
29B
100
AcDbEntity
8
Frame
6
ByLayer
62
7
370
-1
100
AcDbPolyline
90
2
70
0
43
0
10
268.521705
20
252.187924
10
268.128324
20
251.842964
0
LWPOLYLINE
5
29C
100
AcDbEntity
8
Frame
6
ByLayer
62
7
370
-1
100
AcDbPolyline
90
2
70
0
43
0
10
269.426018
20
252.710036
10
268.95675
20
252.478613
0
LWPOLYLINE
5
29D
100
AcDbEntity
8
Frame
6
ByLayer
62
7
370
-1
100
AcDbPolyline
90
2
70
0
43
0
10
269.921476
20
252.87824
10
269.426018
20
252.710036
0
LWPOLYLINE
5
29E
100
AcDbEntity
8
Frame
6
ByLayer
62
7
370
-1
100
AcDbPolyline
90
2
70
0
43
0
10
275.391798
20
222.841131
10
275.785179
20
223.186092
0
LWPOLYLINE
5
29F
100
AcDbEntity
8
Frame
6
ByLayer
62
7
370
-1
100
AcDbPolyline
90
3
70
0
43
0
10
106.652286
20
216.682393
10
106.420864
20
217.151644
10
106.130175
20
217.58669
0
LWPOLYLINE
5
2A0
100
AcDbEntity
8
Frame
6
ByLayer
62
7
370
-1
100
AcDbPolyline
90
2
70
0
43
0
10
296.956751
20
135.151639
10
296.956751
20
131.151647
0
LWPOLYLINE
5
2A1
100
AcDbEntity
8
Frame
6
ByLayer
62
7
370
-1
100
AcDbPolyline
90
2
70
0
43
0
10
96.956767
20
155.151627
10
96.956767
20
175.151644
0
LWPOLYLINE
5
2A2
100
AcDbEntity
8
Frame
6
ByLayer
62
7
370
-1
100
AcDbPolyline
90
2
70
0
43
0
10
110.89609
20
202.090968
10
111.20676
20
201.852603
0
LWPOLYLINE
5
2A3
100
AcDbEntity
8
Frame
6
ByLayer
62
7
370
-1
100
AcDbPolyline
90
2
70
0
43
0
10
81.956769
20
348.151636
10
79.956773
20
348.151636
0
LWPOLYLINE
5
2A4
100
AcDbEntity
8
Frame
6
ByLayer
62
7
370
-1
100
AcDbPolyline
90
2
70
0
43
0
10
256.956752
20
281.151657
10
256.956752
20
301.151646
0
LWPOLYLINE
5
2A5
100
AcDbEntity
8
Frame
6
ByLayer
62
7
370
-1
100
AcDbPolyline
90
2
70
0
43
0
10
276.956751
20
261.151641
10
256.956752
20
281.151657
0
LWPOLYLINE
5
2A6
100
AcDbEntity
8
Frame
6
ByLayer
62
7
370
-1
100
AcDbPolyline
90
2
70
0
43
0
10
113.456776
20
203.151616
10
113.405638
20
203.539869
0
LWPOLYLINE
5
2A7
100
AcDbEntity
8
Frame
6
ByLayer
62
7
370
-1
100
AcDbPolyline
90
2
70
0
43
0
10
113.017413
20
204.212292
10
112.706771
20
204.450656
0
LWPOLYLINE
5
2A8
100
AcDbEntity
8
Frame
6
ByLayer
62
7
370
-1
100
AcDbPolyline
90
2
70
0
43
0
10
276.922532
20
225.492412
10
276.956751
20
226.014523
0
LWPOLYLINE
5
2A9
100
AcDbEntity
8
Frame
6
ByLayer
62
7
370
-1
100
AcDbPolyline
90
2
70
0
43
0
10
112.34499
20
204.600516
10
111.956765
20
204.651627
0
LWPOLYLINE
5
2AA
100
AcDbEntity
8
Frame
6
ByLayer
62
7
370
-1
100
AcDbPolyline
90
2
70
0
43
0
10
92.706754
20
271.852604
10
93.017425
20
272.090998
0
LWPOLYLINE
5
2AB
100
AcDbEntity
8
Frame
6
ByLayer
62
7
370
-1
100
AcDbPolyline
90
2
70
0
43
0
10
276.956751
20
249.014533
10
276.956751
20
226.014523
0
LWPOLYLINE
5
2AC
100
AcDbEntity
8
Frame
6
ByLayer
62
7
370
-1
100
AcDbPolyline
90
2
70
0
43
0
10
273.478856
20
252.980292
10
272.956751
20
253.014525
0
LWPOLYLINE
5
2AD
100
AcDbEntity
8
Frame
6
ByLayer
62
7
370
-1
100
AcDbPolyline
90
2
70
0
43
0
10
273.992027
20
252.87824
10
273.478856
20
252.980292
0
LWPOLYLINE
5
2AE
100
AcDbEntity
8
Frame
6
ByLayer
62
7
370
-1
100
AcDbPolyline
90
2
70
0
43
0
10
280.657712
20
238.901636
10
280.507863
20
238.539884
0
LWPOLYLINE
5
2AF
100
AcDbEntity
8
Frame
6
ByLayer
62
7
370
-1
100
AcDbPolyline
90
2
70
0
43
0
10
280.896091
20
239.212306
10
280.657712
20
238.901636
0
LWPOLYLINE
5
2B0
100
AcDbEntity
8
Frame
6
ByLayer
62
7
370
-1
100
AcDbPolyline
90
2
70
0
43
0
10
108.956771
20
153.151631
10
264.956753
20
153.151631
0
LWPOLYLINE
5
2B1
100
AcDbEntity
8
Frame
6
ByLayer
62
7
370
-1
100
AcDbPolyline
90
4
70
0
43
0
10
97.261257
20
216.682393
10
97.093052
20
216.186924
10
96.990972
20
215.673759
10
96.956767
20
215.151648
0
LWPOLYLINE
5
2B2
100
AcDbEntity
8
Frame
6
ByLayer
62
7
370
-1
100
AcDbPolyline
90
2
70
0
43
0
10
100.956759
20
219.151668
10
102.956755
20
219.151668
0
LWPOLYLINE
5
2B3
100
AcDbEntity
8
Frame
6
ByLayer
62
7
370
-1
100
AcDbPolyline
90
2
70
0
43
0
10
289.956751
20
128.151625
10
264.956753
20
153.151631
0
LWPOLYLINE
5
2B4
100
AcDbEntity
8
Frame
6
ByLayer
62
7
370
-1
100
AcDbPolyline
90
2
70
0
43
0
10
282.34498
20
239.600531
10
281.95675
20
239.651642
0
LWPOLYLINE
5
2B5
100
AcDbEntity
8
Frame
6
ByLayer
62
7
370
-1
100
AcDbPolyline
90
3
70
0
43
0
10
111.56854
20
204.600516
10
111.20676
20
204.450656
10
110.89609
20
204.212292
0
LWPOLYLINE
5
2B6
100
AcDbEntity
8
Frame
6
ByLayer
62
7
370
-1
100
AcDbPolyline
90
2
70
0
43
0
10
286.956751
20
251.151661
10
276.956751
20
261.151641
0
LWPOLYLINE
5
2B7
100
AcDbEntity
8
Frame
6
ByLayer
62
7
370
-1
100
AcDbPolyline
90
2
70
0
43
0
10
296.956751
20
344.151644
10
296.956751
20
345.151642
0
LWPOLYLINE
5
2B8
100
AcDbEntity
8
Frame
6
ByLayer
62
7
370
-1
100
AcDbPolyline
90
2
70
0
43
0
10
83.956765
20
348.151636
10
108.956771
20
323.15163
0
LWPOLYLINE
5
2B9
100
AcDbEntity
8
Frame
6
ByLayer
62
7
370
-1
100
AcDbPolyline
90
2
70
0
43
0
10
186.956759
20
215.362948
10
186.994032
20
215.35815
0
LWPOLYLINE
5
2BA
100
AcDbEntity
8
Frame
6
ByLayer
62
7
370
-1
100
AcDbPolyline
90
2
70
0
43
0
10
286.956751
20
251.151661
10
286.956751
20
225.151656
0
LWPOLYLINE
5
2BB
100
AcDbEntity
8
Frame
6
ByLayer
62
7
370
-1
100
AcDbPolyline
90
2
70
0
43
0
10
292.027102
20
128.151625
10
293.956748
20
128.151625
0
LWPOLYLINE
5
2BC
100
AcDbEntity
8
Frame
6
ByLayer
62
7
370
-1
100
AcDbPolyline
90
2
70
0
43
0
10
86.956759
20
223.15166
10
86.956759
20
185.151624
0
LWPOLYLINE
5
2BD
100
AcDbEntity
8
Frame
6
ByLayer
62
7
370
-1
100
AcDbPolyline
90
2
70
0
43
0
10
82.027127
20
348.151636
10
83.956765
20
348.151636
0
LWPOLYLINE
5
2BE
100
AcDbEntity
8
Frame
6
ByLayer
62
7
370
-1
100
AcDbPolyline
90
2
70
0
43
0
10
82.027127
20
128.151625
10
79.956773
20
128.151625
0
LWPOLYLINE
5
2BF
100
AcDbEntity
8
Frame
6
ByLayer
62
7
370
-1
100
AcDbPolyline
90
2
70
0
43
0
10
186.528148
20
256.399103
10
186.956759
20
256.342744
0
LWPOLYLINE
5
2C0
100
AcDbEntity
8
Frame
6
ByLayer
62
7
370
-1
100
AcDbPolyline
90
2
70
0
43
0
10
188.732507
20
257.672236
10
188.793775
20
258.1381
0
LWPOLYLINE
5
2C1
100
AcDbEntity
8
Frame
6
ByLayer
62
7
370
-1
100
AcDbPolyline
90
3
70
0
43
0
10
185.720801
20
259.410471
10
185.4348
20
259.037627
10
185.255041
20
258.603485
0
LWPOLYLINE
5
2C2
100
AcDbEntity
8
Frame
6
ByLayer
62
7
370
-1
100
AcDbPolyline
90
2
70
0
43
0
10
185.435057
20
257.237614
10
185.721165
20
256.864883
0
LWPOLYLINE
5
2C3
100
AcDbEntity
8
Frame
6
ByLayer
62
7
370
-1
100
AcDbPolyline
90
2
70
0
43
0
10
187.4594
20
259.876589
10
186.993516
20
259.93786
0
LWPOLYLINE
5
2C4
100
AcDbEntity
8
Frame
6
ByLayer
62
7
370
-1
100
AcDbPolyline
90
2
70
0
43
0
10
186.956759
20
259.933005
10
186.527652
20
259.876448
0
LWPOLYLINE
5
2C5
100
AcDbEntity
8
Frame
6
ByLayer
62
7
370
-1
100
AcDbPolyline
90
3
70
0
43
0
10
80.70771
20
342.196155
10
80.887542
20
341.762012
10
81.173602
20
341.389225
0
LWPOLYLINE
5
2C6
100
AcDbEntity
8
Frame
6
ByLayer
62
7
370
-1
100
AcDbPolyline
90
2
70
0
43
0
10
81.54639
20
341.103164
10
81.980504
20
340.923361
0
LWPOLYLINE
5
2C7
100
AcDbEntity
8
Frame
6
ByLayer
62
7
370
-1
100
AcDbPolyline
90
2
70
0
43
0
10
82.027127
20
344.401637
10
81.980504
20
344.401637
0
LWPOLYLINE
5
2C8
100
AcDbEntity
8
Frame
6
ByLayer
62
7
370
-1
100
AcDbPolyline
90
3
70
0
43
0
10
292.367132
20
344.220873
10
291.933006
20
344.400677
10
291.467131
20
344.462032
0
LWPOLYLINE
5
2C9
100
AcDbEntity
8
Frame
6
ByLayer
62
7
370
-1
100
AcDbPolyline
90
2
70
0
43
0
10
289.908288
20
343.562026
10
289.728467
20
343.127911
0
LWPOLYLINE
5
2CA
100
AcDbEntity
8
Frame
6
ByLayer
62
7
370
-1
100
AcDbPolyline
90
2
70
0
43
0
10
289.728467
20
342.196155
10
289.908288
20
341.762012
0
LWPOLYLINE
5
2CB
100
AcDbEntity
8
Frame
6
ByLayer
62
7
370
-1
100
AcDbPolyline
90
2
70
0
43
0
10
291.001258
20
340.923361
10
291.467131
20
340.862034
0
LWPOLYLINE
5
2CC
100
AcDbEntity
8
Frame
6
ByLayer
62
7
370
-1
100
AcDbPolyline
90
2
70
0
43
0
10
292.739925
20
341.389225
10
293.025977
20
341.762012
0
LWPOLYLINE
5
2CD
100
AcDbEntity
8
Frame
6
ByLayer
62
7
370
-1
100
AcDbPolyline
90
5
70
0
43
0
10
293.205797
20
342.196155
10
293.267133
20
342.662019
10
293.205797
20
343.127911
10
293.025977
20
343.562026
10
292.739925
20
343.934813
0
LWPOLYLINE
5
2CE
100
AcDbEntity
8
Frame
6
ByLayer
62
7
370
-1
100
AcDbPolyline
90
3
70
0
43
0
10
289.908288
20
132.741264
10
290.19434
20
132.368448
10
290.567133
20
132.082416
0
LWPOLYLINE
5
2CF
100
AcDbEntity
8
Frame
6
ByLayer
62
7
370
-1
100
AcDbPolyline
90
2
70
0
43
0
10
291.933006
20
131.902584
10
292.367132
20
132.082416
0
LWPOLYLINE
5
2D0
100
AcDbEntity
8
Frame
6
ByLayer
62
7
370
-1
100
AcDbPolyline
90
2
70
0
43
0
10
81.187911
20
134.948975
10
80.897702
20
134.579405
0
LWPOLYLINE
5
2D1
100
AcDbEntity
8
Frame
6
ByLayer
62
7
370
-1
100
AcDbPolyline
90
2
70
0
43
0
10
84.17972
20
133.176732
10
84.246268
20
133.641891
0
LWPOLYLINE
5
2D2
100
AcDbEntity
8
Frame
6
ByLayer
62
7
370
-1
100
AcDbPolyline
90
2
70
0
43
0
10
84.190163
20
134.108404
10
84.015185
20
134.544522
0
LWPOLYLINE
5
2D3
100
AcDbEntity
8
Frame
6
ByLayer
62
7
370
-1
100
AcDbPolyline
90
2
70
0
43
0
10
296.956751
20
344.151644
10
296.956751
20
341.15165
0
LWPOLYLINE
5
2D4
100
AcDbEntity
8
Frame
6
ByLayer
62
7
370
-1
100
AcDbPolyline
90
2
70
0
43
0
10
76.956779
20
341.15165
10
96.956767
20
321.151634
0
LWPOLYLINE
5
2D5
100
AcDbEntity
8
Frame
6
ByLayer
62
7
370
-1
100
AcDbPolyline
90
2
70
0
43
0
10
266.956752
20
325.151654
10
264.956753
20
323.15163
0
LWPOLYLINE
5
2D6
100
AcDbEntity
8
Frame
6
ByLayer
62
7
370
-1
100
AcDbPolyline
90
3
70
0
43
0
10
226.956755
20
285.151649
10
224.956757
20
283.151653
10
214.956757
20
273.151645
0
LWPOLYLINE
5
2D7
100
AcDbEntity
8
Frame
6
ByLayer
62
7
370
-1
100
AcDbPolyline
90
2
70
0
43
0
10
254.956753
20
313.15165
10
226.956755
20
285.151649
0
LWPOLYLINE
5
2D8
100
AcDbEntity
8
Frame
6
ByLayer
62
7
370
-1
100
AcDbPolyline
90
3
70
0
43
0
10
215.027109
20
273.151645
10
214.956757
20
273.151645
10
158.956762
20
273.151645
0
LWPOLYLINE
5
2D9
100
AcDbEntity
8
Frame
6
ByLayer
62
7
370
-1
100
AcDbPolyline
90
2
70
0
43
0
10
118.956751
20
313.15165
10
158.956762
20
273.151645
0
LWPOLYLINE
5
2DA
100
AcDbEntity
8
Frame
6
ByLayer
62
7
370
-1
100
AcDbPolyline
90
2
70
0
43
0
10
166.95676
20
233.15164
10
146.95676
20
213.151652
0
LWPOLYLINE
5
2DB
100
AcDbEntity
8
Frame
6
ByLayer
62
7
370
-1
100
AcDbPolyline
90
2
70
0
43
0
10
146.95676
20
263.151637
10
147.027115
20
263.151637
0
LWPOLYLINE
5
2DC
100
AcDbEntity
8
Frame
6
ByLayer
62
7
370
-1
100
AcDbPolyline
90
3
70
0
43
0
10
106.956775
20
243.151649
10
126.956764
20
263.151637
10
146.95676
20
263.151637
0
LWPOLYLINE
5
2DD
100
AcDbEntity
8
Frame
6
ByLayer
62
7
370
-1
100
AcDbPolyline
90
2
70
0
43
0
10
126.956764
20
213.151652
10
106.956775
20
233.15164
0
LWPOLYLINE
5
2DE
100
AcDbEntity
8
Frame
6
ByLayer
62
7
370
-1
100
AcDbPolyline
90
2
70
0
43
0
10
256.956752
20
243.151649
10
256.956752
20
233.15164
0
LWPOLYLINE
5
2DF
100
AcDbEntity
8
Frame
6
ByLayer
62
7
370
-1
100
AcDbPolyline
90
2
70
0
43
0
10
206.956756
20
233.15164
10
206.956756
20
243.151649
0
LWPOLYLINE
5
2E0
100
AcDbEntity
8
Frame
6
ByLayer
62
7
370
-1
100
AcDbPolyline
90
2
70
0
43
0
10
247.027107
20
253.081299
10
256.956752
20
243.151649
0
LWPOLYLINE
5
2E1
100
AcDbEntity
8
Frame
6
ByLayer
62
7
370
-1
100
AcDbPolyline
90
2
70
0
43
0
10
236.956755
20
263.151637
10
247.027107
20
253.081299
0
LWPOLYLINE
5
2E2
100
AcDbEntity
8
Frame
6
ByLayer
62
7
370
-1
100
AcDbPolyline
90
2
70
0
43
0
10
256.956752
20
233.15164
10
247.027107
20
223.22199
0
LWPOLYLINE
5
2E3
100
AcDbEntity
8
Frame
6
ByLayer
62
7
370
-1
100
AcDbPolyline
90
2
70
0
43
0
10
226.956755
20
213.151652
10
206.956756
20
233.15164
0
LWPOLYLINE
5
2E4
100
AcDbEntity
8
Frame
6
ByLayer
62
7
370
-1
100
AcDbPolyline
90
2
70
0
43
0
10
206.956756
20
243.151649
10
226.956755
20
263.151637
0
LWPOLYLINE
5
2E5
100
AcDbEntity
8
Frame
6
ByLayer
62
7
370
-1
100
AcDbPolyline
90
2
70
0
43
0
10
247.027107
20
223.22199
10
236.956755
20
213.151652
0
LWPOLYLINE
5
2E6
100
AcDbEntity
8
Frame
6
ByLayer
62
7
370
-1
100
AcDbPolyline
90
2
70
0
43
0
10
226.956755
20
263.151637
10
236.956755
20
263.151637
0
LWPOLYLINE
5
2E7
100
AcDbEntity
8
Frame
6
ByLayer
62
7
370
-1
100
AcDbPolyline
90
2
70
0
43
0
10
247.027107
20
223.22199
10
247.027107
20
223.15166
0
LWPOLYLINE
5
2E8
100
AcDbEntity
8
Frame
6
ByLayer
62
7
370
-1
100
AcDbPolyline
90
2
70
0
43
0
10
236.956755
20
213.151652
10
226.956755
20
213.151652
0
LWPOLYLINE
5
2E9
100
AcDbEntity
8
Frame
6
ByLayer
62
7
370
-1
100
AcDbPolyline
90
2
70
0
43
0
10
254.956753
20
163.151639
10
119.027109
20
163.151639
0
LWPOLYLINE
5
2EA
100
AcDbEntity
8
Frame
6
ByLayer
62
7
370
-1
100
AcDbPolyline
90
2
70
0
43
0
10
214.956757
20
203.151616
10
159.027114
20
203.151616
0
LWPOLYLINE
5
2EB
100
AcDbEntity
8
Frame
6
ByLayer
62
7
370
-1
100
AcDbPolyline
90
2
70
0
43
0
10
254.956753
20
313.15165
10
255.027105
20
313.15165
0
LWPOLYLINE
5
2EC
100
AcDbEntity
8
Frame
6
ByLayer
62
7
370
-1
100
AcDbPolyline
90
2
70
0
43
0
10
276.820455
20
250.049809
10
276.65227
20
250.54525
0
LWPOLYLINE
5
2ED
100
AcDbEntity
8
Frame
6
ByLayer
62
7
370
-1
100
AcDbPolyline
90
2
70
0
43
0
10
280.45675
20
238.151659
10
280.507863
20
237.763434
0
LWPOLYLINE
5
2EE
100
AcDbEntity
8
Frame
6
ByLayer
62
7
370
-1
100
AcDbPolyline
90
2
70
0
43
0
10
261.568523
20
236.702758
10
261.956753
20
236.651648
0
LWPOLYLINE
5
2EF
100
AcDbEntity
8
Frame
6
ByLayer
62
7
370
-1
100
AcDbPolyline
90
2
70
0
43
0
10
261.206753
20
236.852618
10
261.568523
20
236.702758
0
LWPOLYLINE
5
2F0
100
AcDbEntity
8
Frame
6
ByLayer
62
7
370
-1
100
AcDbPolyline
90
2
70
0
43
0
10
260.896092
20
237.090983
10
261.206753
20
236.852618
0
LWPOLYLINE
5
2F1
100
AcDbEntity
8
Frame
6
ByLayer
62
7
370
-1
100
AcDbPolyline
90
2
70
0
43
0
10
281.20675
20
239.450699
10
280.896091
20
239.212306
0
LWPOLYLINE
5
2F2
100
AcDbEntity
8
Frame
6
ByLayer
62
7
370
-1
100
AcDbPolyline
90
2
70
0
43
0
10
263.40564
20
237.763434
10
263.456753
20
238.151659
0
LWPOLYLINE
5
2F3
100
AcDbEntity
8
Frame
6
ByLayer
62
7
370
-1
100
AcDbPolyline
90
2
70
0
43
0
10
262.344981
20
236.702758
10
262.706753
20
236.852618
0
LWPOLYLINE
5
2F4
100
AcDbEntity
8
Frame
6
ByLayer
62
7
370
-1
100
AcDbPolyline
90
2
70
0
43
0
10
261.956753
20
236.651648
10
262.344981
20
236.702758
0
LWPOLYLINE
5
2F5
100
AcDbEntity
8
Frame
6
ByLayer
62
7
370
-1
100
AcDbPolyline
90
2
70
0
43
0
10
266.990974
20
249.536616
10
266.956752
20
249.014533
0
LWPOLYLINE
5
2F6
100
AcDbEntity
8
Frame
6
ByLayer
62
7
370
-1
100
AcDbPolyline
90
2
70
0
43
0
10
267.783338
20
251.449575
10
267.492649
20
251.014529
0
LWPOLYLINE
5
2F7
100
AcDbEntity
8
Frame
6
ByLayer
62
7
370
-1
100
AcDbPolyline
90
2
70
0
43
0
10
261.568523
20
239.600531
10
261.206753
20
239.450699
0
LWPOLYLINE
5
2F8
100
AcDbEntity
8
Frame
6
ByLayer
62
7
370
-1
100
AcDbPolyline
90
2
70
0
43
0
10
281.568522
20
236.702758
10
281.95675
20
236.651648
0
LWPOLYLINE
5
2F9
100
AcDbEntity
8
Frame
6
ByLayer
62
7
370
-1
100
AcDbPolyline
90
2
70
0
43
0
10
283.321258
20
238.743592
10
283.255788
20
238.901636
0
LWPOLYLINE
5
2FA
100
AcDbEntity
8
Frame
6
ByLayer
62
7
370
-1
100
AcDbPolyline
90
2
70
0
43
0
10
283.308329
20
237.528484
10
283.405639
20
237.763434
0
LWPOLYLINE
5
2FB
100
AcDbEntity
8
Frame
6
ByLayer
62
7
370
-1
100
AcDbPolyline
90
2
70
0
43
0
10
262.706753
20
236.852618
10
263.017412
20
237.090983
0
LWPOLYLINE
5
2FC
100
AcDbEntity
8
Frame
6
ByLayer
62
7
370
-1
100
AcDbPolyline
90
2
70
0
43
0
10
283.405639
20
238.539884
10
283.321258
20
238.743592
0
LWPOLYLINE
5
2FD
100
AcDbEntity
8
Frame
6
ByLayer
62
7
370
-1
100
AcDbPolyline
90
2
70
0
43
0
10
281.20675
20
236.852618
10
281.568522
20
236.702758
0
LWPOLYLINE
5
2FE
100
AcDbEntity
8
Frame
6
ByLayer
62
7
370
-1
100
AcDbPolyline
90
2
70
0
43
0
10
283.017412
20
237.090983
10
283.255788
20
237.401653
0
LWPOLYLINE
5
2FF
100
AcDbEntity
8
Frame
6
ByLayer
62
7
370
-1
100
AcDbPolyline
90
2
70
0
43
0
10
260.657715
20
238.901636
10
260.507864
20
238.539884
0
LWPOLYLINE
5
300
100
AcDbEntity
8
Frame
6
ByLayer
62
7
370
-1
100
AcDbPolyline
90
2
70
0
43
0
10
282.70675
20
236.852618
10
283.017412
20
237.090983
0
LWPOLYLINE
5
301
100
AcDbEntity
8
Frame
6
ByLayer
62
7
370
-1
100
AcDbPolyline
90
2
70
0
43
0
10
282.34498
20
236.702758
10
282.70675
20
236.852618
0
LWPOLYLINE
5
302
100
AcDbEntity
8
Frame
6
ByLayer
62
7
370
-1
100
AcDbPolyline
90
2
70
0
43
0
10
270.434647
20
252.980292
10
269.921476
20
252.87824
0
LWPOLYLINE
5
303
100
AcDbEntity
8
Frame
6
ByLayer
62
7
370
-1
100
AcDbPolyline
90
2
70
0
43
0
10
270.956752
20
253.014525
10
270.434647
20
252.980292
0
LWPOLYLINE
5
304
100
AcDbEntity
8
Frame
6
ByLayer
62
7
370
-1
100
AcDbPolyline
90
2
70
0
43
0
10
270.956752
20
253.014525
10
272.956751
20
253.014525
0
LWPOLYLINE
5
305
100
AcDbEntity
8
Frame
6
ByLayer
62
7
370
-1
100
AcDbPolyline
90
2
70
0
43
0
10
266.956752
20
226.014523
10
266.956752
20
249.014533
0
LWPOLYLINE
5
306
100
AcDbEntity
8
Frame
6
ByLayer
62
7
370
-1
100
AcDbPolyline
90
2
70
0
43
0
10
260.456753
20
238.151659
10
260.507864
20
237.763434
0
LWPOLYLINE
5
307
100
AcDbEntity
8
Frame
6
ByLayer
62
7
370
-1
100
AcDbPolyline
90
2
70
0
43
0
10
267.492649
20
224.014527
10
267.783338
20
223.579481
0
LWPOLYLINE
5
308
100
AcDbEntity
8
Frame
6
ByLayer
62
7
370
-1
100
AcDbPolyline
90
2
70
0
43
0
10
267.093048
20
250.049809
10
266.990974
20
249.536616
0
LWPOLYLINE
5
309
100
AcDbEntity
8
Frame
6
ByLayer
62
7
370
-1
100
AcDbPolyline
90
2
70
0
43
0
10
267.261233
20
250.54525
10
267.093048
20
250.049809
0
LWPOLYLINE
5
30A
100
AcDbEntity
8
Frame
6
ByLayer
62
7
370
-1
100
AcDbPolyline
90
2
70
0
43
0
10
267.492649
20
251.014529
10
267.261233
20
250.54525
0
LWPOLYLINE
5
30B
100
AcDbEntity
8
Frame
6
ByLayer
62
7
370
-1
100
AcDbPolyline
90
2
70
0
43
0
10
260.507864
20
238.539884
10
260.456753
20
238.151659
0
LWPOLYLINE
5
30C
100
AcDbEntity
8
Frame
6
ByLayer
62
7
370
-1
100
AcDbPolyline
90
2
70
0
43
0
10
280.507863
20
238.539884
10
280.45675
20
238.151659
0
LWPOLYLINE
5
30D
100
AcDbEntity
8
Frame
6
ByLayer
62
7
370
-1
100
AcDbPolyline
90
4
70
0
43
0
10
275.391798
20
252.187924
10
274.956753
20
252.478613
10
274.487485
20
252.710036
10
273.992027
20
252.87824
0
LWPOLYLINE
5
30E
100
AcDbEntity
8
Frame
6
ByLayer
62
7
370
-1
100
AcDbPolyline
90
2
70
0
43
0
10
276.65227
20
250.54525
10
276.420854
20
251.014529
0
LWPOLYLINE
5
30F
100
AcDbEntity
8
Frame
6
ByLayer
62
7
370
-1
100
AcDbPolyline
90
2
70
0
43
0
10
283.017412
20
239.212306
10
282.70675
20
239.450699
0
LWPOLYLINE
5
310
100
AcDbEntity
8
Frame
6
ByLayer
62
7
370
-1
100
AcDbPolyline
90
2
70
0
43
0
10
268.128324
20
223.186092
10
268.521705
20
222.841131
0
LWPOLYLINE
5
311
100
AcDbEntity
8
Frame
6
ByLayer
62
7
370
-1
100
AcDbPolyline
90
4
70
0
43
0
10
276.420854
20
251.014529
10
276.130165
20
251.449575
10
275.785179
20
251.842964
10
275.391798
20
252.187924
0
LWPOLYLINE
5
312
100
AcDbEntity
8
Frame
6
ByLayer
62
7
370
-1
100
AcDbPolyline
90
2
70
0
43
0
10
283.255788
20
238.901636
10
283.017412
20
239.212306
0
LWPOLYLINE
5
313
100
AcDbEntity
8
Frame
6
ByLayer
62
7
370
-1
100
AcDbPolyline
90
2
70
0
43
0
10
276.130165
20
223.579481
10
276.420854
20
224.014527
0
LWPOLYLINE
5
314
100
AcDbEntity
8
Frame
6
ByLayer
62
7
370
-1
100
AcDbPolyline
90
2
70
0
43
0
10
268.95675
20
252.478613
10
268.521705
20
252.187924
0
LWPOLYLINE
5
315
100
AcDbEntity
8
Frame
6
ByLayer
62
7
370
-1
100
AcDbPolyline
90
2
70
0
43
0
10
267.261233
20
224.483806
10
267.492649
20
224.014527
0
LWPOLYLINE
5
316
100
AcDbEntity
8
Frame
6
ByLayer
62
7
370
-1
100
AcDbPolyline
90
4
70
0
43
0
10
276.420854
20
224.014527
10
276.65227
20
224.483806
10
276.820455
20
224.979247
10
276.922532
20
225.492412
0
LWPOLYLINE
5
317
100
AcDbEntity
8
Frame
6
ByLayer
62
7
370
-1
100
AcDbPolyline
90
2
70
0
43
0
10
263.017412
20
239.212306
10
262.706753
20
239.450699
0
LWPOLYLINE
5
318
100
AcDbEntity
8
Frame
6
ByLayer
62
7
370
-1
100
AcDbPolyline
90
2
70
0
43
0
10
261.206753
20
239.450699
10
260.896092
20
239.212306
0
LWPOLYLINE
5
319
100
AcDbEntity
8
Frame
6
ByLayer
62
7
370
-1
100
AcDbPolyline
90
2
70
0
43
0
10
262.344981
20
239.600531
10
261.956753
20
239.651642
0
LWPOLYLINE
5
31A
100
AcDbEntity
8
Frame
6
ByLayer
62
7
370
-1
100
AcDbPolyline
90
2
70
0
43
0
10
280.896091
20
237.090983
10
281.20675
20
236.852618
0
LWPOLYLINE
5
31B
100
AcDbEntity
8
Frame
6
ByLayer
62
7
370
-1
100
AcDbPolyline
90
2
70
0
43
0
10
263.255791
20
238.901636
10
263.017412
20
239.212306
0
LWPOLYLINE
5
31C
100
AcDbEntity
8
Frame
6
ByLayer
62
7
370
-1
100
AcDbPolyline
90
2
70
0
43
0
10
260.896092
20
239.212306
10
260.657715
20
238.901636
0
LWPOLYLINE
5
31D
100
AcDbEntity
8
Frame
6
ByLayer
62
7
370
-1
100
AcDbPolyline
90
2
70
0
43
0
10
281.568522
20
239.600531
10
281.20675
20
239.450699
0
LWPOLYLINE
5
31E
100
AcDbEntity
8
Frame
6
ByLayer
62
7
370
-1
100
AcDbPolyline
90
2
70
0
43
0
10
275.785179
20
223.186092
10
276.130165
20
223.579481
0
LWPOLYLINE
5
31F
100
AcDbEntity
8
Frame
6
ByLayer
62
7
370
-1
100
AcDbPolyline
90
2
70
0
43
0
10
274.956753
20
222.550442
10
275.391798
20
222.841131
0
LWPOLYLINE
5
320
100
AcDbEntity
8
Frame
6
ByLayer
62
7
370
-1
100
AcDbPolyline
90
2
70
0
43
0
10
274.487485
20
222.31902
10
274.956753
20
222.550442
0
LWPOLYLINE
5
321
100
AcDbEntity
8
Frame
6
ByLayer
62
7
370
-1
100
AcDbPolyline
90
2
70
0
43
0
10
282.70675
20
239.450699
10
282.34498
20
239.600531
0
LWPOLYLINE
5
322
100
AcDbEntity
8
Frame
6
ByLayer
62
7
370
-1
100
AcDbPolyline
90
2
70
0
43
0
10
268.95675
20
222.550442
10
269.426018
20
222.31902
0
LWPOLYLINE
5
323
100
AcDbEntity
8
Frame
6
ByLayer
62
7
370
-1
100
AcDbPolyline
90
2
70
0
43
0
10
268.521705
20
222.841131
10
268.95675
20
222.550442
0
LWPOLYLINE
5
324
100
AcDbEntity
8
Frame
6
ByLayer
62
7
370
-1
100
AcDbPolyline
90
2
70
0
43
0
10
281.95675
20
239.651642
10
281.568522
20
239.600531
0
LWPOLYLINE
5
325
100
AcDbEntity
8
Frame
6
ByLayer
62
7
370
-1
100
AcDbPolyline
90
2
70
0
43
0
10
186.527652
20
259.876448
10
186.093552
20
259.69656
0
LWPOLYLINE
5
326
100
AcDbEntity
8
Frame
6
ByLayer
62
7
370
-1
100
AcDbPolyline
90
2
70
0
43
0
10
188.266383
20
259.41081
10
187.893551
20
259.696814
0
LWPOLYLINE
5
327
100
AcDbEntity
8
Frame
6
ByLayer
62
7
370
-1
100
AcDbPolyline
90
2
70
0
43
0
10
185.193773
20
258.137592
10
185.255174
20
257.671728
0
LWPOLYLINE
5
328
100
AcDbEntity
8
Frame
6
ByLayer
62
7
370
-1
100
AcDbPolyline
90
2
70
0
43
0
10
186.093552
20
259.69656
10
185.720801
20
259.410471
0
LWPOLYLINE
5
329
100
AcDbEntity
8
Frame
6
ByLayer
62
7
370
-1
100
AcDbPolyline
90
2
70
0
43
0
10
186.993516
20
259.93786
10
186.956759
20
259.933062
0
LWPOLYLINE
5
32A
100
AcDbEntity
8
Frame
6
ByLayer
62
7
370
-1
100
AcDbPolyline
90
2
70
0
43
0
10
185.255041
20
217.623689
10
185.193773
20
217.157797
0
LWPOLYLINE
5
32B
100
AcDbEntity
8
Frame
6
ByLayer
62
7
370
-1
100
AcDbPolyline
90
2
70
0
43
0
10
188.552749
20
216.25827
10
188.732507
20
216.69244
0
LWPOLYLINE
5
32C
100
AcDbEntity
8
Frame
6
ByLayer
62
7
370
-1
100
AcDbPolyline
90
2
70
0
43
0
10
188.266747
20
215.885454
10
188.552749
20
216.25827
0
LWPOLYLINE
5
32D
100
AcDbEntity
8
Frame
6
ByLayer
62
7
370
-1
100
AcDbPolyline
90
2
70
0
43
0
10
186.528148
20
215.419336
10
186.956759
20
215.362948
0
LWPOLYLINE
5
32E
100
AcDbEntity
8
Frame
6
ByLayer
62
7
370
-1
100
AcDbPolyline
90
2
70
0
43
0
10
188.552492
20
218.058283
10
188.266383
20
218.431042
0
LWPOLYLINE
5
32F
100
AcDbEntity
8
Frame
6
ByLayer
62
7
370
-1
100
AcDbPolyline
90
2
70
0
43
0
10
186.956759
20
256.342744
10
186.994032
20
256.337946
0
LWPOLYLINE
5
330
100
AcDbEntity
8
Frame
6
ByLayer
62
7
370
-1
100
AcDbPolyline
90
2
70
0
43
0
10
186.093552
20
218.716764
10
185.720801
20
218.430675
0
LWPOLYLINE
5
331
100
AcDbEntity
8
Frame
6
ByLayer
62
7
370
-1
100
AcDbPolyline
90
2
70
0
43
0
10
185.435057
20
216.257846
10
185.721165
20
215.885087
0
LWPOLYLINE
5
332
100
AcDbEntity
8
Frame
6
ByLayer
62
7
370
-1
100
AcDbPolyline
90
2
70
0
43
0
10
185.193773
20
217.157797
10
185.255174
20
216.691932
0
LWPOLYLINE
5
333
100
AcDbEntity
8
Frame
6
ByLayer
62
7
370
-1
100
AcDbPolyline
90
2
70
0
43
0
10
188.266747
20
256.86525
10
188.552749
20
257.238065
0
LWPOLYLINE
5
334
100
AcDbEntity
8
Frame
6
ByLayer
62
7
370
-1
100
AcDbPolyline
90
2
70
0
43
0
10
187.893997
20
256.579133
10
188.266747
20
256.86525
0
LWPOLYLINE
5
335
100
AcDbEntity
8
Frame
6
ByLayer
62
7
370
-1
100
AcDbPolyline
90
2
70
0
43
0
10
187.459897
20
256.399244
10
187.893997
20
256.579133
0
LWPOLYLINE
5
336
100
AcDbEntity
8
Frame
6
ByLayer
62
7
370
-1
100
AcDbPolyline
90
2
70
0
43
0
10
186.994032
20
256.337861
10
187.459897
20
256.399244
0
LWPOLYLINE
5
337
100
AcDbEntity
8
Frame
6
ByLayer
62
7
370
-1
100
AcDbPolyline
90
2
70
0
43
0
10
186.093997
20
256.578879
10
186.528148
20
256.399103
0
LWPOLYLINE
5
338
100
AcDbEntity
8
Frame
6
ByLayer
62
7
370
-1
100
AcDbPolyline
90
2
70
0
43
0
10
185.721165
20
256.864883
10
186.093997
20
256.578879
0
LWPOLYLINE
5
339
100
AcDbEntity
8
Frame
6
ByLayer
62
7
370
-1
100
AcDbPolyline
90
2
70
0
43
0
10
188.552492
20
259.038079
10
188.266383
20
259.41081
0
LWPOLYLINE
5
33A
100
AcDbEntity
8
Frame
6
ByLayer
62
7
370
-1
100
AcDbPolyline
90
2
70
0
43
0
10
188.732374
20
258.603964
10
188.552492
20
259.038079
0
LWPOLYLINE
5
33B
100
AcDbEntity
8
Frame
6
ByLayer
62
7
370
-1
100
AcDbPolyline
90
2
70
0
43
0
10
188.793775
20
258.1381
10
188.732374
20
258.603964
0
LWPOLYLINE
5
33C
100
AcDbEntity
8
Frame
6
ByLayer
62
7
370
-1
100
AcDbPolyline
90
2
70
0
43
0
10
187.893551
20
259.696814
10
187.4594
20
259.876589
0
LWPOLYLINE
5
33D
100
AcDbEntity
8
Frame
6
ByLayer
62
7
370
-1
100
AcDbPolyline
90
2
70
0
43
0
10
188.552749
20
257.238065
10
188.732507
20
257.672236
0
LWPOLYLINE
5
33E
100
AcDbEntity
8
Frame
6
ByLayer
62
7
370
-1
100
AcDbPolyline
90
2
70
0
43
0
10
186.956759
20
218.95321
10
186.527652
20
218.896652
0
LWPOLYLINE
5
33F
100
AcDbEntity
8
Frame
6
ByLayer
62
7
370
-1
100
AcDbPolyline
90
2
70
0
43
0
10
185.255041
20
258.603485
10
185.193773
20
258.137592
0
LWPOLYLINE
5
340
100
AcDbEntity
8
Frame
6
ByLayer
62
7
370
-1
100
AcDbPolyline
90
2
70
0
43
0
10
185.255174
20
257.671728
10
185.435057
20
257.237614
0
LWPOLYLINE
5
341
100
AcDbEntity
8
Frame
6
ByLayer
62
7
370
-1
100
AcDbPolyline
90
3
70
0
43
0
10
111.56854
20
274.600546
10
111.20676
20
274.450686
10
110.89609
20
274.212321
0
LWPOLYLINE
5
342
100
AcDbEntity
8
Frame
6
ByLayer
62
7
370
-1
100
AcDbPolyline
90
2
70
0
43
0
10
106.922542
20
261.636583
10
106.956775
20
262.158694
0
LWPOLYLINE
5
343
100
AcDbEntity
8
Frame
6
ByLayer
62
7
370
-1
100
AcDbPolyline
90
2
70
0
43
0
10
110.507865
20
272.76342
10
110.657725
20
272.40164
0
LWPOLYLINE
5
344
100
AcDbEntity
8
Frame
6
ByLayer
62
7
370
-1
100
AcDbPolyline
90
2
70
0
43
0
10
91.206772
20
274.450686
10
90.896101
20
274.212321
0
LWPOLYLINE
5
345
100
AcDbEntity
8
Frame
6
ByLayer
62
7
370
-1
100
AcDbPolyline
90
2
70
0
43
0
10
106.820462
20
261.123419
10
106.922542
20
261.636583
0
LWPOLYLINE
5
346
100
AcDbEntity
8
Frame
6
ByLayer
62
7
370
-1
100
AcDbPolyline
90
3
70
0
43
0
10
93.45676
20
273.151645
10
93.40565
20
273.53987
10
93.25579
20
273.901651
0
LWPOLYLINE
5
347
100
AcDbEntity
8
Frame
6
ByLayer
62
7
370
-1
100
AcDbPolyline
90
2
70
0
43
0
10
112.34499
20
274.600546
10
111.956765
20
274.651656
0
LWPOLYLINE
5
348
100
AcDbEntity
8
Frame
6
ByLayer
62
7
370
-1
100
AcDbPolyline
90
2
70
0
43
0
10
90.896101
20
274.212321
10
90.657736
20
273.901651
0
LWPOLYLINE
5
349
100
AcDbEntity
8
Frame
6
ByLayer
62
7
370
-1
100
AcDbPolyline
90
2
70
0
43
0
10
91.568524
20
274.600546
10
91.206772
20
274.450686
0
LWPOLYLINE
5
34A
100
AcDbEntity
8
Frame
6
ByLayer
62
7
370
-1
100
AcDbPolyline
90
2
70
0
43
0
10
113.017413
20
274.212321
10
112.706771
20
274.450686
0
LWPOLYLINE
5
34B
100
AcDbEntity
8
Frame
6
ByLayer
62
7
370
-1
100
AcDbPolyline
90
2
70
0
43
0
10
91.206772
20
271.852604
10
91.568524
20
271.702744
0
LWPOLYLINE
5
34C
100
AcDbEntity
8
Frame
6
ByLayer
62
7
370
-1
100
AcDbPolyline
90
2
70
0
43
0
10
103.478866
20
258.192908
10
103.992031
20
258.294988
0
LWPOLYLINE
5
34D
100
AcDbEntity
8
Frame
6
ByLayer
62
7
370
-1
100
AcDbPolyline
90
2
70
0
43
0
10
110.657725
20
272.40164
10
110.89609
20
272.090998
0
LWPOLYLINE
5
34E
100
AcDbEntity
8
Frame
6
ByLayer
62
7
370
-1
100
AcDbPolyline
90
2
70
0
43
0
10
112.34499
20
271.702744
10
112.706771
20
271.852604
0
LWPOLYLINE
5
34F
100
AcDbEntity
8
Frame
6
ByLayer
62
7
370
-1
100
AcDbPolyline
90
4
70
0
43
0
10
104.956751
20
258.694586
10
105.391797
20
258.985275
10
105.785186
20
259.330263
10
106.130175
20
259.723625
0
LWPOLYLINE
5
350
100
AcDbEntity
8
Frame
6
ByLayer
62
7
370
-1
100
AcDbPolyline
90
2
70
0
43
0
10
111.956765
20
274.651656
10
111.56854
20
274.600546
0
LWPOLYLINE
5
351
100
AcDbEntity
8
Frame
6
ByLayer
62
7
370
-1
100
AcDbPolyline
90
2
70
0
43
0
10
106.652286
20
260.627949
10
106.820462
20
261.123419
0
LWPOLYLINE
5
352
100
AcDbEntity
8
Frame
6
ByLayer
62
7
370
-1
100
AcDbPolyline
90
3
70
0
43
0
10
106.130175
20
259.723625
10
106.420864
20
260.158698
10
106.652286
20
260.627949
0
LWPOLYLINE
5
353
100
AcDbEntity
8
Frame
6
ByLayer
62
7
370
-1
100
AcDbPolyline
90
2
70
0
43
0
10
111.956765
20
271.651634
10
112.34499
20
271.702744
0
LWPOLYLINE
5
354
100
AcDbEntity
8
Frame
6
ByLayer
62
7
370
-1
100
AcDbPolyline
90
9
70
0
43
0
10
98.956763
20
288.622785
10
98.521718
20
288.332096
10
98.128328
20
287.987108
10
97.78334
20
287.593718
10
97.492651
20
287.158673
10
97.261257
20
286.689422
10
97.093052
20
286.193952
10
96.990972
20
285.680788
10
96.956767
20
285.158677
0
LWPOLYLINE
5
355
100
AcDbEntity
8
Frame
6
ByLayer
62
7
370
-1
100
AcDbPolyline
90
4
70
0
43
0
10
106.922542
20
285.680788
10
106.820462
20
286.193952
10
106.652286
20
286.689422
10
106.420864
20
287.158673
0
LWPOLYLINE
5
356
100
AcDbEntity
8
Frame
6
ByLayer
62
7
370
-1
100
AcDbPolyline
90
2
70
0
43
0
10
106.130175
20
287.593718
10
105.785186
20
287.987108
0
LWPOLYLINE
5
357
100
AcDbEntity
8
Frame
6
ByLayer
62
7
370
-1
100
AcDbPolyline
90
4
70
0
43
0
10
99.426042
20
258.463164
10
99.921483
20
258.294988
10
100.434648
20
258.192908
10
100.956759
20
258.158674
0
LWPOLYLINE
5
358
100
AcDbEntity
8
Frame
6
ByLayer
62
7
370
-1
100
AcDbPolyline
90
2
70
0
43
0
10
106.956775
20
285.158677
10
106.922542
20
285.680788
0
LWPOLYLINE
5
359
100
AcDbEntity
8
Frame
6
ByLayer
62
7
370
-1
100
AcDbPolyline
90
2
70
0
43
0
10
100.434648
20
289.124463
10
99.921483
20
289.022384
0
LWPOLYLINE
5
35A
100
AcDbEntity
8
Frame
6
ByLayer
62
7
370
-1
100
AcDbPolyline
90
2
70
0
43
0
10
93.017425
20
272.090998
10
93.25579
20
272.40164
0
LWPOLYLINE
5
35B
100
AcDbEntity
8
Frame
6
ByLayer
62
7
370
-1
100
AcDbPolyline
90
2
70
0
43
0
10
90.507876
20
273.53987
10
90.456766
20
273.151645
0
LWPOLYLINE
5
35C
100
AcDbEntity
8
Frame
6
ByLayer
62
7
370
-1
100
AcDbPolyline
90
2
70
0
43
0
10
90.657736
20
272.40164
10
90.896101
20
272.090998
0
LWPOLYLINE
5
35D
100
AcDbEntity
8
Frame
6
ByLayer
62
7
370
-1
100
AcDbPolyline
90
2
70
0
43
0
10
113.456776
20
273.151645
10
113.405638
20
273.53987
0
LWPOLYLINE
5
35E
100
AcDbEntity
8
Frame
6
ByLayer
62
7
370
-1
100
AcDbPolyline
90
2
70
0
43
0
10
93.25579
20
272.40164
10
93.40565
20
272.76342
0
LWPOLYLINE
5
35F
100
AcDbEntity
8
Frame
6
ByLayer
62
7
370
-1
100
AcDbPolyline
90
2
70
0
43
0
10
96.990972
20
261.636583
10
97.093052
20
261.123419
0
LWPOLYLINE
5
360
100
AcDbEntity
8
Frame
6
ByLayer
62
7
370
-1
100
AcDbPolyline
90
2
70
0
43
0
10
92.706754
20
274.450686
10
92.345002
20
274.600546
0
LWPOLYLINE
5
361
100
AcDbEntity
8
Frame
6
ByLayer
62
7
370
-1
100
AcDbPolyline
90
2
70
0
43
0
10
93.017425
20
274.212321
10
92.706754
20
274.450686
0
LWPOLYLINE
5
362
100
AcDbEntity
8
Frame
6
ByLayer
62
7
370
-1
100
AcDbPolyline
90
2
70
0
43
0
10
90.896101
20
272.090998
10
91.206772
20
271.852604
0
LWPOLYLINE
5
363
100
AcDbEntity
8
Frame
6
ByLayer
62
7
370
-1
100
AcDbPolyline
90
2
70
0
43
0
10
90.657736
20
273.901651
10
90.507876
20
273.53987
0
LWPOLYLINE
5
364
100
AcDbEntity
8
Frame
6
ByLayer
62
7
370
-1
100
AcDbPolyline
90
2
70
0
43
0
10
103.992031
20
258.294988
10
104.4875
20
258.463164
0
LWPOLYLINE
5
365
100
AcDbEntity
8
Frame
6
ByLayer
62
7
370
-1
100
AcDbPolyline
90
2
70
0
43
0
10
100.956759
20
289.158669
10
102.956755
20
289.158669
0
LWPOLYLINE
5
366
100
AcDbEntity
8
Frame
6
ByLayer
62
7
370
-1
100
AcDbPolyline
90
2
70
0
43
0
10
93.40565
20
272.76342
10
93.45676
20
273.151645
0
LWPOLYLINE
5
367
100
AcDbEntity
8
Frame
6
ByLayer
62
7
370
-1
100
AcDbPolyline
90
2
70
0
43
0
10
104.956751
20
288.622785
10
104.4875
20
288.854207
0
LWPOLYLINE
5
368
100
AcDbEntity
8
Frame
6
ByLayer
62
7
370
-1
100
AcDbPolyline
90
2
70
0
43
0
10
102.956755
20
258.158674
10
103.478866
20
258.192908
0
LWPOLYLINE
5
369
100
AcDbEntity
8
Frame
6
ByLayer
62
7
370
-1
100
AcDbPolyline
90
2
70
0
43
0
10
99.426042
20
288.854207
10
98.956763
20
288.622785
0
LWPOLYLINE
5
36A
100
AcDbEntity
8
Frame
6
ByLayer
62
7
370
-1
100
AcDbPolyline
90
2
70
0
43
0
10
99.426042
20
188.456107
10
99.921483
20
188.287931
0
LWPOLYLINE
5
36B
100
AcDbEntity
8
Frame
6
ByLayer
62
7
370
-1
100
AcDbPolyline
90
2
70
0
43
0
10
98.956763
20
188.687529
10
99.426042
20
188.456107
0
LWPOLYLINE
5
36C
100
AcDbEntity
8
Frame
6
ByLayer
62
7
370
-1
100
AcDbPolyline
90
2
70
0
43
0
10
98.521718
20
188.978218
10
98.956763
20
188.687529
0
LWPOLYLINE
5
36D
100
AcDbEntity
8
Frame
6
ByLayer
62
7
370
-1
100
AcDbPolyline
90
2
70
0
43
0
10
98.128328
20
189.323207
10
98.521718
20
188.978218
0
LWPOLYLINE
5
36E
100
AcDbEntity
8
Frame
6
ByLayer
62
7
370
-1
100
AcDbPolyline
90
2
70
0
43
0
10
102.956755
20
188.151618
10
100.956759
20
188.151618
0
LWPOLYLINE
5
36F
100
AcDbEntity
8
Frame
6
ByLayer
62
7
370
-1
100
AcDbPolyline
90
2
70
0
43
0
10
90.507876
20
203.539869
10
90.456766
20
203.151616
0
LWPOLYLINE
5
370
100
AcDbEntity
8
Frame
6
ByLayer
62
7
370
-1
100
AcDbPolyline
90
2
70
0
43
0
10
90.657736
20
203.901621
10
90.507876
20
203.539869
0
LWPOLYLINE
5
371
100
AcDbEntity
8
Frame
6
ByLayer
62
7
370
-1
100
AcDbPolyline
90
2
70
0
43
0
10
106.820462
20
216.186924
10
106.652286
20
216.682393
0
LWPOLYLINE
5
372
100
AcDbEntity
8
Frame
6
ByLayer
62
7
370
-1
100
AcDbPolyline
90
2
70
0
43
0
10
106.922542
20
215.673759
10
106.820462
20
216.186924
0
LWPOLYLINE
5
373
100
AcDbEntity
8
Frame
6
ByLayer
62
7
370
-1
100
AcDbPolyline
90
2
70
0
43
0
10
106.956775
20
215.151648
10
106.922542
20
215.673759
0
LWPOLYLINE
5
374
100
AcDbEntity
8
Frame
6
ByLayer
62
7
370
-1
100
AcDbPolyline
90
2
70
0
43
0
10
113.405638
20
202.763391
10
113.456776
20
203.151616
0
LWPOLYLINE
5
375
100
AcDbEntity
8
Frame
6
ByLayer
62
7
370
-1
100
AcDbPolyline
90
2
70
0
43
0
10
90.896101
20
204.212292
10
90.657736
20
203.901621
0
LWPOLYLINE
5
376
100
AcDbEntity
8
Frame
6
ByLayer
62
7
370
-1
100
AcDbPolyline
90
2
70
0
43
0
10
91.206772
20
204.450656
10
90.896101
20
204.212292
0
LWPOLYLINE
5
377
100
AcDbEntity
8
Frame
6
ByLayer
62
7
370
-1
100
AcDbPolyline
90
2
70
0
43
0
10
103.478866
20
188.185851
10
103.992031
20
188.287931
0
LWPOLYLINE
5
378
100
AcDbEntity
8
Frame
6
ByLayer
62
7
370
-1
100
AcDbPolyline
90
2
70
0
43
0
10
111.956765
20
204.651627
10
111.56854
20
204.600516
0
LWPOLYLINE
5
379
100
AcDbEntity
8
Frame
6
ByLayer
62
7
370
-1
100
AcDbPolyline
90
4
70
0
43
0
10
97.261257
20
190.620893
10
97.492651
20
190.151642
10
97.78334
20
189.716596
10
98.128328
20
189.323207
0
LWPOLYLINE
5
37A
100
AcDbEntity
8
Frame
6
ByLayer
62
7
370
-1
100
AcDbPolyline
90
2
70
0
43
0
10
113.255806
20
203.901621
10
113.017413
20
204.212292
0
LWPOLYLINE
5
37B
100
AcDbEntity
8
Frame
6
ByLayer
62
7
370
-1
100
AcDbPolyline
90
2
70
0
43
0
10
93.25579
20
203.901621
10
93.017425
20
204.212292
0
LWPOLYLINE
5
37C
100
AcDbEntity
8
Frame
6
ByLayer
62
7
370
-1
100
AcDbPolyline
90
2
70
0
43
0
10
110.89609
20
204.212292
10
110.657725
20
203.901621
0
LWPOLYLINE
5
37D
100
AcDbEntity
8
Frame
6
ByLayer
62
7
370
-1
100
AcDbPolyline
90
2
70
0
43
0
10
90.657736
20
202.401638
10
90.896101
20
202.090968
0
LWPOLYLINE
5
37E
100
AcDbEntity
8
Frame
6
ByLayer
62
7
370
-1
100
AcDbPolyline
90
2
70
0
43
0
10
106.956775
20
215.151648
10
106.956775
20
192.151638
0
LWPOLYLINE
5
37F
100
AcDbEntity
8
Frame
6
ByLayer
62
7
370
-1
100
AcDbPolyline
90
2
70
0
43
0
10
92.345002
20
201.702743
10
92.706754
20
201.852603
0
LWPOLYLINE
5
380
100
AcDbEntity
8
Frame
6
ByLayer
62
7
370
-1
100
AcDbPolyline
90
2
70
0
43
0
10
93.40565
20
203.539869
10
93.25579
20
203.901621
0
LWPOLYLINE
5
381
100
AcDbEntity
8
Frame
6
ByLayer
62
7
370
-1
100
AcDbPolyline
90
2
70
0
43
0
10
110.657725
20
202.401638
10
110.89609
20
202.090968
0
LWPOLYLINE
5
382
100
AcDbEntity
8
Frame
6
ByLayer
62
7
370
-1
100
AcDbPolyline
90
2
70
0
43
0
10
112.706771
20
204.450656
10
112.34499
20
204.600516
0
LWPOLYLINE
5
383
100
AcDbEntity
8
Frame
6
ByLayer
62
7
370
-1
100
AcDbPolyline
90
2
70
0
43
0
10
97.492651
20
217.151644
10
97.261257
20
216.682393
0
LWPOLYLINE
5
384
100
AcDbEntity
8
Frame
6
ByLayer
62
7
370
-1
100
AcDbPolyline
90
2
70
0
43
0
10
90.507876
20
202.763391
10
90.657736
20
202.401638
0
LWPOLYLINE
5
385
100
AcDbEntity
8
Frame
6
ByLayer
62
7
370
-1
100
AcDbPolyline
90
2
70
0
43
0
10
81.173602
20
341.389225
10
81.54639
20
341.103164
0
LWPOLYLINE
5
386
100
AcDbEntity
8
Frame
6
ByLayer
62
7
370
-1
100
AcDbPolyline
90
2
70
0
43
0
10
83.719162
20
341.389225
10
84.005222
20
341.762012
0
LWPOLYLINE
5
387
100
AcDbEntity
8
Frame
6
ByLayer
62
7
370
-1
100
AcDbPolyline
90
2
70
0
43
0
10
81.980504
20
344.400677
10
81.54639
20
344.220873
0
LWPOLYLINE
5
388
100
AcDbEntity
8
Frame
6
ByLayer
62
7
370
-1
100
AcDbPolyline
90
2
70
0
43
0
10
82.446396
20
344.462032
10
82.027127
20
344.401637
0
LWPOLYLINE
5
389
100
AcDbEntity
8
Frame
6
ByLayer
62
7
370
-1
100
AcDbPolyline
90
2
70
0
43
0
10
82.91226
20
344.400677
10
82.446396
20
344.462032
0
LWPOLYLINE
5
38A
100
AcDbEntity
8
Frame
6
ByLayer
62
7
370
-1
100
AcDbPolyline
90
2
70
0
43
0
10
83.346375
20
344.220873
10
82.91226
20
344.400677
0
LWPOLYLINE
5
38B
100
AcDbEntity
8
Frame
6
ByLayer
62
7
370
-1
100
AcDbPolyline
90
2
70
0
43
0
10
83.719162
20
343.934813
10
83.346375
20
344.220873
0
LWPOLYLINE
5
38C
100
AcDbEntity
8
Frame
6
ByLayer
62
7
370
-1
100
AcDbPolyline
90
2
70
0
43
0
10
84.005222
20
343.562026
10
83.719162
20
343.934813
0
LWPOLYLINE
5
38D
100
AcDbEntity
8
Frame
6
ByLayer
62
7
370
-1
100
AcDbPolyline
90
2
70
0
43
0
10
84.185054
20
343.127911
10
84.005222
20
343.562026
0
LWPOLYLINE
5
38E
100
AcDbEntity
8
Frame
6
ByLayer
62
7
370
-1
100
AcDbPolyline
90
2
70
0
43
0
10
84.246381
20
342.662019
10
84.185054
20
343.127911
0
LWPOLYLINE
5
38F
100
AcDbEntity
8
Frame
6
ByLayer
62
7
370
-1
100
AcDbPolyline
90
2
70
0
43
0
10
84.185054
20
342.196155
10
84.246381
20
342.662019
0
LWPOLYLINE
5
390
100
AcDbEntity
8
Frame
6
ByLayer
62
7
370
-1
100
AcDbPolyline
90
2
70
0
43
0
10
84.005222
20
341.762012
10
84.185054
20
342.196155
0
LWPOLYLINE
5
391
100
AcDbEntity
8
Frame
6
ByLayer
62
7
370
-1
100
AcDbPolyline
90
2
70
0
43
0
10
80.804879
20
343.362466
10
80.70771
20
343.127911
0
LWPOLYLINE
5
392
100
AcDbEntity
8
Frame
6
ByLayer
62
7
370
-1
100
AcDbPolyline
90
3
70
0
43
0
10
82.446396
20
340.862034
10
82.91226
20
340.923361
10
83.346375
20
341.103164
0
LWPOLYLINE
5
393
100
AcDbEntity
8
Frame
6
ByLayer
62
7
370
-1
100
AcDbPolyline
90
2
70
0
43
0
10
81.980504
20
340.923361
10
82.446396
20
340.862034
0
LWPOLYLINE
5
394
100
AcDbEntity
8
Frame
6
ByLayer
62
7
370
-1
100
AcDbPolyline
90
2
70
0
43
0
10
83.346375
20
341.103164
10
83.719162
20
341.389225
0
LWPOLYLINE
5
395
100
AcDbEntity
8
Frame
6
ByLayer
62
7
370
-1
100
AcDbPolyline
90
2
70
0
43
0
10
81.54639
20
344.220873
10
81.173602
20
343.934813
0
LWPOLYLINE
5
396
100
AcDbEntity
8
Frame
6
ByLayer
62
7
370
-1
100
AcDbPolyline
90
2
70
0
43
0
10
80.887542
20
343.562026
10
80.804879
20
343.362466
0
LWPOLYLINE
5
397
100
AcDbEntity
8
Frame
6
ByLayer
62
7
370
-1
100
AcDbPolyline
90
2
70
0
43
0
10
81.173602
20
343.934813
10
80.887542
20
343.562026
0
LWPOLYLINE
5
398
100
AcDbEntity
8
Frame
6
ByLayer
62
7
370
-1
100
AcDbPolyline
90
2
70
0
43
0
10
80.646383
20
342.662019
10
80.70771
20
342.196155
0
LWPOLYLINE
5
399
100
AcDbEntity
8
Frame
6
ByLayer
62
7
370
-1
100
AcDbPolyline
90
2
70
0
43
0
10
80.70771
20
343.127911
10
80.646383
20
342.662019
0
LWPOLYLINE
5
39A
100
AcDbEntity
8
Frame
6
ByLayer
62
7
370
-1
100
AcDbPolyline
90
2
70
0
43
0
10
290.567133
20
341.103164
10
291.001258
20
340.923361
0
LWPOLYLINE
5
39B
100
AcDbEntity
8
Frame
6
ByLayer
62
7
370
-1
100
AcDbPolyline
90
2
70
0
43
0
10
293.025977
20
341.762012
10
293.205797
20
342.196155
0
LWPOLYLINE
5
39C
100
AcDbEntity
8
Frame
6
ByLayer
62
7
370
-1
100
AcDbPolyline
90
2
70
0
43
0
10
291.467131
20
340.862034
10
291.933006
20
340.923361
0
LWPOLYLINE
5
39D
100
AcDbEntity
8
Frame
6
ByLayer
62
7
370
-1
100
AcDbPolyline
90
2
70
0
43
0
10
292.739925
20
343.934813
10
292.367132
20
344.220873
0
LWPOLYLINE
5
39E
100
AcDbEntity
8
Frame
6
ByLayer
62
7
370
-1
100
AcDbPolyline
90
2
70
0
43
0
10
289.667132
20
342.662019
10
289.728467
20
342.196155
0
LWPOLYLINE
5
39F
100
AcDbEntity
8
Frame
6
ByLayer
62
7
370
-1
100
AcDbPolyline
90
2
70
0
43
0
10
289.908288
20
341.762012
10
290.19434
20
341.389225
0
LWPOLYLINE
5
3A0
100
AcDbEntity
8
Frame
6
ByLayer
62
7
370
-1
100
AcDbPolyline
90
2
70
0
43
0
10
289.728467
20
343.127911
10
289.667132
20
342.662019
0
LWPOLYLINE
5
3A1
100
AcDbEntity
8
Frame
6
ByLayer
62
7
370
-1
100
AcDbPolyline
90
2
70
0
43
0
10
291.467131
20
344.462032
10
291.001258
20
344.400677
0
LWPOLYLINE
5
3A2
100
AcDbEntity
8
Frame
6
ByLayer
62
7
370
-1
100
AcDbPolyline
90
2
70
0
43
0
10
292.367132
20
341.103164
10
292.739925
20
341.389225
0
LWPOLYLINE
5
3A3
100
AcDbEntity
8
Frame
6
ByLayer
62
7
370
-1
100
AcDbPolyline
90
2
70
0
43
0
10
290.19434
20
343.934813
10
289.908288
20
343.562026
0
LWPOLYLINE
5
3A4
100
AcDbEntity
8
Frame
6
ByLayer
62
7
370
-1
100
AcDbPolyline
90
2
70
0
43
0
10
291.001258
20
344.400677
10
290.567133
20
344.220873
0
LWPOLYLINE
5
3A5
100
AcDbEntity
8
Frame
6
ByLayer
62
7
370
-1
100
AcDbPolyline
90
2
70
0
43
0
10
290.19434
20
341.389225
10
290.567133
20
341.103164
0
LWPOLYLINE
5
3A6
100
AcDbEntity
8
Frame
6
ByLayer
62
7
370
-1
100
AcDbPolyline
90
2
70
0
43
0
10
290.567133
20
344.220873
10
290.19434
20
343.934813
0
LWPOLYLINE
5
3A7
100
AcDbEntity
8
Frame
6
ByLayer
62
7
370
-1
100
AcDbPolyline
90
2
70
0
43
0
10
291.933006
20
340.923361
10
292.367132
20
341.103164
0
LWPOLYLINE
5
3A8
100
AcDbEntity
8
Frame
6
ByLayer
62
7
370
-1
100
AcDbPolyline
90
2
70
0
43
0
10
292.367132
20
132.082416
10
292.739925
20
132.368448
0
LWPOLYLINE
5
3A9
100
AcDbEntity
8
Frame
6
ByLayer
62
7
370
-1
100
AcDbPolyline
90
2
70
0
43
0
10
291.467131
20
131.841257
10
291.933006
20
131.902584
0
LWPOLYLINE
5
3AA
100
AcDbEntity
8
Frame
6
ByLayer
62
7
370
-1
100
AcDbPolyline
90
2
70
0
43
0
10
291.001258
20
131.902584
10
291.467131
20
131.841257
0
LWPOLYLINE
5
3AB
100
AcDbEntity
8
Frame
6
ByLayer
62
7
370
-1
100
AcDbPolyline
90
2
70
0
43
0
10
290.567133
20
132.082416
10
291.001258
20
131.902584
0
LWPOLYLINE
5
3AC
100
AcDbEntity
8
Frame
6
ByLayer
62
7
370
-1
100
AcDbPolyline
90
2
70
0
43
0
10
289.728467
20
133.175378
10
289.908288
20
132.741264
0
LWPOLYLINE
5
3AD
100
AcDbEntity
8
Frame
6
ByLayer
62
7
370
-1
100
AcDbPolyline
90
2
70
0
43
0
10
289.667132
20
133.641242
10
289.728467
20
133.175378
0
LWPOLYLINE
5
3AE
100
AcDbEntity
8
Frame
6
ByLayer
62
7
370
-1
100
AcDbPolyline
90
2
70
0
43
0
10
289.728467
20
134.107134
10
289.667132
20
133.641242
0
LWPOLYLINE
5
3AF
100
AcDbEntity
8
Frame
6
ByLayer
62
7
370
-1
100
AcDbPolyline
90
2
70
0
43
0
10
289.908288
20
134.541249
10
289.728467
20
134.107134
0
LWPOLYLINE
5
3B0
100
AcDbEntity
8
Frame
6
ByLayer
62
7
370
-1
100
AcDbPolyline
90
2
70
0
43
0
10
290.19434
20
134.914036
10
289.908288
20
134.541249
0
LWPOLYLINE
5
3B1
100
AcDbEntity
8
Frame
6
ByLayer
62
7
370
-1
100
AcDbPolyline
90
3
70
0
43
0
10
291.001258
20
135.379928
10
290.567133
20
135.200096
10
290.19434
20
134.914036
0
LWPOLYLINE
5
3B2
100
AcDbEntity
8
Frame
6
ByLayer
62
7
370
-1
100
AcDbPolyline
90
2
70
0
43
0
10
292.367132
20
135.200096
10
291.933006
20
135.379928
0
LWPOLYLINE
5
3B3
100
AcDbEntity
8
Frame
6
ByLayer
62
7
370
-1
100
AcDbPolyline
90
2
70
0
43
0
10
292.739925
20
134.914036
10
292.367132
20
135.200096
0
LWPOLYLINE
5
3B4
100
AcDbEntity
8
Frame
6
ByLayer
62
7
370
-1
100
AcDbPolyline
90
2
70
0
43
0
10
293.025977
20
134.541249
10
292.739925
20
134.914036
0
LWPOLYLINE
5
3B5
100
AcDbEntity
8
Frame
6
ByLayer
62
7
370
-1
100
AcDbPolyline
90
2
70
0
43
0
10
293.205797
20
134.107134
10
293.025977
20
134.541249
0
LWPOLYLINE
5
3B6
100
AcDbEntity
8
Frame
6
ByLayer
62
7
370
-1
100
AcDbPolyline
90
2
70
0
43
0
10
293.267133
20
133.641242
10
293.205797
20
134.107134
0
LWPOLYLINE
5
3B7
100
AcDbEntity
8
Frame
6
ByLayer
62
7
370
-1
100
AcDbPolyline
90
2
70
0
43
0
10
291.467131
20
135.441255
10
291.001258
20
135.379928
0
LWPOLYLINE
5
3B8
100
AcDbEntity
8
Frame
6
ByLayer
62
7
370
-1
100
AcDbPolyline
90
2
70
0
43
0
10
291.933006
20
135.379928
10
291.467131
20
135.441255
0
LWPOLYLINE
5
3B9
100
AcDbEntity
8
Frame
6
ByLayer
62
7
370
-1
100
AcDbPolyline
90
2
70
0
43
0
10
293.205797
20
133.175378
10
293.267133
20
133.641242
0
LWPOLYLINE
5
3BA
100
AcDbEntity
8
Frame
6
ByLayer
62
7
370
-1
100
AcDbPolyline
90
2
70
0
43
0
10
293.025977
20
132.741264
10
293.205797
20
133.175378
0
LWPOLYLINE
5
3BB
100
AcDbEntity
8
Frame
6
ByLayer
62
7
370
-1
100
AcDbPolyline
90
2
70
0
43
0
10
292.739925
20
132.368448
10
293.025977
20
132.741264
0
LWPOLYLINE
5
3BC
100
AcDbEntity
8
Frame
6
ByLayer
62
7
370
-1
100
AcDbPolyline
90
2
70
0
43
0
10
80.646496
20
133.682136
10
80.70263
20
133.215623
0
LWPOLYLINE
5
3BD
100
AcDbEntity
8
Frame
6
ByLayer
62
7
370
-1
100
AcDbPolyline
90
2
70
0
43
0
10
81.159435
20
132.403528
10
81.529005
20
132.113319
0
LWPOLYLINE
5
3BE
100
AcDbEntity
8
Frame
6
ByLayer
62
7
370
-1
100
AcDbPolyline
90
2
70
0
43
0
10
84.015185
20
134.544522
10
83.73333
20
134.920499
0
LWPOLYLINE
5
3BF
100
AcDbEntity
8
Frame
6
ByLayer
62
7
370
-1
100
AcDbPolyline
90
2
70
0
43
0
10
84.246268
20
133.641891
10
84.190163
20
134.108404
0
LWPOLYLINE
5
3C0
100
AcDbEntity
8
Frame
6
ByLayer
62
7
370
-1
100
AcDbPolyline
90
2
70
0
43
0
10
83.995062
20
132.74465
10
84.17972
20
133.176732
0
LWPOLYLINE
5
3C1
100
AcDbEntity
8
Frame
6
ByLayer
62
7
370
-1
100
AcDbPolyline
90
2
70
0
43
0
10
80.713044
20
134.147295
10
80.646496
20
133.682136
0
LWPOLYLINE
5
3C2
100
AcDbEntity
8
Frame
6
ByLayer
62
7
370
-1
100
AcDbPolyline
90
2
70
0
43
0
10
82.892787
20
131.918247
10
83.328905
20
132.093197
0
LWPOLYLINE
5
3C3
100
AcDbEntity
8
Frame
6
ByLayer
62
7
370
-1
100
AcDbPolyline
90
2
70
0
43
0
10
80.70263
20
133.215623
10
80.877579
20
132.779505
0
LWPOLYLINE
5
3C4
100
AcDbEntity
8
Frame
6
ByLayer
62
7
370
-1
100
AcDbPolyline
90
2
70
0
43
0
10
81.563859
20
135.23083
10
81.187911
20
134.948975
0
LWPOLYLINE
5
3C5
100
AcDbEntity
8
Frame
6
ByLayer
62
7
370
-1
100
AcDbPolyline
90
2
70
0
43
0
10
83.704853
20
132.37508
10
83.995062
20
132.74465
0
LWPOLYLINE
5
3C6
100
AcDbEntity
8
Frame
6
ByLayer
62
7
370
-1
100
AcDbPolyline
90
2
70
0
43
0
10
80.877579
20
132.779505
10
81.159435
20
132.403528
0
LWPOLYLINE
5
3C7
100
AcDbEntity
8
Frame
6
ByLayer
62
7
370
-1
100
AcDbPolyline
90
2
70
0
43
0
10
81.999977
20
135.40578
10
81.563859
20
135.23083
0
LWPOLYLINE
5
3C8
100
AcDbEntity
8
Frame
6
ByLayer
62
7
370
-1
100
AcDbPolyline
90
2
70
0
43
0
10
82.466519
20
135.461914
10
81.999977
20
135.40578
0
LWPOLYLINE
5
3C9
100
AcDbEntity
8
Frame
6
ByLayer
62
7
370
-1
100
AcDbPolyline
90
2
70
0
43
0
10
81.529005
20
132.113319
10
81.961087
20
131.928661
0
LWPOLYLINE
5
3CA
100
AcDbEntity
8
Frame
6
ByLayer
62
7
370
-1
100
AcDbPolyline
90
2
70
0
43
0
10
82.931677
20
135.395366
10
82.466519
20
135.461914
0
LWPOLYLINE
5
3CB
100
AcDbEntity
8
Frame
6
ByLayer
62
7
370
-1
100
AcDbPolyline
90
2
70
0
43
0
10
83.36376
20
135.210708
10
82.931677
20
135.395366
0
LWPOLYLINE
5
3CC
100
AcDbEntity
8
Frame
6
ByLayer
62
7
370
-1
100
AcDbPolyline
90
2
70
0
43
0
10
83.73333
20
134.920499
10
83.36376
20
135.210708
0
LWPOLYLINE
5
3CD
100
AcDbEntity
8
Frame
6
ByLayer
62
7
370
-1
100
AcDbPolyline
90
2
70
0
43
0
10
82.426246
20
131.862141
10
82.892787
20
131.918247
0
LWPOLYLINE
5
3CE
100
AcDbEntity
8
Frame
6
ByLayer
62
7
370
-1
100
AcDbPolyline
90
2
70
0
43
0
10
81.961087
20
131.928661
10
82.426246
20
131.862141
0
LWPOLYLINE
5
3CF
100
AcDbEntity
8
Frame
6
ByLayer
62
7
370
-1
100
AcDbPolyline
90
2
70
0
43
0
10
83.328905
20
132.093197
10
83.704853
20
132.37508
0
LWPOLYLINE
5
3D0
100
AcDbEntity
8
Frame
6
ByLayer
62
7
370
-1
100
AcDbPolyline
90
2
70
0
43
0
10
80.897702
20
134.579405
10
80.713044
20
134.147295
0
LWPOLYLINE
5
3D1
100
AcDbEntity
8
Frame
6
ByLayer
62
7
370
-1
100
AcDbPolyline
90
15
70
0
43
0
10
112.027123
20
57.151654
10
112.027123
20
43.086093
10
112.189147
20
41.855322
10
112.689527
20
40.647326
10
113.485478
20
39.610019
10
114.522814
20
38.814039
10
115.730782
20
38.313687
10
117.027113
20
38.142999
10
118.323445
20
38.313687
10
119.53144
20
38.814039
10
120.568748
20
39.610019
10
121.364728
20
40.647326
10
121.86508
20
41.855322
10
122.027103
20
43.086093
10
122.027103
20
57.151654
0
LWPOLYLINE
5
3D2
100
AcDbEntity
8
Frame
6
ByLayer
62
7
370
-1
100
AcDbPolyline
90
2
70
0
43
0
10
112.027123
20
57.151654
10
112.027123
20
58.151652
0
LWPOLYLINE
5
3D3
100
AcDbEntity
8
Frame
6
ByLayer
62
7
370
-1
100
AcDbPolyline
90
2
70
0
43
0
10
122.027103
20
58.151652
10
127.027122
20
63.151642
0
LWPOLYLINE
5
3D4
100
AcDbEntity
8
Frame
6
ByLayer
62
7
370
-1
100
AcDbPolyline
90
2
70
0
43
0
10
122.027103
20
57.151654
10
122.027103
20
58.151652
0
LWPOLYLINE
5
3D5
100
AcDbEntity
8
Frame
6
ByLayer
62
7
370
-1
100
AcDbPolyline
90
15
70
0
43
0
10
282.027105
20
57.151654
10
282.027105
20
43.086093
10
282.18914
20
41.855322
10
282.689503
20
40.647326
10
283.485469
20
39.610019
10
284.522791
20
38.814039
10
285.730775
20
38.313687
10
287.027104
20
38.142999
10
288.323432
20
38.313687
10
289.531419
20
38.814039
10
290.568738
20
39.610019
10
291.364704
20
40.647326
10
291.865067
20
41.855322
10
292.027102
20
43.086093
10
292.027102
20
57.151654
0
LWPOLYLINE
5
3D6
100
AcDbEntity
8
Frame
6
ByLayer
62
7
370
-1
100
AcDbPolyline
90
2
70
0
43
0
10
282.027105
20
58.151652
10
277.027104
20
63.151642
0
LWPOLYLINE
5
3D7
100
AcDbEntity
8
Frame
6
ByLayer
62
7
370
-1
100
AcDbPolyline
90
2
70
0
43
0
10
282.027105
20
57.151654
10
282.027105
20
58.151652
0
LWPOLYLINE
5
3D8
100
AcDbEntity
8
Frame
6
ByLayer
62
7
370
-1
100
AcDbPolyline
90
2
70
0
43
0
10
292.027102
20
57.151654
10
292.027102
20
58.151652
0
LWPOLYLINE
5
3D9
100
AcDbEntity
8
Frame
6
ByLayer
62
7
370
-1
100
AcDbPolyline
90
3
70
0
43
0
10
97.027125
20
63.151642
10
107.027105
20
63.151642
10
112.027123
20
58.151652
0
LWPOLYLINE
5
3DA
100
AcDbEntity
8
Frame
6
ByLayer
62
7
370
-1
100
AcDbPolyline
90
2
70
0
43
0
10
307.027103
20
63.151642
10
297.027106
20
63.151642
0
LWPOLYLINE
5
3DB
100
AcDbEntity
8
Frame
6
ByLayer
62
7
370
-1
100
AcDbPolyline
90
2
70
0
43
0
10
292.027102
20
58.151652
10
297.027106
20
63.151642
0
CIRCLE
5
3DC
100
AcDbEntity
8
Frame
6
ByLayer
62
256
370
-1
100
AcDbCircle
10
557.486033
20
192.2
40
1.75
0
CIRCLE
5
3DD
100
AcDbEntity
8
Frame
6
ByLayer
62
256
370
-1
100
AcDbCircle
10
624.686033
20
192.2
40
1.75
0
CIRCLE
5
3DE
100
AcDbEntity
8
Frame
6
ByLayer
62
256
370
-1
100
AcDbCircle
10
557.486033
20
65
40
1.75
0
CIRCLE
5
3DF
100
AcDbEntity
8
Frame
6
ByLayer
62
256
370
-1
100
AcDbCircle
10
593.186033
20
65
40
1.75
0
CIRCLE
5
3E0
100
AcDbEntity
8
Frame
6
ByLayer
62
256
370
-1
100
AcDbCircle
10
427.098779
20
233.215328
40
1.5
0
CIRCLE
5
3E1
100
AcDbEntity
8
Frame
6
ByLayer
62
256
370
-1
100
AcDbCircle
10
512.098779
20
233.215328
40
1.5
0
LINE
5
3E2
100
AcDbEntity
8
Frame
6
ByLayer
62
256
370
-1
100
AcDbLine
10
466.88603
20
70.151628
11
619.286033
21
393.151631
0
CIRCLE
5
3E3
100
AcDbEntity
8
Frame
6
ByLayer
62
256
370
-1
100
AcDbCircle
10
498.285092352
20
119.123323295
40
1.5
0
CIRCLE
5
3E4
100
AcDbEntity
8
Frame
6
ByLayer
62
256
370
-1
100
AcDbCircle
10
485.4836799
20
91.9917210708
40
1.5
0
LINE
5
3E5
100
AcDbEntity
8
Frame
6
ByLayer
62
256
370
-1
100
AcDbLine
10
226.719298296
20
76.8895516517
11
229.425278797
21
70.3567368273
0
LINE
5
3E6
100
AcDbEntity
8
Frame
6
ByLayer
62
256
370
-1
100
AcDbLine
10
113.11611139
20
104.074156785
11
121.892966949
21
107.709649393
0
LINE
5
3E7
100
AcDbEntity
8
Frame
6
ByLayer
62
256
370
-1
100
AcDbLine
10
128.98504214
20
117.37240606
11
226.719298296
21
76.8895516517
0
LINE
5
3E8
100
AcDbEntity
8
Frame
6
ByLayer
62
256
370
-1
100
AcDbLine
10
106.024036198
20
94.4114001181
11
95.9926775344
21
118.629242254
0
LINE
5
3E9
100
AcDbEntity
8
Frame
6
ByLayer
62
256
370
-1
100
AcDbLine
10
95.9926775344
20
118.629242254
11
98.6986580351
21
125.162057078
0
LINE
5
3EA
100
AcDbEntity
8
Frame
6
ByLayer
62
256
370
-1
100
AcDbLine
10
98.6986580351
20
125.162057078
11
103.549025581
21
127.171145098
0
LINE
5
3EB
100
AcDbEntity
8
Frame
6
ByLayer
62
256
370
-1
100
AcDbLine
10
103.549025581
20
127.171145098
11
113.11611139
21
104.074156785
0
LINE
5
3EC
100
AcDbEntity
8
Frame
6
ByLayer
62
256
370
-1
100
AcDbLine
10
121.892966949
20
107.709649393
11
108.499046815
21
140.04543303
0
LINE
5
3ED
100
AcDbEntity
8
Frame
6
ByLayer
62
256
370
-1
100
AcDbLine
10
108.499046815
20
140.04543303
11
113.349414362
21
142.05452105
0
LINE
5
3EE
100
AcDbEntity
8
Frame
6
ByLayer
62
256
370
-1
100
AcDbLine
10
113.349414362
20
142.05452105
11
119.882229186
21
139.34854055
0
LINE
5
3EF
100
AcDbEntity
8
Frame
6
ByLayer
62
256
370
-1
100
AcDbLine
10
119.882229186
20
139.34854055
11
128.98504214
21
117.37240606
0
LINE
5
3F0
100
AcDbEntity
8
Frame
6
ByLayer
62
256
370
-1
100
AcDbLine
10
220.147556264
20
66.5137754065
11
221.716557304
21
62.7258718152
0
LINE
5
3F1
100
AcDbEntity
8
Frame
6
ByLayer
62
256
370
-1
100
AcDbLine
10
221.716557304
20
62.7258718152
11
227.206374786
21
64.9998286713
0
LINE
5
3F2
100
AcDbEntity
8
Frame
6
ByLayer
62
256
370
-1
100
AcDbLine
10
229.425278797
20
70.3567368273
11
227.206374786
21
64.9998286713
0
ARC
5
3F3
100
AcDbEntity
8
Frame
6
ByLayer
62
256
370
-1
100
AcDbCircle
10
216.359649148
20
64.9447758258
40
4.1
100
AcDbArc
50
22.5
51
202.5
0
LINE
5
3F4
100
AcDbEntity
8
Frame
6
ByLayer
62
256
370
-1
100
AcDbLine
10
212.571743795
20
63.375771991
11
215.277723565
21
56.8429589288
0
LINE
5
3F5
100
AcDbEntity
8
Frame
6
ByLayer
62
256
370
-1
100
AcDbLine
10
215.277723565
20
56.8429589288
11
206
21
53
0
LINE
5
3F6
100
AcDbEntity
8
Frame
6
ByLayer
62
256
370
-1
100
AcDbLine
10
206
20
53
11
106.024036198
21
94.411400118
0
LINE
5
3F7
100
AcDbEntity
8
Frame
6
ByLayer
62
256
370
-1
100
AcDbLine
10
319.660562465
20
104.472655192
11
323.589037256
21
98.5932771798
0
LINE
5
3F8
100
AcDbEntity
8
Frame
6
ByLayer
62
256
370
-1
100
AcDbLine
10
202.936775571
20
108.972033444
11
210.835736888
21
114.249950659
0
LINE
5
3F9
100
AcDbEntity
8
Frame
6
ByLayer
62
256
370
-1
100
AcDbLine
10
215.906429533
20
125.110635399
11
319.660562465
21
104.472655192
0
LINE
5
3FA
100
AcDbEntity
8
Frame
6
ByLayer
62
256
370
-1
100
AcDbLine
10
197.866082925
20
98.1113487047
11
183.302807384
21
119.906830802
0
LINE
5
3FB
100
AcDbEntity
8
Frame
6
ByLayer
62
256
370
-1
100
AcDbLine
10
183.302807384
20
119.906830802
11
184.682304281
21
126.842030029
0
LINE
5
3FC
100
AcDbEntity
8
Frame
6
ByLayer
62
256
370
-1
100
AcDbLine
10
184.682304281
20
126.842030029
11
189.047519745
21
129.758773753
0
LINE
5
3FD
100
AcDbEntity
8
Frame
6
ByLayer
62
256
370
-1
100
AcDbLine
10
189.047519745
20
129.758773753
11
202.936775571
21
108.972033444
0
LINE
5
3FE
100
AcDbEntity
8
Frame
6
ByLayer
62
256
370
-1
100
AcDbLine
10
210.835736888
20
114.249950659
11
191.390778731
21
143.351387089
0
LINE
5
3FF
100
AcDbEntity
8
Frame
6
ByLayer
62
256
370
-1
100
AcDbLine
10
191.390778731
20
143.351387089
11
195.755994196
21
146.268130813
0
LINE
5
400
100
AcDbEntity
8
Frame
6
ByLayer
62
256
370
-1
100
AcDbLine
10
195.755994196
20
146.268130813
11
202.691193423
21
144.888633916
0
LINE
5
401
100
AcDbEntity
8
Frame
6
ByLayer
62
256
370
-1
100
AcDbLine
10
202.691193423
20
144.888633916
11
215.906429533
21
125.110635399
0
LINE
5
402
100
AcDbEntity
8
Frame
6
ByLayer
62
256
370
-1
100
AcDbLine
10
315.239308141
20
93.0141633085
11
317.517144598
21
89.6051401409
0
LINE
5
403
100
AcDbEntity
8
Frame
6
ByLayer
62
256
370
-1
100
AcDbLine
10
317.517144598
20
89.6051401409
11
322.457849801
21
92.906413814
0
LINE
5
404
100
AcDbEntity
8
Frame
6
ByLayer
62
256
370
-1
100
AcDbLine
10
323.589037256
20
98.5932771798
11
322.457849801
21
92.906413814
0
ARC
5
405
100
AcDbEntity
8
Frame
6
ByLayer
62
256
370
-1
100
AcDbCircle
10
311.830281232
20
90.736327596
40
4.1
100
AcDbArc
50
33.75
51
213.75
0
LINE
5
406
100
AcDbEntity
8
Frame
6
ByLayer
62
256
370
-1
100
AcDbLine
10
308.421256881
20
88.4584880547
11
312.349730614
21
82.5791116285
0
LINE
5
407
100
AcDbEntity
8
Frame
6
ByLayer
62
256
370
-1
100
AcDbLine
10
312.349730614
20
82.5791116285
11
304
21
77
0
LINE
5
408
100
AcDbEntity
8
Frame
6
ByLayer
62
256
370
-1
100
AcDbLine
10
304
20
77
11
197.866082925
21
98.1113487046
0
CIRCLE
5
409
100
AcDbEntity
8
0
6
ByLayer
62
256
370
-1
100
AcDbCircle
10
542.086033
20
70
40
1.75
0
CIRCLE
5
40A
100
AcDbEntity
8
0
6
ByLayer
62
256
370
-1
100
AcDbCircle
10
542.086033
20
118.3
40
1.75
0
CIRCLE
5
40B
100
AcDbEntity
8
0
6
ByLayer
62
256
370
-1
100
AcDbCircle
10
616.886033
20
118.3
40
1.75
0
CIRCLE
5
40C
100
AcDbEntity
8
0
6
ByLayer
62
256
370
-1
100
AcDbCircle
10
624.686033
20
70
40
1.75
0
CIRCLE
5
40D
100
AcDbEntity
8
0
6
ByLayer
62
256
370
-1
100
AcDbCircle
10
619.686033
20
187.2
40
1.75
0
CIRCLE
5
40E
100
AcDbEntity
8
0
6
ByLayer
62
256
370
-1
100
AcDbCircle
10
619.686033
20
141.2
40
1.75
0
CIRCLE
5
40F
100
AcDbEntity
8
0
6
ByLayer
62
256
370
-1
100
AcDbCircle
10
561.686033
20
187.2
40
1.75
0
CIRCLE
5
410
100
AcDbEntity
8
0
6
ByLayer
62
256
370
-1
100
AcDbCircle
10
561.686033
20
141.2
40
1.75
0
ENDSEC
0
SECTION
2
OBJECTS
0
DICTIONARY
5
C
330
0
100
AcDbDictionary
281
1
3
ACAD_GROUP
350
D
0
DICTIONARY
5
D
330
C
100
AcDbDictionary
281
1
0
ENDSEC
0
EOF
